<mxfile host="65bd71144e">
    <diagram id="ZC6PafSODY_O-T9ZUMLZ" name="Page-1">
        <mxGraphModel dx="1052" dy="720" grid="1" gridSize="10" guides="1" tooltips="1" connect="1" arrows="1" fold="1" page="1" pageScale="1" pageWidth="850" pageHeight="1100" math="0" shadow="0">
            <root>
                <mxCell id="0"/>
                <mxCell id="1" parent="0"/>
                <mxCell id="2" value="http://ics2o.mths.ca" style="swimlane;whiteSpace=wrap;html=1;" parent="1" vertex="1">
                    <mxGeometry x="40" y="280" width="816.38" height="480" as="geometry"/>
                </mxCell>
                <mxCell id="5" value="" style="shape=image;verticalLabelPosition=bottom;labelBackgroundColor=default;verticalAlign=top;aspect=fixed;imageAspect=0;image=data:image/png,iVBORw0KGgoAAAANSUhEUgAAAggAAAElCAYAAACBJhoWAAAAAXNSR0IArs4c6QAAIABJREFUeF7sfQd8ZVWd//eW12t6z6RMS6YXYOi9Su8ooIjuWldXXf+yKpZVXBbUleLiyipFQVBBkSoIwiAwMwzTS6ZlWnryer3vlv/nd25e8pJJnUmGTOb85pNPJu+de+4533veO9/zq8Jfm35hgAtHgCPAEeAIcASOQwTUtII3H/gDtr+yHoZhwGWT4XVYoRsGIkkFJRWlWHTLhSg/aRYkq4yuTTvw7j1PQ02r6IkmoagG3EX5uOqef4a3PG9MCKZiSWz7zp/x5dPOh1WWR70mqqTwdlEY81aciOpINSCK5jWGDkMQQP/ey9uOqJAa0Fe8J4q/fPMR9Ow5wF63SgL8LhskUUBpbT2+8+zbI95beKfnfzlBGPXx8AYcAY4AR4AjMF0RSEWT+NNXH8W+tbsBA7DKAnwOK9KqBoskwW6VUXHybCz42BnIqy3Bpt+8iU1ProSiaOiJpWBAQP3pDbj8Rx+D1WkbFSalJ4Glf4rBI1oHthUE828iAPR/TUMGBlY2bUD57ErMPPkSyKK97xqjuwuKw0Am343N1btgCOZ2TkQnuL8bz93xW3Q0tbA52SQRfrcNokDdizjxtsvx8S/+DycIoz4t3oAjwBHgCHAEjmsElHgaT/zzQ+jYdpBtqLRV+51W2K0ShN6NW5BE1J23EA3XnoJ37nkWPU2tCMRSSKt0gYAVt52NMz9/sXnxCOLdp2De6wmTCIgS4HAA/nzA7QJcbkC2APubgdaW/l6obXEJUF4J2Owmgdi2GXoyiu2XFSHsTrC2mZSCnX/fgr/+6Bmko6ZGwSqJyCdyQOxAEDDjzEac983bsKzwo5wgHNernk+eI8AR4AhwBMaEgBJL4Y9ffRT71+zqa2+XRfhdVnbqzorFZUfJ4hq0vLMd6YyG7mja3IjdNtz00GdQ2lg54v38rRLm7i2B4PMDZGLIag6yV4VDwI7tgGL2O0CorSQBdG0wgKQb2HilFyp07F65FW8+8BICzV1Mi0AiSwIKyKwgmeMvXz4TZ/3wo3BZ87HEfz0nCGNaGbwRR4AjwBHgCBz3CKRjKfzt3uew+S/v922ydPDOc9lgs0h9rwlEGHo34Vgqg0gyw7CrOWkWrv/5p/u0DrmAepMuzGybAasqM7+B4cUAtm0BAj0jPg9DBDZc6samzTvwzv+9hs6mVmgZre8aSQAKPHbIveSgdGkdzvr+TbA4rLCLPk4QjvvVzgHgCHAEOAIcgXEhkElnsOEP77HTuJo2N346uOe7rMhoOnPys1vkPhJADo3dkRRU3YBst+D6Bz6FqqV1h9xTMAR4kk6UdhQiL+0doJUY0DiVAjauAzLKsOOme/5x+1q8sGsdoi09A4gB0xyIAjMrZMlB5clzcMr/uwo2j4P1OWEEQRRk5Ftq4JILIQs26IaKpBZCWG1hv6ez2EQPHJKfTTGpBZHWY9N5unxuHAGOwHGIgCzY4bWUsZlrhoJwJsf2PQQeTqkAdsnL3olk2qAaA73npyqEdGqnsVtFFzQjjbgWYPMdSkhFv3/Nbrz4vacRaQuyJrTpuu0yEooKmyzBY7fCIIcFAKRFiKZU9v/Shkrc/MjnIVmGjlDY+Y8mbH1oPW666kYsaJzfTxQUBehoM30PVJOYDDk2AC9tWIe7X3oWPqcV4iATBY3dY7fA67Qyf4jq0xqw4itXwOY1yQHJhBAEn6UCc9znQxIsh4yTgGlPbcb+5BroRr9aY6oujvGMiz4wtc5TUGirH3BZt7ILzfF3j5kPxHjmzNtyBDgCxycCHrkE872Xs8nTQWh9+A8jAlHjPBll9vmszebIc4iqHVMeOK9cinr3WbCLnr6x0mG3JbkeLakNMKAPOYdIWwh/+vpjaN96kJkXSHtAoZBWWYRFEhGIp1hYJFkbuplToAByZrzkezdg/sVLh3RYfP/Z1fjd138DWZZx6vITccvVN6DBlw+0HByRGNAAVU3D8xvW4uG3/gqyHGQdKOm9Xh9ENkav3QqrVcbMixZj+ecuhmVQdMUREwTSGCz0XtUHmmqkmfZAFCTQBpqV1tQm7Eu8N+UXyFgHSCxzvvcKuOUidkl24QgwnTyiaie2RP4y7IIa6314O44AR4AjMBUQGC9BmOE4CaX2Rjb0rdEX2HfiVBaPXMy+07NCB1pBEPv8AEKZg9gWfWnYKeiajj986f+w972dMHSDEQU6tLvtFrYZkzgsMjojSei9iQN8FXm4/emvMXv/YHnt5y/j5Z++yF72O2S47DbcespZOHvuIjittiH9F3RdR08shgf/9hI+2L/TjEjoFfqvRRaZ1oBIC4lss2DeTadhwcfOhNj7Wu44jpggzHKfi0KraUfpTDdhd/ytvv6LrLMw031W398fhH6HtB6dymtkzGMrtTWg1nUaa5/QgtgYfobRhCX+m2ATXez1vYl30ZbaPOY+eUOOAEeAIzBVERgvQZiq8xhuXEQOiCTQ9/iO6BvoyexmpuP5nsshizZmJlgTfBSaMbxaX1c1vPjdp7H1pXV9jop0PwtFCbjtjDAEYmmkVVMTQX/f9tRXUDTTNN3kyu+/9SRWPfUuM1n4nRZGCArcFFJpwbIZs3HarIUocvsgiSJUXUdLsBOPvv0WVu7YBZtFZGYFik5wWuVex0kglVGZX4TDKsOR58Jp37oOpYtrh31UR0wQlvpuhE0y1TFrQ09A0eN9N6PT9Il5t0EUTLayNfICwmrrgMG45WIQkbCKTqT0CDrTO5j6aiih/gqs9fBbKlmfxEi70jtAWotccUkFfYkiTDuZgAr7QuYf0Rz/BzK9tjDSAhRY6+C3VrGYVmrbpVDoyuh5oRb5roVTMjNirQ//vs/PQhasWJ53C2isZHfbEn3+WPuc8PFyBDgCHIFDEBgvQbCLftgk87AUV7sgCVbYJR/7W9XJtt+ds1cI8FrKe/82EM609X0PS4LM9giPpYxpp3uUZoQyZta/weIQ/SiyzYJDyoMBDTG1G+2pLdBh2v2HE6voxjL/jWyvoGs2RZ7ta1pqm4da1yns76boqwhk9o7Yl5rK4NW7/4SNf17d1460CV6HhWkTwok0Ekq/qeLiO6/DwitPHNinATz86Yew/c2tcFhEZq4gbUCx184IQVaIaDjJh4HyJek6DnTF0B5J9mV7nF3mgyxLCMWTLBsjEQPZIqHu/MVYcvt5sOeZz2c4OWKCQOYF2nhJaENsTryDhBbou59FJIcHU82h6WnoMP0QLIITjd6L4ZTyB4yNWFo0046t0RcHqOdpgcxwngSzv37RDBWd6e3stJ6Vue4LkWetZtevD/0e87yXMQJCsi78FFJaBH5LFepdZ/S9nr1W0RNMC5K7AE/Iu5UtbpJVgV+xfk/Iu4WZUJJaGOvDTw8Y02Lf9XBIPqiGwhgnF44AR4AjcKwjMF6CMNgHgb6rF/muZjDQ9+wHoSf6nPd8lnI0ej7C3gsq+7E99gr7f5l9ASodS5jje66Q4/uO2N/69ho67M1xXwi/tfKQ0EDD0HAwuQ4HU+tYF3mWaszxXNDX3XuB/4NddKPMvpC9FlHb0KPs6Xu/3L4IM5zmBr4u9BQ7yI4mFAZJJGHLC2v7mtIuWOi1I6WofY6K9Obia07CBXdcAyHHHECE4v7rf4r965tZIiYyCZCZgggCaRI03WC+BElFZZt+1seACEJbOMHSJRd4bKgs8LD3yPRAZgyKUmi45mQUzC6HKEujTePInRRLbA2o61W1Z+9GmyY5pETVdpDdJlerQG3oYROxyGoeqF1CC8ErlzDmRxLNdLDTN23G2QdKi4AIRE96D2OE9HqWMLQmN2JfchW7tp8gGEhp4b4IA/aAw08xcjLP+xF2yid1UUBpZiQm31rDHC3ptQ9CT/ZpJk7M+0SfAyYtJhrTSXmfZH4WQ9mlFjDfBFJVAWuCjx2i4Rj1qfAGHAGOAEdgiiFwpASB9oSF3mvgkvNBm/bq0GNMI0BCh79ytkEbWBd6mm3CJba5zIxL3/u0hwQzByDBggJbLfvupoPehsgz0I0M++4mR3kSOtx1K3sgQUa5YxFsopu9vjH8LNNa5FlmYG4OQXg38PAhWmOLaIdXLoNTKkSZvZEdEONqDzZGyJQ8NkkE43jhziex5x9NfRf4HGQqAEKJfjNFxeIa3Pg//wzZ1h/NYOg67r7wh0i0BOC0mVkayUxR5HUw7QClbvY7bVBUbQBB2N8VQ08syUwSpX4XHDYLXMU+1J63EDPOnA9/bfGQvgbDzeiINQj0oOpcp6LYNqdPU5B7M7ahK83MQTFLFIptc1HvOp01owe5K/Y62/hJlbTAezU7fZNkfRYWeK9kzoCkfSAzRdYblh48vUckgRba6uBjTK2UJQjUB23mbcnN6FSaWBtFT2Ke9xJ45FIQozWJgBl+Q6aLBs/F7P9kbiAtBslS3019BOH90G9YnyvyP8UWbkDZi6bYqwPwJY0FecOSkAYjqU/vMM+xfVx4K44AR+BYRmAiCEKFfRGqe0/ju+MrmfaXJGuyJc3C2tBv2WvL/B9loYakLaDNPWsmIK1CjXMFa3Mw+QEOJNcyckAkgYQ0C1kNAIWgz3SdyV5vTW1EMLOffc/Pcp3T9yjWhB4/hCCQuWNer0aDGqa1KLZEX0R6DNqD3Gcc7Qzj6c8/jO7d7exlCn+k0EeKZMie+r2lftz21Fdh9/Q79ZMvw91nfgdCor+dTRZZQiOWTyGaZEmZVE2Hw9ofPdjSE0NSyaA83w2nzQJHoQcX/OST8Jbnj5raeai1ecQEIdspbdZVjhOYkwc9VDpd5wqdyun0nqEN2nMpi6clUkCLgV7LiksqhEsuYH/S5kv5FWihkAylzq9yLGcqKJItkRcQUVsHEARik9uiL/f1TwtmKbM1mc6FtJhyhcZG7JFIwOrgo30MdzB4YyYIOf4JQz0A/hpHgCPAETgWEJgIgkAm5UW+a9h0TTLwBMuVsMRnpvMNKPvQFPsryI9sYa85oiO9/RBnbzoY0oGS/NA2R/6M3H2Avru70jvRnd7NnOIpL81w4YnD4U4H0nrXmSCfMtM8LbCD5LrQ78cdvh5uC+Cxm+9DPBBDnsvKIgm6ImaoI4nd68TtT38F7mLzYMywiadx/3nfZdUgs+K0SqzKoq4bLGySCkVphsGcDrPSEYojnVFRWehlaZPnXHESTviCeeg9HJkwgpB7czpZ51trUe1czmwYWSE70IHk+332e3popIIfySs01zZFtqEtkYFOf0W22X0McX9iNYtVzdUgbI++zFRTWaGcDY2eS0bFisjL+8HfDLsY+k0MAwkIddzvDQu8H3y8zyly1JvyBhwBjgBHYIoiMBEEgaZGZCDrrPh+6LcgJ8BKx2I2642RZxFXu1Fia2Sa6dGENn/SAtOeQ75fduYwPzA9Mankm+KvIqTs7/N5GK3f3PdzyQdpM8gpfbyy9eX1ePvHf4ZN1djwOsP9oY4WuwWf+N1XkF9t+vIxHJ5djZd+8PsB/vKkfTBzKRiMGGiazpIfWXJ8CdqDMSiqjpryfDRccxIWffwcVn76cOWICAI5+lU5lrJ7k7qeYl1zhR5ahX0xqpzL2csxtQubIn8COf2RH8JYCALZgeZ5L2XXR9QObIk8N+AeZNogZ0OSfYlVTI2USxA2hP84wGkylyCQ5iKmDR2bSw9hV/zNYTNoZedAWogNgxKGLPZdx/weiPisDj5yuM+GX8cR4AhwBKYMAhNFEHK/s8mMSxswaZ5TWhTrwr9j8831baOotuEcAzN6Grvjb7JraL+xiE6QCbvYNrvP9yAL4J74P9CR3joknuQDUWidyd4jwpGrcSCTN5EPEsqNsCbHd2I8D+eNbz+Bg+80sQ1+QKijJOITv/0SimebURyaquGXV/0Xwi39zv70OvkvuOz95gRyUCTnxWyaZGrTFozB4bLj6h9/ghVcynV8HM9Ys22PiCD45Ao0es3T+HCbvVsqwgLflaxNONPKSMQ8z2XwWshGb4AYZK6JgRZGuX0Ba0+erLQATsi7mT1+ckohM0Wu5HrKZp1QRiIIZP4YyWQxVhCzLJjmTb4SWf8KARJOzLuVmUbIV4IyiHHhCHAEOALHOgITRRBMk8INvXtCC6hf+r6kEPfsZk8h5OSXQNKe2ormxD9GgE/ozV9g7kN0ECUhslBgrWXZbkmy5oihOsrVElAUG+X0yQo5nJPjOQkRBDI9k6/beOWt/3ga+/6+hV2WW7iJ/r7+wU+j9uTZ7L1QSw9+cdl/HtI91Xiw52gDkukMrBZpQNhjeziBK+++BTPPWTBkIqXxjvmICAL5GVAeBHoQJEQA9ifWIKZ1MS9Tn6UMtc5T+/Jx742/i7b0ZubQmD31hzItzOZEDoR20Yv5vsthEcxQxqx6nsJfyNRAav/dsTfRpexk77ulYkZQspEHZK6gBTISQaDrSCNBmgl6yFsiL7JoCxKKoGjwXMR8KBJqgKm7Zq0V4D3jWggWM8yRfCZoHBX2JcyEwh5o5gCLj6XsCQ2eC0FaChLCoiW1frzPhLfnCHAEOAJTDoFcgqDqKXT2fg8PHijZ6ik18XCplumkv8R/A8gfLFfIfExm5KwsZUnn3OwASRFt2Zo+XrkcczznscgCIg8U4n6C/2aW+4a+m9f3RkFQP/RdTv3QPbP+aD7mpNifwI8cz3NJAOXVIb+1mNrJ7j/TdXbvgZZ8JJrRFHvtsJ7N6vtfQNOfzNwIVP65J9afv+fcf7scy28yHfc/eOptvHr3nwfcgyIfCnOKKpGDo0kQ5L4sjXRB1SVLccaXLh1TCONYJnFEBIFuQGaGuZ4LB8SemuoZeiT9tiAKN9wUeY7Z9GlDJy1C1hmR7EikHSDHkGw9hwPJD3AwacaQ0sMjj1JimSRkoyKPVmpPJ3ZaFEQ+2tMmOxuNIJj9XdrnSGmmADXglgohCBIzl5CdyZ4AGt9QIVx3A2A1CUI2zJHmt9h3bV8IJUvLSf96k0LRYiZzykj+FWN5QLwNR4AjwBGYCgjkEoSRxpN1Jh+pFgOp82e5z+7rhpwJSRObK0XW2ah3n84OmxTBFst0sj2A8u7Qd21aj7MMtrSnkM/bHPe5bN+h/YRC4WkfoqRJRBJIdsReR4+ye9gwx5mus1j7rFAeG9qPsvsYEZUPwr8b1nF9tGe088W1eO/HpkaZkhp1hlN9KflmnzMfV/znzcwB8fGP389KMucK+RoUeW2slkM8lYHPZeslCDkaBEHA2T+4CZUrKKJwYuSICQINg0IGKRcC2d0H16+mjZNO6Dtir7HEQVkh9kehKWRqyNYvYMAZCjrTO7E38c6AGdI9KDQyWzUx+yZ5wramNgzwch2NIJhjLmHOjVlnmWx/tLgo2yKFwzQE58H/3h7guuuHIAgmO53jvgBuFnXRT4YoXpZCH6dLWumJWWq8F44AR+BYRmAiCQIlmVued3PffkEp6XOT3WVxIm1zlWNZ3yaffZ18v3bG3kBC6+mDtNpxIkrscw9JqkT7TkdqGysYSAfB4fIgkEa81nkaKx2QPYxS51mzxa7YG0gdQamA0N5OvPjZX7DIhHhaQTqj96Vcdua78Yknvox0NIlHPvrfh5RlNlM12xBLq0ikVZT4HCzEkWo62Cy9EYOCgIt+djuK5lVN2DKbEIKQHQ3lIyDwHaKPnZzp4VEEwUghJiIk5FlnMLMCOaKEMwdH9DQllQ/FqNJ1pEkgc8aRCBEEyllA/ZEmIZv+k4jO8uAKyGs2Qa+qwqa6ZiRsQ5crJVUZmRWIIoSUA0gb/emmj2Rs/FqOAEeAI8ARANMakD8bbddkyh4pmyEdJl2UoZfU8GrwkPT+o+FJ3/1+SzVL5EemFDJNDE7nP1ofQ71PuQ2e++QDiLYEEE8pSGY0KGp/Wv/L776ZEYRXfvDHQy6nHAgUItkVTTMtQ4nfwfabeFqFg/wQJJH5HFzy0GeQP9PMwTMRMqEEYSIGNFX6cGluLIwuBbrCLNRkf0E7WgqmfrnSqYIfHwdHgCPAEeAIDETgvZ88h50vrGUZEMMJhYUkZhMmzb1gEaiOw663Do20oBBHSqlM4ZFkbij2OyD1plBOKFpvrQYRF93/KRQ2VE4Y7JwgDAPlnMQ85GcKge4IGYwQsyWwuXoXDGH0Qk4T9nR4RxwBjgBHgCMwbRDo2LgPr37111BVDZGkwmoqZLUI2ZLPmWSvKZ4cDpjlWkChxwZNMxBMKOylLEGgkElyeCQzAxGNE7/0Ecy5fFDhpyNAjxOEIcCTDBnLIydDhAj0RKj0GDN7bK3ag4gjdgRw80s5AhwBjgBH4HhFgMwMf/vG42hf18wcDiktcm5dhlxcqPojkQGq2EjmBSIU8bTGajmUUNGnjMbyINCRldpRwiSL245Ft56FhqtPPqzUyoOfCycIQ6xUl+bCwpgZwohAFMiYMa9BZwTbK6mwExeOAEeAI8AR4AiMH4H9b2/Dm999CsQQKBtiZzTFyMJgocqNVLGR3iK/A0rPTOYESrlMlRoDcYX5H1AJaXJYZDkSBAErvnIZZl2ybPwDG+IKThCGAKUiXYXqVF0vQYgBmkYZMqCLOjZW70DS2h+/OiFPgXfCEeAIcAQ4AscFAmpKwevffAId60mLYKAzkmKmhgFiGCj1OyGKAiMR3dE00yAkMho8vQWfyKRAzotUk0E1TILQcM0pWHL7uUeUXjl3HJwgDLEkF0WXw6mbsbMI9poUNJ35IsRtSWycseO4WMh8khwBjgBHgCMw8Qh0bT2AV/71VzBUHT3RVF+4Y/+dDJTluZjpIJVR0R1JI8R8FkjxYDDi4GW1Gcz0y+Sw6Mpz4crHvwSr20w0OBHCCcIgFF1pJ+Ynl/TFwapdnZDtblPPk1SYL8KWyt2IOnko40QsQN4HR4AjwBE43hAwdAMU0bDjxbVIpDOIJPurNhIWZFogDQIJ5T3oiaUQjNP+059vx2mRUOi1MZMD+R/UnDEPZ37nhgnxPcg+D04QclamqIuYf2AmXKoLKPSa73ywAXDYgbpaIJRgL6miinW126FK48/Hfbx9EI7WfC09Kioe64FvdQK6VUBsgQOtN+YhXWlmwMwVz4YEil6MwLFPQbpURtdFXoRXuI/WUPl9OAIcAY4A2ppacN+V98BjkyGLQl9WRYJGFihSwSQIFKVAZgiKYMj6KpAWwW2TUeS1MzOD3SbjjDtvwIwzGicUWU4QcuAsiuRhZnu1+YrDCnidwIaNQDwBnHSiGdHQayrq9gSxq/QAD3uc0OU4/s6EjIGZ329D/t+jEDMD7XiGCEQWObH7zjKkyyxwb06yto4DyoAyquxDWGbBnq+VIHQqJwrjfwr8Co4AR2C8CKRiSfzw9O8gGUsO8CugfnI1COSD0BFJIhjPQM3xVfDYJZR4HawWg9Ntx+UPfw6eCsrqO3HCCUIWSwOYf2AWPCmnqaLxuwCrBdr2rZCaDwLnnwME48xZMSs7S/eh2xuauKfBexofAjow7zP74N2YHPE6pUjGgU8Vov4/2w8hBgMuFIBd3yxF16X+8Y2Dt+YIcAQ4AuNEgEIeH7j+J9i/6QDbcmijd1klVqGRvqiyPgjZ8tCURZFCHklIk+B3yijzO6EbBrz5blz71L9Btpv1iiZKOEHoRdKdcmL+/pn9tSRkCfA4EIsdhPPtTRCXLQfITGSzA53tQGExMmoMm+e0IcWjGiZqPY6rn/oftKH4+fC4rhmtsSEL2PhIDRIzbaM15e9zBDgCHIHDRoA2/j/c8QRW/XFVXx+yJMDfm/+g1O+AKIrsPSoP3RFOIpY2zdp0LZV/rsh3MtJQUJaHa5/62oT6H9B9OEHofTQzuspQHiwe+LA1DYYApHevh70zBlRUATNqgQ1rgcaFQCqJUKmIpvK9LASSy9FDQEzqOOGinRDTE5/ZsutiH3Z9p+zoTYbfiSPAETjuEKBN/tX7X8Zf73+pb+6kRchzmgmSyL+AnA9JKDVzeyjJch9QeCNdS8mSiEQkFBWldSW48rEvTTiGnCD0Qtp4oA6+5MD65FAUGF0diOeLcK3bBcHlARYtBWJRwEWRDQYUi4rm4lYEPBN7kp3wJz3NOix8MYRZ32+flFll8iS8/1J/2ddJuQnvlCPAETiuEaBN/vn/+jPefPj1QwmCIMDvtMBps7D3yIxAdRi6Imlkj6LlPjsKvHYW5VDZWIlL//dzLMviRAonCL1oLtw3G670EPGjug5j83oI0ajZ0uEEJAlIpwFdw97lNrQ1HuopP5EPifd1KAI1/92Bst8FJw2a91bOgWGZ4E/bpI2Wd8wR4AgcawhQqOPj//prbHxxfd/QyTmRTAekJbDKIivxnC3mFIqn0RFOIUUFngCU+e3s/aSioWZ5HS762acmHAJOEEYiCKxYhgBs2wwE+uuO5z4FXQJ2nu5EoJaThAlfnSN0OOO+TpQ/EZi0W777zhzTlZgLR4AjwBGYBAQ0VcN91/4YLVsO9vVO3zgFbpMgkJT47JB6/RAoX0JHJMVyJtBXU6HbhiKvDapmYNY5C3DW926c8FFygtALacPBOvgTg0wM6RQgyUDrQeDAvqHB93qh+lw4MFtHezVPwTzhK3SYDr3rEpj32f2TcrtUhQXr/lg/KX3zTjkCHIHxI2BVZdSuVrBvgYCUZ3oQ93QijR+cfieSkf4oLBZA57RAlkznRCILNosZmUB+COSoGIhnWN4EKuBkahiARTeehuWfvWj8wI5yBScIvQCVB4oxo3sYx7RIGNjUrwYagCmZHBYugR4NYtP8LiRcmQl/SLzDQxEQVIM5KUqxiXcObbk5H/u/MMhhlT8EjgBH4ENDoCRcgLrXurHrLC+6CnrNvR/aaCbmxj37u3D3BT+ETvmTc4RSKFP5ZhI3S6dsaqcpH0JbmPIhKJBFEQUeK7x2CywWCWfdeT1qzpo/MQPL6YUThF4wJF3Cor2zYVOHMBXoGrBxHRAfJr1yw3wgvwAJpRMbG9tACXq4TD4CJc8EUXtu5GfmAAAgAElEQVRvB4QJ5AjkoLjht7XI5E9sPPHkozG17iAaAnRh4iNMptYs+WiOBgKCIWB+9zy4V25BZHkttlTvORq3nfR7fPCX9/HkVx9nEQm5YpdFeBymc2KuHwJVdGwPJxCIKbDIIoo9Nlagyemy4erf/iucBYM04BMwA04QckDMj3kxq20GxKF2+I52YFfT0JDnFQCNJnv7oHYb0hZlAh4N72IsCNT/RyuKXopMCEkgp8Qt91chuthMccplfAjQF7k/7kFZqAjWjAXbK/YgZeWfhfGhyFsPRsChObGoZzGE1e9DnzUHa2duPebT3Ouqjkc+/zC2vr75kAdOhZfyXBbmh0DmAwpnpHwIFMlAJoaeaJqVeS5m/gkCiqoKceXjX4YoT/zJlBOEQY+nMOrDzLYZ/QmTsu8Ty9u8ASBzw2ApLgFmzWWvHihsw8H8Tv4pP4oIVD/YiYrHj9xhkRIkxefaj+LIp9etKntKUNVT2jepmC2BzdW7eDry6fWYj/psytIVqInWmqnuBQGbq3Yh6ji2i+WFO8K4+4L/gJIYikAbzAGREQQAhR4by4fACEIoiZ5YGi4bZVF0sNdqltfjwp9+0nSon2DhBGEIQJ0pO+a21cKWGWRuUFVg726gq9PMdWl3AvX1gNff93CoHPSm6p38S3GCF+qI3elAxeM9qP6frsO6KxV32kTZE+t49sTDApDSxGoSljY3QKawnhzZWL0DcfvIqbAP9578uuMDgXmxRfAqXqA7wiZMdXB2lk2Og/LRQnTDS+vw+L/8etjb+RwyrL1JksgRkXwSyMTQFkowgkBlnsvznCyCYcEVJ+CUf7tyUobOCcIwsFJlx8Kon2VXdCiDNo5MBtB1wGo9hLUZgoE19VugibzS46Ss2OE6NYCypwOo+en4tDeaW8TW+6oQa5y4GupHdd5T5Gb5MR9mtx6qeWvJ68T+orYpMko+jGMNAZtux+LoCWCJartMgqALOtbXNB2zplxVUfHIZ3+J7W9tG/Zx2C0iPHbTD4HyIpCvgarpfdkU6TUKgaTiTad+4RLMu+HUSXm0nCCMAisRBQp/LIj6mX118AlpqMvX1m2FIvNohklZsSN1agAlzwZRd0/HyEWZevtQvRKa/rMCkaXc52Csz8qiyiCPck/SZX4Wev2rLJo8pINv0prChhk7uEZtrADzdgMQKEmXoy41yyySRxqEXoe+fYWtaM0/PI3hhw1xy7aDeOC6nyKTHrxHGCw6gcwGFMboc1qZAyOFM1JGxXRG7S37nGF+CRQOSb4JF/34EyhfNjlh2ZwgjGO1yJrESEJe3AtX2gmraoGkH+oYsq5mOy/gNA5cJ7pp6e8DmHF/F0RleC/6TL6Epv+qRHQ+1xyMFX8iB40H6+FUxuen8X79FmQkqnTGhSMwPgTmxOchXy00iQERBLKzazpUScX6GU3IyMfYujKAF378HN74xWuHAGGj6AW7zKZK31zkgEjidchw262IpRRmXoinNVT4HSxXgsfrwBW/+gLcZXnjA3aMrTlBGCNQQzUjHwVfwo28mBcOxQ6rZhKG9TXbkeQVHo8A2SO/tOilMOp+1D4kSVA9IrY+WI347PFtdEc+qmO7h5nt1SiKjP+LiHxyYvbEsT15PvqjjgC56C2JnggyMzDpCgOUE4Ac+wwDLfkd2F84OfVYJmuysZ4Y7v3IXaDfucI0BU4rC18cLD4H1WSQEYylEU6aWgcq0kQ+CUVVBbj811+EpTdXwkSPmxOECUSUyIEz5UTCnoDGqztOILKH11Xeyhjm/L+DA0IgqZzz+idrkariqbHHgyo5IS5rbgDlCxmvNJXt5cXMxgsab4/8RB5mKfMhCuamqbW0QSoqBKJJQNWhCTo2zdhxTB3GXr3/JbxyX3/1xuxjphnmua0Qh4hEICdFiySiK5JkPgckxV47c1CsWFCNS37+T32pmSd62XCCMNGI8v6mFAK+VXE0fukAGxORgw+eqYdSzJMgjeshGUBVoASVOSGM47l+b1EL2vK6D7mEnH+5pm08SB4/bcn3a2nzXFhsLsDT6yP097eAxgbA4QYSZlr7iD2GLVW7weIBp7ik4ync+5EfIdhyaJE5yn3gd1kYQSBtApuOIIBeL/SaTvKd4RQzPQgwUORxQDN0zDx7Ac787g2cIEzxZ8+HN4UR8K5PYPYdLaA8B0qJ6RnMpR8BSnDki3vgyNgQckaRtKX63iyM5aOyqxh21QpqdzjS4evBnpL+gjTsu88QsKR5LsLOGJqLW6BzjdvhQDttr6nprEBZqNCcn9dpmhbeehvIzwdmzwKCZh4E2jD3DUNApxo4f73/Jbx6/8uHZE6kcZK7ATkjEkGg6AWnTWIplUlzQCGNZE7ojJgEgbIrum0y80GYf+3JOOELl0zaVLkGYdKg5R1PJQTEtA7dNvGZxqbSHMc7liKlBH61ANYE4A1YAJaMRUWPM4j2vB52up/TXgdf7MiiPCiSYVP1rgGhv56EC/MO1rNon40zdhzzmfHGiz1vPzwCRB6X755nRsnQzul3ARYZ2qr3IIWiwDlnA4F+G74qatg4g8Iep27kWDKaxI8/8iOE2kJ9EydNARECsipkN32WGdFjhySJjBTQP6rmqBFBCCfZ336nlb1HkQ3L/vl8zL/x9ElbTpwgTBq0vGOOwNRFwK15MD+2pD9jKBWMoS9jOqKkFBipNHRNHTJK53BmlZLT2F/Qih5fBHLawIyDeSjWqrGnuAUd/qFLqR/Offg1xz4C5PQ9t7W2fyI2C1UtQqxtG9zv7wHOOgNIaWYumlAQKChCSglg47zWKen7RUTgubuexcpH/94XFkwfNUp+5JBFiL3RCpQ50WYRke8ysyjmCoU+dkdSjCiQ/0Fa1eCwWnDaN65C3QWLJ+2hc4IwadDyjjkCUxeB/EwR5iQaRx5gRjVVuYOKyYxrVnRtLAq0HICSiaCrRoC3TYWnS0NwRR2a5gZ5joRxATr9G88/UA9P0j1woprKNFDC6lUQdQGgAnluD7BtEzB3PltjLXUqDhS1s1P2VJJQWxD3XPIjpGOm6U4SKHTRwsIYBxMBym1AmoGhJKmojGBQpAMRBqtFxrl33zJpORBoDJwgTKWVxMfCEThKCNg1JxbHlh9acyT3/rS590RZ3PlhC6Umbxnof0B9qRZg/dVeZJzc7HPY2E7DCykSjMwLhxTMi0WARAIhsRv+ph6gvAqoqQXiMcBlkgkyMWyt2oOUxXRgPPpCgZnmPxIiKmomg19/7pfY/vet5nAMA36XlfkWZIVaWyTSHkhw2U1HxZEknsrAYZVgc9lx+aP/AleBt6/5RJMjThCO/irid+QIfOgI0Bfw4tgJLMY8KoXh0XyHjmm8BEHTzGJm9KUt0ynIAPbsGlIDse18F0KV3GH0Q18IU2wAlJFz2e7GoYlrJgNj7XsQiLDSJkoaBNpo6e9kHPuvaESntxMZHH2C4BD8KNLqYY3LEBIGDF2D7hLx7obXcc/t34TBOLbBnAtpc89qDsi6QMWYJJFeG/phZMtB02/6SCbSKlx2GdXL5+GGu++EK+ODkDZgCDpSrhSC0kGkDDMt9ZEKJwhHiiC/niNwjCIwO9GIgkwRMoICHTpsxhCJo0IxID10tjrKZhexx2Hb0wrngTAExUxgM5r0zLBg51kuDFVVfbRr+fvTBwFZsMFlFMCq2SHoAlRJQcaIYd7uqqEJAvkcrPqH6XswhOh2G5IXnIe2/DZ0CXtGBUqACI9QBHemAJaU1cytIGtIu5JQjBTsigOCAuiyjoQ9irgYhIGBNXaojzKhAZ6AF0Z7AmJagG9GDbSOKHRFx8rd7+JA8x786hf3wibprApjlhwQIWCVGqWhc4uwT5JuQNd1aBkD/vwSXPWJr2DzP1ZibmUjVIeOZaefB4GiHryF0A4GIbgtUIpFRL0hHJQ2Q8ORlVsfE0FoDq0Z/VM/6uPgDTgCHIGphIBkyCiKe2BXNCTlNKyaA5KhQxcEaKIISdMhKBkIwYFZ32gOoRILEtYk3G+sgrfTtI2ORXSHHS3XnQTNyk0LY8FrurZx6A7Yw3agKwmr0w0jloaQ1KC5dbjUJIv1HyCklXI4gU3rTZ+WoaSkFLDYkJpRi5A/YW6OBiBnRIiGBUJKgW6VockKDEmAU3HDGgD0QALW2fUwVEDsTkF1A4bDAlHRIXs9QDwDLU+EogQQlXvLyhMR1nVYNCs8ATvUAz2wG36I5cUQKj1AMA0h38FCGl/78zO476ffgMNhRUqJm2WcBQFOq8TqLWTFoKgFSrNsAJQbymGxIZFKQc8YuOjcW9Gw7FTMu+AcaN0xCJ1hpHoCsLnzIZS4IRYRhgoErw0GpaLesxdRbxgpa2/IsplYwcwXkf1/70vs/jnvm9HMAnNalq1OlNSPXAhK+OhNHxvjx3+6Lmc+L47A9ESAQqiuOvNUXHHOmXjp3dVob+/Apt3N6ApHIBgGfC4nTqqtw41nnAGrpd8k8P6WzWiIhODSx161NJbJ4Dsbt6D9WMhqMz0f94c+K4ss42PXXIcFEQGerhSsJeWQltZAEGQgrgA+K4RwO5AZJjV3eyuwe+fQ8ygoBGbNBbp6YOyIAKmMmXUxLx84awkgSkBCB5QojFgSwoYdMJxeoGE2hNnFEGiX0wwYXiuQzMA42APBY4ZYIqMDW/cATgFw9Fb3pZ08nYHQFoQejsE4dxnEikIIig6DNGoFLhjRNBKdAUS7O5Aoc6Kt+wB+/uM7oKtxRg5oL9Y1A3pGhyzbce2n/w09B1tR769FXVJDW7wLnbv3QFjQgDOuvoURAP39AzCEDDLBGOQFVZBL8mCkMjD2hSFW+mAEkkDTbggH98LwugBybnQ7AJWYRy8D6U25NOqCyHND+NRHRmwmnH3WOZwgjIokb8ARODYRIJLwscsuxi2XXoKnX34Vf3nlNdS6HFhSUIAqlwseqwUVpaXwzZ5r2n1FEUZnO4SdTWOesKLreGDzVjy//1CHxTF3whse8wjU1NTguxffgMq/bYQhSRBvvAICnX5bIgCF91EFw64QBFd46OyIREhXvwuQv8tgIZ39spMAqxXY2QasOwg9lQau+giEqgKgMwZ47WyPzKxpgrZ9B6TqUkjnLofotMHYFyJvQQg2C/SeOGJr1sNZXQGh2g+RtvLNuyBUFrF8IaZQRxorQ23EU8CJjdASaQiwQPA5IZQQQVCgvL8TVqcLwtxyhLY34+WnH0BGSCCajCAYCyIQCmPp4nOx9JSLMOvc0yGrApDIQChyQo+nob6xFvK5yyBIEox4BkIsBYMICY2g2AMjoUC2OU1yZZGh7+sE3lwDUdQA8tuwOoFLTwc0CXBKwDvrIQQC7HM8quS5gU9fygnCqEDxBhyBaYwAnWROW7oEX7/9Ftg7uyBt3ARQmONg8fqBGTWAmgG2bRkTIpqu41c7duLJXc1jas8bTV8E6mpr8e+X3YSaVzdCuP1KwO+BHlNYUTVSyYPMDOt2QBTDEOoKhyYJ27cCPcOUeq6tB8orTe3BS5tg+L3AKUugR5IQvXlAMd1DRebxFyDYrJAvWsHakIlDFCwQypxABlBeXQN0dkP2uyHYrSzds+Cym7lCcr0JSYtA9wrGYISj7D6GzwclFIECFaJFhBSMwrGoEUJNIfDBdgjRGEB9KirzL0h3BKC6HXBf8xEI+S4Ye4NAoQuCJELb2wVl9TpYXTZoKRVCVQVEjwuGRwKiKcTeXgdZlOBctgBqSwfk+VUQSKsRjACSATS3wKivgu7zQvD7IcgC8PoqCC7r2AgCZbH8zOWcIEzfjySfGUdg7AhUlpTgwW99HZ5du4HdIzh60eljGGexwXd7pGknHtu5e+yD4C2nLQKyLONfP/sFLOrMoHTVdoRIWzC3Ed7TToTmBOS6IuhbWyC99z6EE2qAsv4Qvj5QMhlg3Rp2Oj5EqmuAqhnmy+sOAvu6YEQTMKh2A53A02mI+V7A5WAOgJQUTFc0GDYHhOoqaF0dkBfVQthx0CQETluvUwBlNrIxQnPIyZv5IxhAMs0qTRrpDNkNTNNENAoEQuZnxWaFQCmjY0kYhgijcQ6EUxuZvwLy7aYWQjUgpg2gxAUkVKirt0Ps7GKOiMxUkEzDUFVAls3xUc4EiuJQMuY47aYWBqQhyH4+FRVGPMHui+J8wOs1I0GMjHntcOETmgZD0yB861ZOEKbtJ5JPjCMwDgTIeeq/zzgVC8g5awwRCSN1TQ5apDn43a5maEfY1zimwJtOcQTcbhduuuo6XOKvAV5dA9uyxRBlKxBNQy7Ph0DlnLdvgeB1ACUeYGYhMLgMciIB7NgKxOPmBufzA6Q9IEfG7IbXFgGaOplfAYszZN5/ghkamSW4tJnTpptWes0Wornx0g/53PRmOWSQEkGYUT78hso8DM1cB+w/KQVo7xpIZFQN6AxAn1ML4dwVQJrMAJQVEki9uwmZHbtgW7gAihaB8+SlSD37JhwF+RCMlKnJIK0eber5PpPkkOove18aI403HAU6c7KT0vvhGHTZAuHK8wCFyIoFWLUJQqArx2QyaOFkzTh3fIwThCn+meLD4wgcFQSuravBZxrmjJqsZbTBUCDaQ1u24dm9+zk5GA2s4/B9i8WCT3/0ViwuqIajLQRvSxBOjwdCqRfCwU4IqSTgsJubsU0Gyr3mT06CIXZCziimyz/5HQyWUBLY2DYyutmwAdIAsGQFpvc+IxCDT9a0GbtdJlGg97LtiAzQpk2bP23gZH6j/9PPYGJMY46b5aqpngJKyyidEoQCL5Q3VkEnbUdZFQyXA47zT4AgWSESUbIaMLojEN5eYxKXsmLA5xk4t+xciJREzWJWTOh1IkGCCJ00D4WFEHx2YOtuCKQhGc4Xga7zubiJ4Tj8fPIpcwQOQcAiivjduWcij74Aj0ASqor7N2/DX1tah6xcdwRd80unEQJkbmicPQezqmpQZHXBFYzB1R1BQ2EZCpweVqRoQCpiq8Rs8yhyAx7a2EapLkqaiPdHcYplPgQKDFLfV5UCHjegihDUGBCOm6d/IgPUTtVg0OYuysBpi4FgEoKow9BVCPtax2bTp+dHJCFLJjKamRpaEiFEE9ADERhLFkI6cQGbq7E7yJwkyW/C2NAEoWk7UNCrPSD/Clk2x0bEhLQg5JRJP4OFjZ8IFZk/dNP8QT8jOSpSOyIQ/3LNiKuORzFMow8lnwpHYDgEbpszCzfPqj+iIMTWRAL/tX4TNgYOrXnPkecIjAUBr8WOOk8+Znrz4bc6YJdkOGUrvBYbfFY7/PTj98JR4oOY7wLI5m6RDnVoTKnA6v0j3zKVhtEZgLFgPoQTqDaJANhlMyTwL69DEHRTBU8aglDE9GW4+lLTNyKUZGYQY08bhHdWAT53v9ahTzNBpo1e1f9QWonsCZ82+J4IDFL933YF85cgHwQyP7DIjkAc2LATwv5mwN9bp4JMAKSFoH6J4NjJX0I3tSyjpGse9TkQOUimzLl/++OcIIwKGG/AEZjGCNglCc9ecA5sw2R1G2rqfbHPlAIWwJqubvzXhk0I0kmGC0dgEhCgOgU2UUKh3YWF+aU4q7QOjfmlcPicQGGvZsFhMQkDZQBduRugaD7KgTDUxplIwQhGgQtPgW61QbS4gAIbjJYQhLfeM7396ZROGyaFFrqcMBY3AJrINmrBY4fx+mqIoRCLdOjTNpD/Aan1Z1YBFH1gdQBpykra6+swOBKCFTVLsLwNRp4XGuVpmD8foLTMNfkQFA34098gEDkgEwOZIsi0Ul4MnLEU2NMJgUwy8SAQiQEdPWPXaAz1nEhb0hWEJgmQ7/08JwiTsJZ5lxyBYwaBeq8b/3v6qYdUlxs8AXI2jCoZrO3uxustbdgTjSGiKIxYhBVlrAkVjxlc+ECnPgKVTh++vfgc1HvzIZJDIp18Kf7/pAYgbgBdcQgpMhekAKulN5tgr3mCNn4yMUTiAJEFIhLkw0jRCpQQidTwWaG21CaaYCp9g073bgcEIgbkQEgn+azJojsELF0GLKlnr1MKZMpXgL+8AYESMQxW7edGQsSTMBI0B5VFLFBuA3hcEEhDYZWBYBR6IAwsXgxhSQOEAgeM1iiEGX6WTREvvgUhEQXcOQ6b43mMpJmIJ6G1dCLusML7869xgjAe/HhbjsB0Q+Ciygp8ffGCYadFiY7+vHc//tC8F6G0AlXXORmYbovgGJ6PLIq469xrsYxqFOkisGghMKcUQp4H6E7AcJPKXoGxaiOEtg4ItPmT+jx7kmeBB73mAOIOQ5kDsmYDinwwdJMgkFqfIiyy7VnEQJxt7MbNl0KgTbolAsHvgNEWBlZ/AEGknM6k1simPu4lK9n+6TeZNGijZhEOupmcjEIObVZTk0EaklsuZ86ZRkKFoBsQ3FboLUEI73xgEiIPRTkM4aeRjeYY6nkzEpSE0ROF4S8EFjZCvGEpJwjH8GeDD50jcMQIfHz2TNDPYMnoOp7fdwBP7W5GZ6o3r/sR3413wBGYWAQkScJdX/8WZr29A972EHDNxRBnFMPojsLY3QUdGoS6YhgZBWJbFKJBVZjSACUUIqe+sdjs0wqMQBSYNRs4aTagCRAkAbqSgvKPtdjd04GwkkKRy4NKwQ4LqSIUHcLs2UCRFcamPZC6eyBUlsHoCEAoyANi4f5ojT6yYjpEIhKHYbUDhXnARScBrRGWTRHJEIy9ncCOPSzqATNmwFDSEMv8EKmQwr6DAKVYtttNLQiRmNyQTSId5BxJ9yCS5LBCYGSJ6rDrQFcIRkcQ+tLZEBfPhkBhpiMId1Kc2LXMe+MITDkEZno9+PlpJ4NOYiSUw4B8Cv5v+07sjExM6dgpN2k+oGmDABGEH93xbTj3hVDv8sK6bB4QTsLY0w01kYDszwdq/BDtFhhpFYLPBoNyEDz/JgTKqUCmhyGEPge6YUDVNVa4LJPOwHHVBYDXDSGQYKf0VGsAzT378W+P/QzJdApOhwNnn3wqTp01H6WKiOLOKKTte2GpqgYWzYS4cCaM9igEisoQMkBbD7B5R7/ZgbQH4SiMnjD0hfMgnrwE8FiAfWEIFT7TVLFmM4Rdu8x8BrThkz6PTBFECJwO0zeBCEI2LJRpBtIwQgmWc8GYPwOC08mKZcGqmb4WPWGAkjAF4yyk0lg6G4bHAWlFPScI0+aTwifCEThMBM4pL8PXFy1AWtPw2M5dLIcBfTly4QgcCwhcfdnlOGPuUjgP9qC4IwJxbwcsNbOQMFLwXnoaJLfdLGRElSPz3TC6YzDWb4IRDyJhkZDUFMTVDIJKEt2pBDqSMbQnImhLRtGVSeK8Cy/E4uJaODUZQiQNt9cLscSDSCyKdW078YunfsNSJ2fFZrPhnz5+G+a6S5De1Y66qnp4ZpRBcMsw2uMQKrwwEhkz9TGljqZTP2kRyLQQooJSKeCmi2DQ6V8RIBCJKXACPXHgjTUQ4mGzCNNgIYJQWdpPOLJ+Ea0B6FQr4sTFEMr9ZuQDFdZ2WqB3RSFs3gGBHD1JlRCKwaD00VYZ4pd5quVjYf3zMXIEJh2B6+pqsK67B7siw5TUnfQR8BtwBA4PAdIiXHL+BTipcTE8moTilABtZwuc8+rhmlmNTDgOh2ADihwQRBGRXS3oPLAPTeku/Pal5xDNpJHUMsOSYsrL0Di3AYtmNcBHxZFUHeF0HNsONmP95k3QBhWQomRQX/r0Z1ChOWFNqJh5xgmg3A+IUErmDASXDUZXHNi9D8K+Pf0+A9m8BtE4S7+sx5MQSsvMVNGFToiUQXHPQbPS5FCRGXQ9veftjXigfBHxNIy2AIzaMgiLZsJIKhAUkRV4AlVr334AQlcPBCIgpJVgYY4KDIsM4fpRyj3zao6Ht2D5VRwBjgBHgCNwdBEgFX/D3AYsmbcAp8xdBKMrikRHEMmuMKqqaxEIdsE3txqpdArdYgo/f/ox7D9wYFIGef455+Cy5WdC74zA7/Ih2R5ERXkVJL8DcnUehJ4YxCeeh0jOlGQeyPVDoBwHpPKn5EZUbpqcKIlgUD0H+j0Wv4nsrIg0EOGIJGAk09AEEeLSxdB7OiA21kDf1gzR64ZEmofcMbhswPmLuYlhUlYH75QjwBHgCHAEPhQEKAtjTXU1brzqWpTYfcy0oLMcHQLgtmJPpANPPvtH9FBho0kS0hjcdN11WF7XAK07Bj0Qh6joUNMKBKcd1nIfgqEuJDbuxCxPPoodbthEmaU6J59BFoPA6i3Qvm1GJPQb/cz/seAHluwx+7cBijpKqRkk9QxiGTKdKIiQM6VgoKJmBhx+P3RJQlLQ0ZqOYeWmD3BSfhUubFgKiySze7HbumwQOUGYpNXBu+UIcAQ4AhyBDxUBiyzD7/fD6/XCJluQTKUQioQRiURApcgnW0RRRFVlJZbMX4iq4jK4LDYoioL2YA827dqOHbt3QUmnWdlmSndOBMEq0f8lyHTSFwSIOflNe2kAKNBY0w32m8KOdUOHSj+6+Zv8h9gPen/3EggyfRBxoX41TUdGzTDzCJlQvHYnPHYHLCKRBKCwpBh33f8TrkGY7EXC++cIcAQ4AhyB4xcBdirv/SEUyKExe+qfqqhUVFTg8d88xgnCVH1AfFwcAY4AR4AjwBH4MBAYE0H44q23G5upSAQXjgBHgCPAEeAIcASOCwTGRBD2P/t34/YH7oKqUdwkF44AR4AjwBHgCHAEpjsCYyIIwZdXG5964C4EYmZGNVmSUFNcjnAihq4wL+s63RcJnx9HgCPAEeAIHH8IjIkgpF7fYPzHo/+Dd/btQHVhCb59/SdRU1KOHS378LVH7kdSSR9/yPEZcwQ4AhwBjgBHYBojMCaCYLy11YgGAnh1xyacs3AZ/C4Pg4RCI5o72/CjPz6K5o7WaQwTnxpHgCPAEeAIcASOLwTGRhBWbhsxIfsf330DD774h+MLOT5bjgBHgCPAEeAITGMEJoQgvPLBu7j72d9MY5j41MFvOi4AACAASURBVDgCHAGOAEeAI3B8ITAhBKFz9x5859lH0RTuPr7Q47PlCHAEOAIcAY7ANEVgQggCmg9ix/Zt+Mw7f5qmMPFpcQQ4AhwBjgBH4PhC4PAJAiVqztaK39uK1p27cPNbTx1f6PHZcgQ4AhwBjgBHYJoiMDaC8NZWg1VusMtAntusF01/hxNATxRIpLDpzbfwtdUv4o5rbkVPNIx8jw+RRBz3Pf80jJz6U9MURz4tjgBHgCPAEeAITCsExkYQ9rQbsMiAKACi2A+AkgHaw0A6g3g8jkAqjoqCYlYliiSjqvjpc0/i5XXvTSvQ+GQ4AhwBjgBHgCMw3REYG0FoCw4d5kgmhqQCtA6fTbGpZR8+94t7xlW1yut0gUp09kTC0x1/Pj+OAEeAI8AR4AhMSQSOjCBQLe22IJDMDD05TcOuTZvxL3/6NVLaMG1yrqQUzqfOW4xPXXQlJEnCtx/5OTpCAVYDIqUoUxJAPiiOAEeAI8AR4AhMRwTGThA0HYgmTTODyw6QFSGSBLqjQ+NC2oXWThh7W/HLpjV4qnnjiL4IkijhxrMuwG0XXgHRYmF96pkMS+PcHujGnY/+D9oCPIxyOi5CPieOAEeAI8ARmHoIjI0gbNhrMFOC0lvNUer1Q9CHSbBI5IB+mvYBgRCCSgq3vvU04urwWoBLTjwNX776Y5CJHBQVmU6Q3d2AqjLzxN1PPYK/rn136iHIR8QR4AhwBDgCHIFpiMDYCMIoqZYZLllSoOpAMg2kFBjJFLBzL/YVO/G1136PQGhoXwW71YYHv/gN1JZWmE6QhYX9BEHTWAzEyk0f4OfPPQ1V0+CwWlllyWSaF4mahmuST4kjwBHgCHAEpgACE0cQyB8hoQDhGIxUBphRCn1fJ5DSsKtAQJdNxaN/ehq79+w5ZNpLZ87Fj27/F+aYyESSTIKg9mosyNyg64ilkkybQL4KrT1d+NYjD6JrGNIxBbDlQ+AIcAQ4AhwBjsAxi8CREQTSGlhlwGmFQT4KXRHobSEYGRXSOUuACIVBxhB2qZDynQi0tOI3zz+Dv218fwBgX7nmZly64oxxgUhE4WfPPIHn3ntzXNfxxhwBjgBHgCPAEeAIjI7A4RMEIgc+J1DgoeM9jM4ItLYgRDgheBwQanxAUgPSGlDoMH/vaUF7uBv/9PC9TBtA4nY48Msv34mS/ILRR5ttIYowrFb87tXn8fBzlIhpeCHnR6aM0LSx989bcgQ4AhwBjgBH4DhH4MgIgt8FeByAkoHeEoTSFoAoOGAtyAMqPTC64kCJG4IoQA+noW/YDqnYg19/8CZ+/4+/MVPBly+7EecsOxFC1qww0gMhEwRt9F4vDIcD4bZ2fPkH38D+SOCQqyRRNEMmL74K8VQSX3zwbkYSSvx+2CwW7O/qOs4fPZ8+R4AjwBHgCHAEhkfg8AlCbp/RBLSkgnQ4BbmhCtaKQraRG5u7ALcFgibASGagK0kIQhIo8CIUi8Iuy3DYHIxAgCIjLL2+B0ON1+UEPF5AU8FUBhYLjK4Anv/Vw/jpppWHXHHGgqW48+Z/giiKUDIZXPndryClpLGisRHfvv56fPPRR7G+uZmvDY4AR4AjMOUQoMNTWV4e6kpLsaqpCanM6Hlkptwk+ICOeQQmhiDEUtA0DZohwLKwDgJFOaY0CLE0kGcHUjq0liD0ZAJSsQOCywa9uQuiy8VyKwjUhkgCEQRZGhpUhwPw+UzHReb7YGV5Ft596ml8c+0rA64RBAE//MTnsaJxIXudHBzX7NjCUj9Tdsb59WUo83jxxV/8As2trcf8Q5zuE6CUGyOZkab7/Pn8ji8EfE4n7vvsZ1FZUAD6Lntz0yZ874knji8Q+GynBAITQxDIxCCKUINxyEX50BJp6EkNNo8Hxsw8CGkdSnMbhHQK8sxS6F0RGBEDUn0hi1gwmlsgOmWzCFRurYfBEGVNDNTGZgOSKYR7urG1/SB+/txTaOkxzQYehwu//NdvoTjvUL+GWDKBe555FN/4p1uZyeHOBx7ChqZdU+Jh8EEMjQBpgcg0lFQUhGIxDhNHYNoiQITgoS98AbPKy/vmSFlkb//Zz9AWONSUOm2B4BObEghMDEGgCIZIHEYgBr07gkwsCaOqArLHi4wlA1t9GYyuEESHBUKpH9qudghlRRDSBjMvGLtbIJa7AauZQXFMQj4LeXmmT0IwiJWb1uG7jz3EsjXOqqjGfZ/7OmykZRgkrT2deOL1l3H1+Wejrr6caRXu+dXj+NuqNeOqFzGmMfJGE4oAObRWFRZCUVXsbmub0L55ZxyBqYCAx+HA03fcwfykcuWF1avx42efnQpD7BtDlSRirmDApmvQdQ3dgoTtkhWRnPD0KTVgPphxIzAxBIFU/lTZMZyAEYrDiCahQoBOqmFyLyjLh1zqh1DmB+xWGPu7oLWGIegWiJVeoLULYnUh8yuAx4yKQCQy8mRIg0AEgdp2dWHVtk3491/dzzb5y1aciS9d/dG+qpKDO6I2lCpa8OqAhawWGu56+Nf4++q14waQX3B0EKAcGSfPnYsbzjiD2WVfW78ev33jDbQHhy8UdnRGxu9yPCAgCwJWlJYy66YmAIbXgXhXCLooQNN06LoBw2GBEktBoQ1TEpFRMlB1HQlVhUYXDhJax7MqKuB3uUBO1fS9RMTg5rPPZr5TuULag1vuvRf6EP0cbfwdgoDLjDQWySJ8jbPhnV2PeDQILZmC0tKFdc2teNMQsZ++/Lkc0whMDEEgCGjhZlQglgQSaeaUyPwF6KSf7wFKfBAoZ0JvpkWjKwwjGGd1HYSyfOaXAHJE9PvNJEkUZTAaE3U6TYKQSqF58xbc9czjOJCM4oe3fR7LZjeO/mBo/doVQDKgZBT85JHf4t1t2xBNmiGYIwmpAqmglKHr7Df9neYFpUaDbdzv261WLKmrwycvuIARA8I5K6R6fXrlSvxl1Sr0RIepCTLuO47vAp8gQNA1ZhpLQkB6CnyBj28GvPVYEKBV99VFS3BmfQ0Eu8UM8aa1SJVs7Vb2nYcV9cCq3UBGAzx2oK4E2LAPb7a24N4N6/s0lLT5f/zcc3HjmWfCQt+PYxBa61d8//vITIFw7S96HChPxeA/60S27jtf/DuKa2eip+MACs5aAUdNBcKvv4+/7j6AV3QR/enuxjBR3mRKITBxBCFLEqg+Ay1i+pDQlyVFJ5DpgJwQc77c+1Iz02v0I5NfgbW/DkMiAdDPWL130woCu/ZiGxJY0bAAlP9gTKKFAaN/CRM5+NUrr+CltWuZKtvv8aKooAA79w6MeLjm4ktx1oqT0RUIoKK0FD2BIP79nrvGdMtjsZFEhEgQ+pwF6XDATk29G+JEOxFaZRmLamvx9euvR4HbPSJk9Mwe/Mtf8NqG9WxMky20WVTAwKdtAiy6Bn/VDPQcaAYkGVutbjwfiSIGkTtWTvaD+BD6/+Epp2JRbSVA66zUZxIE+v6KpgA65MwsAba2mHVrGiuB/V1ALI3vvb8aazo72YhpXf/k058eQHZHmwppDoggxFOp0ZpO6vukSfm+rELTVZR/9HK0Pv5nFM2oR/uubSium4POPU3Ir6yB/ZR50CMJ7H9zNX6qy0gehc/lpE78OO18YgnCkYJIEQzlpabWIUs4QiGmIThiYWaFIVReahgYxHFpiwkGevDeX1/BosuvAfIK8bk7v4For4Ocx+XGYz+5Hz6vt29Ye/bvwxfv/Hck0xMw1iOe7MR3kG+z4cEzzoSFTDsOC3BmA/QX1zHyR34fRAT1hgpEVm5FRElDmlOO4N4ORANRvLJ/H7aNMSU2aQhOmTsXX7z8chT5/axo6FiEiMqTK9/Cwy+9PJbmR9TmTFnA2ckwLHk+zLrjswi8+wEEzYCtsgSehllo+o/70BqM4f8EO5Jco3BEWE+1i4kk33vqaZhVWmQegk6aCbyzwxwmbYILqoD2MBBKMA2ocNlSGC+sR088jk++8TosFgt+/eUvo4TMo+MQWt93PPooVjc1jeOqiW/aYJVxQyIIb10NHA11SLy3GdHuDnYj+uwyem4YcPrzIZT4UXTuKdj10JN40OJGkJOEiX8gk9zj1CIINFmfB3C7TH8EErIxj6UoE30R08aVylFoOawAqQOJeBA5IGfKUAzQek+ZZJ4IdwKegQ5BOm1mLQcgFBRC2LcXKYsFD23airL6eagrq0TaKuKUU08ZYCekD3B3MIBv/OcP0Xxg3yQ/tg+n+3n5+bj73LNNlWokAayYBby3E3DYgFgKmFMG7O4wvyjpeZxQB7y3C+2JBD7199fHNOi7Pv5xnDB7NrPJjlfSuob/feNvePa1N8Z76Zjbl4oCPqcnAUlA3Rc+jj0/+zVk2QJd09iPYJHgXzQPZZedhw/uegDPaDK2kzMOl2mDgM9qxU/+P3vXAR1HdbW/me1dq96bZdlyt8E2phkICST0GkILLYQSQiAkkEIKJSEEAqGFXgL8tNiYOECAmGJswIC7LNmyutXb9l7mP3dm19pdrbSjZktm7jk6knbfvHnvTnnfu+W7J30bORwrvFdOXgD8r1rIxSVL6ZIy4PO9wjNA7x+yKtR2YE19PT5zOfHItdeOSRcvffQRnn3//SHHksuCUrkPhCgZBr8Ju2DKyYfuuMXoev0dARtFqu4qtTr43S4wrAwKtRrqsgKY5s5C/ap38KLCgDZ6B0sybTQw9QCCAEUBtZp/CSMokiCEwEG6UYiDoB+Kd4gCg+jloAd2wAm+dDUJxTjU1QG+TgGQFJcBFNdAZEw7twPzFgJ1tWROAEd72YxcMBULgKJcwR0SEQIH9BMIBvDQs0/j3U/ELYbT5i6JGejRuXm47egVguuIfooygF1tAiigl+Hxc4D3dwr/ZxmAbCNQ3Ya1zU14omZXyil/b+lS3HL22SnbJWtAAWH9SuCiW2+ftBfmMo0ap9EOqrgY3rAPnuY2yBRKhAJ+aE1meBw2KNUacFoVyq74PppfehPvWr1YH5BejGO6qFP0oCK9Hvcfcyy05MpUyMAsLQf3Rb3wTKRpAQrI3t4qjJ6sCr12+DsGYCsoQHFRIW8lFcUeGzP/LfX1+OWzz8YFKhKQfvKGG7Bq40a8t2ULQgcAKPxUzSLdYeVHps/IhrNfcJ2odAb4XA5o0zLgtvbvH3nWiUfB12+BvbUPj7t86Ipu0KbotZWGNaiBqQkQBpdegRshmWsg9iqSpcCoARSRapDDXWECBv2UHRExXNPDtH0T4OwBKNCMzOeVVYDRBLhcQEMdwIWB2Nx7uQJYtBSYWcUH6Ph8Pjzxyouo2VsHt8eDju6uSVucpsqNexYFDa5YCsbhAQrS+UBT7G4XQJleA2TogIYeKoABzCM/bD8Cdjeu+nAd+lO4i4hB7q5LL8WyyspRT7fHZgOTZcSVt98FJ8WvTIIsYTmcEXBBm5MNxqQDeuxgZCycfb3guDAyisr4eARzfjHcLhvyLjgFHav/i09tPrzLiYyLmYRxS11OnAays8w4+ogFmGk245isbMFyQJTzFEfVaRUCpytygep9QlC2VgnMyAa2tggVb+m5iArLQjmzAvLsrJQD9AUCOOvOO+NYFbNMJrxy6628teK6Rx9F3QEgfstgWVzGeZGn18M50Ad9Rhb/m8agS8uA12WHUqODxy6ACPq74Ipz0Pf2x2je14mnZFp4Jddbyus9FRpMHkAwGgC1CugfEEz7YkUmF0zWtNjbHIAiYsYb7nh6KHMimQ+pzkE3JQUT2VwC6KAHuXoTYInJqaf4B7IkmNOBlgagfxAJx3WfXwQcvgI2Dvjrww8h15QOk97AM0oOOO2obW1EY2c7/9CQ/94RDMI/BSKQU6lIzPcEr366cCFOLC0FQy87Csbqd/CLJYEmZsVMcFuaAJdP2FEdPYv307Zb7bj+00/41K+RpDQnB3+/+moYyJqTSuj6Myx/LWs62jFr7ixcefsdaO0S/KITLVkKBX5l1CDo8yAo56AMy/kdlEyu4Dk9gn4/TNn5sPV28pYEuo+LLj8XLU+9ii8VOqylDJ+JHpTU3wHXAMswuKpqDk6fPUtwbZJLLOpio3u+NFOIRaD7U6sC8s1giCCOXHADrrjxypbPBlOYJQANCpWK/OYb8X8LdwzDMdi0ezc+r6mFy+OF1+cHPSs/+s5J6LXZ8OfXXudTtn2Ucg4OPp9gffUHgryF0++n3+HIb8rcEj4fi2hZBqcggCUmE3w9wvsz1ppA/1Mcgts6AIVGi1AoiKIfnI7WF99EkyENz7tFWobHMjjpmAnTwOQABFpkCyLBhhYrYE3BaUDT4U1zJsAQE7FuswOeEXaCtFJlmUau4RCrKh4geAB7JI3R6wN2bwdsbWNTKDE7zl8GTpcJ8FUjBcsEPXS9VgtueuwvWGE24rLKCvxg3cdwxe4cxnbGKXGUXC6DVqPGXcuWo5wCNekdc3gZsHOf8Lc3ACwpBb5qFF5u9LI0aIGdrai32WD1+eAMBOAMBuAKBPBGQz28CeDpuPnz8dsLLhiSDz5EAeRGStfvtzKR7n9y919R2zh5dTa+xXI41i8wOtL5WD7NlfzAITDkDw4GYcjMgYNMr5TbnpeN/HNORvNjL2Gt0oDNIT6sU5JprIHjCwrw88VLhJgDshIcXwVsaeG5YCibgVleAe6jXUK1W8poKMvm739GqwPDhcFF43Q4jrcgyMxpqbVBwNrlQH9rK/7w3/dQptXipsMWwbtwIX723PMIsxyfcm0y6qCQC79lchnSTAbQM6vXaaBSKqDRqqHVqKDVqqFRq+ByeRAIBOFye3niOLcr8pt4DfxBHmh4fT54vX7+h9K5PV4//13A7sQl/d2Q+338syAAZeFdGPR7hecy8oywcgU0xjT4PW486QcapaDF1Nf8ILeYHIBAN0VWhuCn7+4DxPADZGcCWs2gOyHCkDhimmMUIJBpW6zQQ0bRx8TB0GMD194BZqBa7NHJ26m0wJylgFGgdqYHZeOX61Havw8FOi1erKvH83WHDp2zyaTD9769AoszszCnKE/YPakVYHKMggmVwB65feg3/R/x6HAU2f3pbsGyECOPeroxYHfB7fHC6fLwLyp6ER0+YyZ+fd55yUGCUSu8nOmFTFVFY+6B2x54GF/urBnfNU1x9LfUShzj7AfLsNBlZMHR28UDBfohKwKJMSsX9t4uZBSXI5CuQt6MOdizahUeU+jRg9EHYU7qhKTORWugUK/H48ceJ9x/WUYBAFD8Ta9DcB8sLhXicuhzehceVwXs7oAsKIeKLA5jEXLN7dgKBIR7K5otQLa46zd8gTobZWNNvvCPcuR5TmcY3MQGEPJ5UVC1EG27tsYNIBqbkzgqej9uUWixlhkFc+7kT006QxINTA5AiJ4ogh5Tap4eNLMJoHx34j0g0hsKINSrAK1auCEJbfbZhd+xQt9RnAKZ8eg3LUpihMxvu1rBtfcD9lowiAQuijk2WRuaq4IWRRqDDOGAD6zPi8+6e/C7r7dOCQa0sU4t2XFGpRLPHf8tfkfCX5PKXMGkSnr1BYEjKoAvGwSgQC/PRSXAx7UCR0bMJaQ/L/t8Pf8ilclYfufB/4bwm0y5PznrdD53nJNH3kzkdtKpeJZO2p2EEeZ37mCFjps7OviaDbRjoj76B2y8IWPAIliyrFYHH8xltTr53xargye8stqcvIvI7vTwFUBpZxU10ybVAQMcq9disa0XsnAYcoUSQf8g+Il9QdL4Mlcegf71m6AtLMXtnX1SCuRE3pAHqC+6Hwkc5JMLNcrz8q15wPs7hOcg3ywEKdZ2CN/Tc9BuAQMWmuIZvKVRtNA7kO5rCtTe8pXw7CTIJ51d+OPmbaK7nKiGBi6MawJOFBYU85ayoM+L7LJK9DTvhcZg2h9/QJY1jcEIv8fD1+ax9/WgxuXGqvTBWhMTNSapn4nXwOQChGTjjdAcC6anSAMCCLQDpIeBvo/6xWhxIRNylHiJdv6JElkkeBRB6XcZeiG2gB5WcnXQ94lBjnztCDfQ3A2u3QIuXw+28StggjkM/GENfrz+Q7Q4Dwy6n/jbI3mPapkMTx53AtL1WkCvFq4jBWERQQwFghIYIAIZikmg60r/9zlg3dOGWz/byG9BFCwDOctCzrDYnYIjgSK1S7KzcdScOTh23jwU5+dBkT28SfZvL7yM/3yyYf/gFQo5WJaBUqngAYiS/mdYyBUyPp2SzK9kmiWzLAEKMstSsCSlj9GxNEG1SsnHGETre9D/lFq2zOqB/9P10OoNcNsskCtVCAb8vIuBMhtCEaKvgNfNg5Dozu9dhQ6bMIrF4kBdXOk8I2rg9qXLsLwwX0iV5lN5ZwAUbxMlhltG/zcLlgRiU8wx8QBBVVUFmW54wi8iQOrv7UGhzwOWgqIJaPKAgLjq2aSEcR1uN6779HPYxZLJTeC1PaVnH0rcDmTl5/OAIBQMIeAl1y0nPAN+H1RaPXxuJ58SOdDeCttAP/bJVfhPTjGkCIQJvBiT2NWBBwgUtEM3fNS6ECUwSpWpEKsE2pGStYAWH+qLcvDph4Qihsm0Rw+wUiawm0WLQBEw8PoFHzm1cbjBdVoQVqvBaRiwdV+CDaWmWU55PdRaoKQKAY0Z2zpbYPd44HC7UNvahI27tsE9wUAk5XgmsAExqd26+DCsKC4UXoJ0LeYXCy9J0i+BvYUlwNZmAaDlp/Egwm914pqXVqNnpJgSEeOkBX5GYSEuPu1kHLVkUVK+hEdfeQOrPpjcVFNa2i9lQygPB3ggQC9Ftd4I54BQUTQqZFWIggYCCLr0TDS2NuMFfQYcFFwpybTRwHkzZuDSWVWD5F20+JO1YE+n8D6bmQu4vDwY5jcoJ8wFPtgJxZxKoCAfcrd/CPEXlXJet20bKljgnIJ86FJlYkW05Q+H8cfNW/F5d/z9diCUaebCOL+phs/wImCdlpmN9LwCuCwD0Jkz4LL287EGLks/fF4PgqEwnJZ+9Gj0eCe3BF7pvj8Ql2lCzjH5AIGvbhIWFnJVxEownqFTOiOlFEUBBfXfYxMQ/HBCixZJonuCon377AiGOAScPoSsDqjldsg83WC4UWJcnrtBB+QUA/nlgrshQWjH+fH2r/HnV59DiNIqp6GcWlqKa+bME64nbYdn5wlBn+2Rokkrq4CNdQJ4oOju+cXgatrw3FdbsLqxccJmTFd0xaIFuOzMU1FeWBAXp/Dcm//Gi2vfnbBzJevoKEc/jvA6YczIhFqr5/kPKP6AyJJyZszmKWfpZem2W3mrRTgYgtfjxoDVilfzy2GjbB1JppUGdAoF1CxZnYh2nEWa2QC5JwAFy0KtkOP8C8/CbEM6vti6HTqTHt1dPWhuaIEjKx25OVmoNGfhiMrKOIrll9etg6G7A6cWFw1bXC5RSfTYvVRXj+cOUlzTHJcNx3TFk8HRva/WaCGTy3k+EEd/L7xu1/6U736NHv/JLYV3DARo0+Umofsgui5RptZYM0Sm0nwnDyBEijdxfXZwjAyMVgUmKxJtPhprQaK2yCpAEfG0QkSJkIgdkYpDjVaI48DlR9jpRtgf4otHUUAyLeTKkBVymQsMseaRD5Da7nd/ROpHkD+ReBH0aUBuMWDOGXEELq8Hz/x3DdZsnDymv9GqYDTt56Wn455jjxWIqGinQ8CrqkCwFpCYdcJPU6+gqyMrgc1N2Nbdjd9+9tloTjWqtmecsBIXnnIyMomamQHWfPgJHnrp1VH1MZrGaaEgvt8sBEEazenQGYxIyyuEraudtyIQWKCXJLkc6CVBVoPW2p3whUJYXTwb/aPxQ49mYFLbg6oBKiz2h+uvxvzKCtz1xDPYtL0aBoUCZpUS2Ro1stQanH70UZhZNUd4bxBXW2cH5I17RzXujd09fNxBqnThUXU6isbzXTYcmQAQRjrcpjNgdU4p/ON5749ifAe6KdFvL8hIx++XLIK/pAzIzMKL69Zh7ZdfHuihTPj5Jg8ghMLgOgfAadPAVOYIqYhdfWCUKXgNRjtFPgZhtAfFtOerQQYAlxscRdcTUAiHwRD4yDKCmZkfEwfhE7IfyFrB0gIp3ofMhUL4/O138VbNZuywdIFogaebXDRzFnK0GigYFgoZi5KTDwe3qR7KMAeVTA7ZifOAD3eBkcvBFJl5XTqbe3DVR+sQHGO+tVgdKRUK3Hz+ufjOiuXY2tSEW/720KQh+BkeJ07sGLSGUKyCKT0DKo3A25BeQMWbmuF02OB22PlxcKwMa0pmo2cU94zYuUvtpo4GKIbl2u+fi9OPPxZ1n2zALIuFL3IWJ7TTLCkHsnMAtwvYKT7IcK/Njps+3wT3QUyZNjMczq/fKUrpvUYz1mQVYRRMOKL6nSqNKI7q6tkzcW55GV+sDUuWAkolPti6FX9+/fWpMswxj2PyAII/gFBjN5gj54Kx0Q6cSqP2AgU6MLT7HK540pinMo4Do24QCgqKPng0RuI5MGkEdkD6rp/qOIzxVvf5gS928jnydbY+3LTpbfjCh14hVCEmlImYUSmQi8JBxoPgxF9Xk1aLF3/xC7h9Pvzw/vtBzHOTIcc5BzCrOxl3Bs1bCIolkBmVsEyGfxfNQrfkVpiMyzHl+iTA+O0Vy3DrFZcCe+qAmt3Jx0gxOpnZQE/XYGD2CLPp9/pw5ScbDkpQYuKwTu7vRIl1hPgHhsXG/FJUq0euxDrlLt4oB3TtnFk8OKBnXHbYcp6ynzYEv37hBWw6yIW1RjmVpM0nDyAEQ+A6BhCSycEY0sAWp4Hb2wp27gyBH8FuF1eEaSJmOd4+YtM1KWqfQARZHUYrHh/QZ8HnO7bi7s/f4RcySSZWA7MLC/G3q6/GBffcA/sk0S3P9DpxQru4eAqvUoV38srQKx8akzKxM5d6m0oaoHTIa48+EudkposvWT/CBFqcTty4cdOUAAc0TAXH4WhbLyr7u4aMutOUjvXmHFgp5fsQlsOzMnD30sPgCYfhnFGJ/MIifravrV+Pus8yzQAAIABJREFUp95775Cg3J88gEC7Ro8P4Y4BhJ0+sGlaMCXZYIryhcJIxHUQW+Ngqt9IlA2Raxb4FsgHX9cxNOhR5ByCoRBauzvx/AdrsaE6nlxEZBdSs2E0QNaLosxMtPZOXnS3PhzCxS21cVaCZMPp1Kfh46x82MkdJck3SgN5Wg2eWXk0KCV4vLLbasNvv9qCgSm4ocgJ+lHsdiAzFEC7QoUetQ5d3xAwfOfhizHHbMZnYPG9E77Fh8Xt7ejAz596Cs4UNWfGe08cqOMnByAQACCTPP8TFn5TSiKRHmkoC8EAeDxCQaTpUp+AihJlGIX5dFmE2gPjlLbeblxx3x8QnIbxCOOc+rQ/vDjgxcltDWCSXDtOJsP29BxsNmbi0HMiTftLN+kToJiDOw5fjBU52eM+1xc9vfjz1h1wTJK7bNwD/IZ2oJLJ8PCRy/GVP4izTzkVKoWCJ1370UMPobl7curAHAxVTzxA0OuADDNAdQ5ic3QpLS4vR/Drx5rsCSgcIJrQcSmYgizJekCBjGRBGE9ELgWthcLY1VSPm55+4ICUaB3X3KWDk2rAAA4re/Yhy+uGnOPglMlA6VwfZ+SPl5dT0vg01sDC9HT8jaqdjuMdQRkK/2ltwz9qdiNwAEo4T2N1H5Sh6+RyLMnPw7UX/AC5ZjMfd/D4O+/gXxs2jCtm/qBMZoSTTjxAMBkAKjxCfPSd3TFsiSxQmCeQ58QKIWOqmHiAAtkO6gVwe4FeC0/WxNmd6O3rxVO1m/BhZyOk8j0H9cpIJ5c0MCEaIDPz75Yswsr83DH35wkG8WB1DT5o6xhzH9KBk68BKiZ3wsKF/Ilaenpw5YMPHnKU+uIAwic1HLkCOJYROO9TIWMq80y77ET3gVIpuBoyMwbLLZOv+JuCkMmq8sXOuNgFbzCICz95BVaqfCaJpAFJA9NaA1lqNZ497mjQDlOMECNindWGdpcb9oAfClaGl/Y2TMl4AzHz+aa0MWg0+Octt4Ayp8i1cOMTT6CmtfWQm74ogBB+ZT3HZWeAcQSANCrnSSBhjLqgB4dKQRPIsFqB6R7MkczyMRyAorZf1wIOoR48maV6PE5ctXEVXETGJImkAUkD01oDR+Zk466lS0acg83vx8t7G/Blbx/6vD6eQOtApQJPa+VOocGnGwx46ZZbQORYZD244sEHJ4135WBOWxRACD6/gWOXzBDyuwdsYEN+gUlvrKJRC5aEKRiVK3pKtNiT5YOqF3r84Cj1kWXBULYDFY0ikBBLB00WFacb1m21+F9TDQb8HnS67dgx0AWLfwLqP4geuNRQ0oCkgcnSwNllJfjJ3Kqk3Xd7PDww+LCjC26q1CjJtNUAAYPnb7oJ2WlpfFrjE+9OLrX7wVKUOIDwUQ3HUj5vMAyuvgusiQU0qrGPmawPBBBSuSrGfobJPZLAARV7srvBWV2A2QDOEwRsbjAmLRgVA6TrI9UkGYBIkr6u4Y+xeN348Wdvos8rWBEkkTQgaeDQ0QBZEP54+OI49kRXMIjVjc1Y09IKC70LJDkkNPCzM8/EKUuX4pZnnsH2CawzM5WUIw4gPLuOC4VkkFXkgOnqA0t8AERFPFbh66gzQkZDtJDSWPs60MfR2MlaYHGC63ciZHOBXbkQjFIFNNvAqVgwmpDAFhnwCyCBLA1f1QAuDx/Ecvf2D/FRpziinQM9Pel8kgYkDYxdA7T3uWp2JX5QUc5Hs9dYrLhvezWI6EiSQ0sDWSYTHrj6alz/2GOwUcr+ISiiAEL4zS84rt8umNCLMsFQEGIyGQt9MlkSphNIoIqQZDnosQKMBlxWBpgiIxhKg7R4gSyNoJlOC9DVDWSlCRka2+vgsdrR73PjrzvXY6dlKAPZIXh/SVOSNPCN04CcZXDbwgXo83rx1O46Kb7gEL4Djqyqwme1tYfsDEUBBG59zSCZfqxbIFrdkPzrHr+wsybLAvEFRCstinEjUIXG6VIGlAo1NXciZHUjFGShKC0Dk6sHJ+cAhgVjUIOjypKrPwDjsAPZ6fzNQxUiL13/OjrdDiml8ZB9nKSJSRqQNCBp4NDRgDiA8Gnt0Go7fDnnEB+Rz9ncgNkI3spAHEJGDRg1Cxh1ABEkpQIJ5G4YT9Djgboe5CqobQKqGxG2uxBcVAX5d5aDlbPgOhxAtwtMth6w+cANWMFs38zHJ5AOKGPhLzs/xvvt9QdqtNJ5JA1IGpA0IGlA0sCYNTA2gBD1w1td4AYcCDm9kJ12BODlgFYrQAkOOoCRs3w9huTWAdpx86XvIvEI44hpGPP0R3kgzTvHCFQ3gVuzHrj2PDAZaXzwJmx+QEvxBgy4Xju43S3w9rWjMWBHiVwHOcPgoZrP8F776Gq/j3KEUnNJA5IGJA1IGpA0MCEaGBtAID88WQ567OBkaiDdDGZODhiyM1h8QKaajyugID6G6JZ16viUP/LXk2UhKqksDBMy1XF2Ei0JPbsA3K5GeF/9EOyyhZDnZMDfNQB1YQlQYuA5Irj2PoT/7z/Ye8ws3LHmRbBOL5SsDPtcVskfOc7LIB0uaUDSgKQBSQMHRgNjAwiUw9trR7iLFjwW8ooZfKAeR6l/8ogf3u1HeEc9WBkHJi89xorACSmO0yXmgMAQgQOeHtkFWBwIG7Swt/SAlakQamhC0GCAednh6LJ0I3N5JZh9vQh+vgXrCuR4+OUXDomynwfmdpTOImlA0oCkAUkDU0UDYwMI/gC4zgGEuqz8Yqk4fjEYpQxciw0YcIMhM7zdx9cbgHsATGlOvMWAshbIihBLJET+fQpyDJHrgQqOy8XFL0yWJnmugwBAcyDgE+QQtnsRcvkgP205QKySHS544AVnVPDpi/KyLN5y0rh+Czw6Bk+uegX1DQ2TNUKpX0kDkgYkDUgakDQwaRoYG0Dw+cF1WhC2e8B8ewlYvvZCGLB6Aa0c4BiEBzxAnw2Mc4BPjYy3GJAVQSGkNxIw8PqF1EHKhPAFeVZCxmzgMwKgj7gnJssNEaVKTuyfrCTd/UI9CQtZDlzgisuBrHQw5SbAHwKIHCmdSlgrAIOKz3v2OF3YvaMa/1z1OnZU75y0Cyd1LGlA0oCkAUkDkgYmUwNjAwi8i8GGcL8TWFAJxqyHf3sjVOlZ4Gak8WVOw10WhDfXQlaaDSY7TZhDKCwAAlqM+awFDnB7+VgFCnbEnFIwaSZwDX1gtGpw1m6wOWZANUkuiWiwpc3BZ2HEVZokYNDVC3gDQI8dYZpvRhZk5E4pNYGzuIFMHRiZDGGyNMiDsIcCeOn9f+ODDz+Ew+GYzOsm9S1pQNKApAFJA5IGJlUD4gFCbFEi+tvhAddn56mGA04Pgm4/NEccjoClF4rlM8EQeKjfB6YkE9BFyINipxI14ffYEHYFwal1YMoywWbogV4PoKNduULYpff0AipF6nTJVKqic+p0gEIhFIrqHRBACqVrqpRAumnQ0kFtCSDYPUC3BeEBB8KHVUG2aKYQiLi1AzCqwcjl4Bw+wGZFb7APX6eFsWLFEbBarLDZbPjdH/8AZ4RlSymT46iKKszJLUR9Txc+qtsJf0jiZE912aTvJQ1IGpA0IGngwGtAHEB4fxvHB+mRL55hwBAREsUQOD3gyPRudyPk8oKTyRF2eSA3aiFL14PJSQMyaGcek7EQnSNZEihNstOCkDsIWVEJmHwDoFeA84XApKkAXxjhfT1grFYw+RnJ+xlJZ0TgROfJSAf8fiAQALIoToAFunqA9s7BowkQkBVBpxU+o/87e/k5otuKsFIJ5tQjwYAFR+4FixeMWc27VsL7BsB0dIHjPGDOOw4MkUQFQ+DCYbz9+HP4+3trUJVbiJ8c9z1UZOeDZRgEQkHc894qfFRXfeCvunRGSQOSBiQNSBqQNJBCA6IAQvifH3LQavidNy3oTHoawPjBGDR8IB/n8gEun7BwMhwPIJhMo1CwaLi66BSQ2GtFuN0Cv8MDxbJ5kGUawdGiXtMHZk42OHcA4X29YAIOsGU5ghVBrBAw6BkA0kxAaZEQS7CvHSgpEgBCexfQmUB3TEDGbBLcH1RUZcAmBCpSOqc3AG5JFcIhDpzVDbkpHUyFmQ+qDNU2gd1RB6Y4CyjLFcAF8T/IZPBabKjr6cCs7HyoFMr9o99n6cMvVj0Pi8eJYCgssSsOc11V4TCOsFmx2O7ATI8Lmf4AFFwYdrkcbSo1thsM+CwtDe0qtdg7Y0i7+U4HihLKjvcplfjSaBLV5wkD/VDT/ZZEPk0zwzHcMxDTfqndhiwCsUmkRqdHs2bQCqcPhXCshaxfYxcfy2JdesbYO4gcyXIcaOxL7HbMdruQ4/eDrhn1361UYrdWhy1GE7YaDPAPk7lE86Y+YoWu74Y0c8rx0fm/PdAPWYyFM8Aw+CAjkz/2xIF+KIe5Nik7B/h5xOopz+fDYmJIHYV4WRa9SiX2anWgvyWRNDBdNCAKIITuepXjjloAtjAH2GcXsgyUATBqBWBzCrEFZF0IE0BghHLHGqWw0A4XXEgAoduCUPsAuDklkFUUgAlz4KiegTcglE0e8IJzegGXBUyeUehXrNALw2IDWDkwowTweIGWNmB2hQAQ6psA5zAFNuiFTtYGGnvE0kHFmcJWF4ION7jcXMjLShEOOSGbWwKmoQPo6BYsJiIZIcNcGP1OB7rsVmxqrkOHbQBbWhth97rFzvCQbqfgOH4R/HlL87CLb6wC3s7MxHP5hRgg99EohM6zavtW0KIbKz1KJX4wfyEfeJpKXt+xDZl0vySRP5WV438pFmI5x+E/WzdDGevGi+nrkaJirM7O2f9JsdeL53eNLwB2QC7HuQsXp5rasN/Tgkyg4NbmRqSLKF3cpVTi78Ul2GSKxCPF9Fzo9eKfCfOhRf7shYvhomJnI0iJx4Nna6r5V1JUCExdMWce/++b27fCJGJ8w53CIlfgnIWL9n+90jKA3zeOLTOJ5vJsfgHWZmUjOFlB12O+otKBkgaGakAUQAi/vYdDgQFMmhqw+gGjkuc7gNUNtHYCxoQYg+jNP1KNBQIVfTaEOyzA/HKwZhPCbj8YTxhMFmUusAh7Agh+vAWKLD2Ykmxxiy+96Gn3z2dWBIE+iwAIMs18hgS8HmHhJ8Ag5iHdX9rZA9hc4FxehMg6QLt+joNMpwaTmw7mmPlAjwUgroQxCPX14Z4d+PN7q/iUyW+yaMIh/KGhYciuMpVObHI5rqqai36leCBZ6Xbh8dqapF3/esZMfJE2dEFLbDwSQNhoMuP2iooRh0670perdwzbZqoBBAJV1+1rwRm9vakuyZDv15nT8eeycoQTnr0Xq3egwOeLa39PaRnej1gChjvRn/fuwXJ7/I7+X9k5eKyoeMoBhOgc9mo0uK5qLkJi3j+j1rB0gKSBidOAOIDwZg3HZOiAdCU4mx9Mjh4c+d637gXjc4Mtz+UX9Dheg2h9heEeAp6N0Q2O3AwWNwKBEII2D7RLF4GTh8HOzgHcQXBfVIPJ1INJ0wm7eQomHK5PAgdW+37zPh/7QCBBrwUqK4TjqncDCS+ilOrk604EARdZM3yALwCOAhupfwIIFXnAykVARx+wfWy7i0AwiN/95xXemvBNFobj8NjuWsxyjw1oeVgWZy5aAtqBipGftrbgzN6epE3rtFpcUzU3ZTcjAQRyPJyxaMmIO+Ezerpx477WaQMQbm9swPHjcHFU6/W4cVZVnHXm5L4+/LKlKU4H681m/KF8eHClC4WwdtuWIXr7/vyFvEmfZCpZEGIH+t+MDNxbWp7y3pIaSBo4mBoQBRCCNR2cjGIQrB5we/rBFKcJREhuH2DvAzMjS0gRpEWTJ0CCsGtP9ZIm098ApTg6EbK6+EBHVqNBeF8HUJoPRYYBjIIV0iTdHsDrEzIiTIbkfVPMAFkGEoWCBqsqBSKmunrBJTJaIZBAAIWOJbBAhE5kRSFWSHJJmPUAuUPouzFIKBxCbVcbWgf6sGrrZ2jqT75ojaHraXXIzS3NOLVv6M7ULZPh1ZxcbDKZEGBYmAMBXNjVicOS+INb1WpcOWdeyh2aIRTEv7ZvA+2Ik4mHleGUxUtS6m8kgEAHP1hcgn9nZSfthx6VV3ZuR/Yw8Qd0kBgLAjlIRmM5scrkuGZOavCTOOiLOjtwZUf7kLmQyZzcIJ+YzXCzMqi4MI4fGMBZvT1JYwAeKirGmhi3SY7fh1d2xltRyCJ01ghukHKPG0/X7Ioby16tFj+OAXWJAIGefIovESs2mRw/jtFTMhdDu0qFN3Jyh3SpDIUx1+XEMTYrKFYiUc5bsAj9o3SJiR231E7SwERoQBRA4FotHBfgAKcfjJzhF3/O5kWY6IbDXjDF6QLxET0EqUBB7Kj3m+9d4Mia4PQBFjtf5wF6DZiSXDA8B0KEQyF6LBVIIhdCogwHEKgdgQSyWowjYGn/6WLJlXiyp4l1CVjdLvxv93a8Xf01Wi19vCvjmyCzXU48tGc3yCcfK+9mZOKJwiI+MDFRjrRacHtTIx8YFys/qpqLBm0kI2UY5VFw4W+bGkdU7d+LSvBWdvLFPXpgKoDwldGIW2fOSnqeEq8Hz+0aOZNFDECgIM1L5s2f1NskLRDAi7t2gnbusbLZYMS9pWX7d+2x3xHwoTiFxQm8IAQoLps7Hx0q4TmmmIY127cO6fu2ikp8aUoeLJrM+vN/uXl4uqBw/xASAYJDJscZi8Yee5EMIJBF5KezqobVfZnHjQf37AEB0lj5ZUUlvh5mbpN6IaXOJQ2I1IAogGD7tI5zd/YjOysPTIYajFHFsyi6130BXVEumMJM8SmIicyFUbIiIiQiRkWXR8geIGBArgFyVSSCDrJWZKYNZkjwhZRCQtbCgVpM6TwLygGTHti6V3A/TKAQKHD5fXhr+ya8uOnjbwRfwv11u4csJLU6HW6qnD1sBDyp/NLODlyWsKt9JyMT95WWjXhF/rJ3D5bG+K9px0oLSKFv8FoSKDl3waIRg8pSAQSKXD9nwSJ4kgTcndrbg5tbW0Yc51QBCL9sbsLJ/X1xY6UdMC30IwUTUgDog3tqUe7xxB37f7m5eLqgaP9n3+/qxI/b2+LabEhLw+9mzByiH8oaWb1965AAVopBaYwBhlMBINDgk+nu8YIivJ471PIwga8RqStJA+PSgCiA8OU9L3Nhhxfl8+bgg/X/xpwTj4JWoUb7Z5/jmGNPhpwWa7GWA7IO0I7bqBMWczL7k9AOn3wT5Hbo6R+cVLJ+6TiyWBh0giuDzPp8v2NwHYxVfTSGw2YBxPTY1AnUtojXwSjOSa6H3/77/w752ATaQf5721ZQgGJUKI6AFudUaYLaUIg308dmAThlMpy/YNGwWQgUGPhS9Y646PcnCgqREQjg3J7u/WOgO+rC+QtBWQ3DSSJAcLMsVBTAGgNWHy0swqokZuiHdtdinsu5v2tKC6R0wViZKgDhtZ3b41IxKdDwmtlVqNfqUt7Ry21W/Lk+vtQ5gQoCTtH0R1r0/71tS5wFifR+wfyFQ/qf63Ti4T21cZ83aTS8aylWpgpAuKSzA5cngNh/FBYldU2kVKbUQNLAAdKAKICw9dm1XG9LKx5/9g44HFaYtWroNArMPuZbuOR7P0JeaakQdyBGKJaA3AhGvRBXQACBQEBWupClEOUvSDBjiun6gLeh8R49nw+2xNd7Ju30j3/6X7y+eeOk9T8VOqaUxj8kpI+Rb/fSeQtEpRqOdg5XtbfxMQyxctG8Bby/PDFtLjYqPtl5EgFCn0LBPw4ENqJCC/91VXPiDs/x+fBKQvbCfSWluKWlecoBBOIqIIAQK9aIdSUxIyGZjggsrd6+bYiZ/ebKWdhmMPKHkJ+ezhGrN/r84nkL9rsion1f3tGGSzrjr98z+QV4OS9/SgKE6/a1xgFPGuQtlbOwJTL30d6/UntJAwdCA6IAws73NnAN27bi8ftu46mJsw0aqFQyuEw5uPwHN+HEI49NPtZEdwK1IuIhnuI4QYjFkAIhybrQbxHaTQehlWAsIQLJXCFRawmBI7ubL2ZFhave3v4lHq7eiEDM7no6qGY0Y/xdQz2Os1riDnk+Px//zCsYTTei2xKPAPEJRMXHMDhl8WF8+t3jtbtQ6Y7nozh10RJQoGQySQQItOv9X3o6LuwaJOIiNwP1H3urnNHTgxv3DboX6LvrZ8/BY7vj0y7FWBDonL9JYoofTiGp4jMSjzuvuwvXtu2L+/hLoxG3DRNbkey8yWIGHisswr9iLCvX72vFOTEWHOqHdPmnshlxXSZz61xbNQd7EqwZiRYEslr8rHK2qPuErkesu4IOGksMAr0inq6pRlmCi+X8BQvRF0OeJmpQUiNJAwdQA6IAwkN/+zuHvg68/8Jj/M4oN00DmYyFM60Qv7/5r6iI8SPuHztF+w9YBcIhg16IJ6BFkYiVyHKQKGTCTTMIHAZUPOlQFUqT/KwB6LAJGRHZOmB+AUBpnEQORamTpKdeK7C3C2ix8nwQH9v24eVwC5oUExvrMFXU/NLOHcj3x+fBXz+rCrV6/YQPkZgTH9yzO87odX9xCd6OZBpc3NmBKxLMwbSo7DAYRAOES+fO51PwYjMk/l5UjLdiIvfv2VuHZTEMgu9lZOD/cvPxQgJpkBiAMFolfXvJ4SmzPGL7TJbamLi4pxrDtwb68ZuEoFDKfKD5RUUfCmLNtq18XHJUEi0VVS4nHt0d717oUShx4YKFSHQyjifNkUDjd5ccHjet0QKEOU4nbm5tHhJ/sSYrGw8Xl4xpb5FKz9L3kgYmSgOiAMLxx53Aqfv3QWnv4b0BuSYNX7Exo+oo3P7TO6GUJ2Gvi7oSoiOlmAHaGY8lxXCiZnuw+/nnF0BtJxBMeI1RJkRZJriTZoPJNwPtVuCNLUDfoG+ahk47miaFB38yt6DxEAIKBDpfS8JGeP78hUlT0oh574G63Smv5h/LZ6BaP3RRv7u+Ditsg9S+RKd75sLFPK0uSWmEnS/2BET7+7sZyXPyk1kQyG/+ZM0uVHgGLREUsX9JxGVCcRNkcldywr1A1/aHc+fzoGUqAgQCVAuc8cD99+Uz8Kk5PeV1iDZYYrfhvr3xPB//zcjkMyBiheYfS31NhEJ0faKBkMncC08UFOG1JAF/BwIg0LVL5mYhl0kyz+uHZrKIDCWLEq1IqaGkgQOkAXEAYeXxnLZzD+Q+F183oCBdB5Zl4Mubhx9dcA0Om1kFZaKpjLIRiLSIdsN8MGKk1DO9hBXEkfAN4iSnGhUPfwh0peBwzzECJy0AXto4YupkCBxuzWzEFtWhYWkZDiCcu2AhBpKYYMWkBtLz8/OZs7DVKPi3YyVx0dinVvOR+LHm/ydqdmFmzOI+UrDicAAhkTOAgvFOW7gYAZZFYvYCBWSevmgJz4cwFQHC33fXYn5MMCXpkwCTmHoJgwDBjvv2xsfqvJeRib8kAASi1z4lgQvjhbx8vJAvuJuerN2FigQXEAUnUpBiqms9mveqWAuC2D7pHno+vwAvJcRJiD1eaidp4EBrQBRAOOGYYzhdWw3YcBAuXxAlmToo5HI060sQVulxzykXY/HRR8ZH8RNAoFoIFIRI/vQwwFF8ARWE1FAKo0ogGTrUhcDRq18DW4ZnyhuLCggk/CC3Bn2yaRKrkWKSlFGQn8Bw+ZNZVahJ4mIo9njwfE3qKpjJAMJJ/X24tTmese/PpWX7i/tEh3l6bw9+lpB+OBzh0XAAgfLe39ixPY4o6N6SUvw3MwuJKZYfpGfwFMS0cx4CEAqLsDrGT1/k9eCFBO4E2l0TjbFYoboInNjMIwIDjfU4zhIfIzJcZsZwY0jGO5HoYqBjiQDpqZpdcbtvYsgkRkoiVPpn9c6472juVLchGXtmIhj0MwzIaiFGiKvhkeKSuKbJgmnF9BVtQ9aQ13Ny8HR+4aj0P5pzSG0lDUyUBkQBhHt//1tu4/OP8IZQq8uP8mwDFColmgzlMOvS8NwF10FbNSMeIFAhpD6rwJRo84CbUwqmvAhoJauCB4xWBvQPCGmKh7L0OIC/vj8pM3zB0IUXjAkVKSflTEM7TU9Px0knfwfsBFmCTnr5JRRu3hx3ok3HH4/q004fcvI0qxXnvLk6/nOnE2iKX/jfvfY6dMycCYfTiTVvroGMZfHyzu3IjWEtpEXggeLSIeeghYj4FWIlWSYCfT8cQKDv7qvbgyUxbI/EtUCukzd2bocxUkSIzNNkLbHKFXzgZGIhpi/OPAu7jh0MBE7r6cY599wTNzZ7Zibe+PVvJu3qL9mwAYtXr4rrv6GsDDcWFsGdLKYoyUhubKX6DfEMocOl+iW6Gai7C+ctwPf6enFxQvbJc/kFeHGYXXkiQPBptXjprrvHrKey7dtwwgsvxB3vz8lB36mnxffJhaF2uWCurQWza5fgXo0IWapeu/gSuJYMz9K5efMW7N6d2o025olM4IG0iBx33MoJ7HHyuhqwWPDfd/87LcjnZDIZzjrrTKgiZGKTp5XhezYajTjv/PNGPDXz8erXuAduupovImRx+lGRawSj0aFFX4rjFy3Dry+8EmzsQk+piv1WvngR12MDKqqA0gyeYAneIGCimg5e4OudYEzaSeEPGDIjGh89pKPYNU3IBVm/F1g7fCGe8ZzDygZxdl7qnfR4zjHcsZWVlXjk0YchF1HKWNT5V68GLrssvmlREVBdLe6arVoFXH55/PFr1wIrV6JtXxsuuuhi6BkGbyXk2YsaW0yjq6vmoj6BoXEkgHBmTzd+mlBngXbe18dkBMTm+pf4fXgugXIYBAauu25wFHV1wOHxwXMoLwe2bRvtdMS3b2kBFiyIIyILGo24aPkK9A6kLj09HFPizytnYWuSVL+ftTTj9AQ3w70lZTi9rwezXYM8EbTYEmXxcFU8h8QgmM0AzWWssmYNcOml8UcfcQTw/gibgLvuAu69N/4Ycod0dAgU9Unk0UcexapVCSB4rGOe5OOWH7Ecf/rT3Xxc2lQ6cjeXAAAgAElEQVSXPXv24CfX34DQNEijlyvkeP3115AmomDcwdQ78+xdv+HeeuoRhMMcLC4/qgpMcGrM6NLm4ydnXICzjjoeVGSHFwpC7LUAA3ZwFie4fgdChYVQHF4FjgiNnAG+dHO4vgNMfT2Y8hzxLIxj0QLdtOUlgNEAtOwTMitGktHSRVNfIx3z6lfA5ol1L8QO/5S8HfCwB5AgKnJyAgiPPvYICOVOiBCoLCgAYl7+fI2L5mYgSRzBkHPeeCPw3HPJAUJbGy668GJc29mBC7rHZ3F5MxJ9HnuikQCCLhjEWzu2xXHxk5k5lkTp7Yws3E9cIgCmLECgwc2eLSxqUWEY/Oywpdghgr2UKLHvaqiPuz4UFHraoiVJWSoXO+y4vy4+XoFKRlNZ7VgqborroBTU4conTwmAQPpZvBhoTKD1JqA3DJOiBBAm5K0ypBMJIEy8Xplfn/9dbtemzxAMhhHiOJRmGdCpy4NdmQaNSo3DK2bjxqNOQjqr5EEBdFpwrByhhm74fS5oLj8FLGUx9HsiWQwswr1OMC2NYLK0ERbFiR843yMBhHmzAUqj7OoB2uPJVfYv7kR6VFIkED5ROee2ePPysKPTqoDSPAEkULlnm0tgdoyi6de+Br4ex44lhVpOzt8BP3MIAASa5/e+B2zYED9j2hl/8QWgVg+vCXrRHn00EMNrwDeOWhDa2nDl93+At6t3DKnzMNq7jhYpYlYUCxCo3R8b6nFMAsdD9HiC1ZTxEK0+OKUBwrXXAi+/HDd3YqwkgqmR2C71wSCerK1BbkIa68u5eXgmpm5CbMfDkSYlXq9UJFZTAiDQoMm6RVauWNmyBRimFLgEEEb7ZIprLwEEcXoaTSvmwvnFnMtugy8QQoZBBYNGybsXvHIharhUn4aHjzkbWq0RCDHgqorBlOSB29aOgM8BxcIKhNq6IFcZgVIzmHAYoXVfgw36wRSmT34cgkYFUA47WQ8ift/9CijMF6wLFCBnThM+pt3snnrAFU+Wk1RpRLVcQuWuGQEkkAXF6QE6eoXgzE2NwKrJMf12yfy4MDeeVGc0F3Y8bSfcgkCD2bkTOO44gTsjVk44AXjiCSAnZ+iQa2qAiy8G6uN3p4kA4c4zzsITCRH0X5hMKaluidynJAF4/KpiJjaZIvdKihgEGgdVNby9KXkZ8AaNBj+KoQee0gChrw8gv7k13gpHZbHvKpuBtiQgjoIuf9vUgJkJWQcEaS+avwDdyiRF1yJXORlpUuwNQFaDsxcsgnMEN9eUAQi/+x3w4IPx9+/nnwNzk1fUlADCeN5Owx8rAYSJ1ytzRomJ9x94/JTBoAfkCj5AMcQKWQjfKazErctPBmxucJVVYMqyAYMCsHvA9dvhq2uHd1s1jMcdhVDABfmsQjDVDWB0SsCgEedjnuh5kZXA4gBOOFIoIU3MjWTlIKGgKwIIsbUdonUjqGYEgQEidCKrg1YNzCsb6kuk7I36NmBHM/DI+okePd/fI6Z2rNYPLY08KSdL6HRSAAKd49ZbgX/8Y+gUyA939tnAwoUAxQAQjwFZFshKkJD9sP/gGAtC0xFH4JiYwkzU5jcVM/F5zEKfTG+H2W34a0Lu/tdGI34ZwyA4kouB+jQFKZthW1LrBZWwfrJwsGDRmAEClQ0uHKxiKOoeIP0UD5IUiTrm0UeBX/1qSFNyF6xPM6NGp+MXbKr4OMflxEqLZUilTTqYKKXfycwa8ZSH2224N0H3sQd0K5X4QZI6DbFthgAEikUqic9MSDnvf/0LmBkpGDWWGAQ6Ad3TdG/Hyrp1wNKlSU8vAYSUV2VMDSSAMCa1jXgQDxCoumAwxKE4UwevQodWXfH+NJ3lCxbh7sqV4DoGwC2eC/ncEmDAIwQiKlgEq5vhbaiDxqABwzJgDVog2wQm0yS4F8gkfyCFFvvOfqGGQlEeUJIvLDj5eYKF4bOtQK55EDDQ2KjSZGuXUEUyTS8UaKJ5ZJBVJA/IT0idonPYXcC6zcCnDcDm9gmdoY0N4rKc3aDfB0MmDSCQ/s89F/jww9FPi0rnxhAgRV0MtpoamCiQLEYscgXOI+a9FIFVxIS4ZtsWaGLAoiOSVkexBCSpAAK1+XVTI04ciClCRoaqCDlSe8zOe8wAYfTaArZuBWbEUxiL6uaGG4CESH5Rx0UIoT4xm3mLQyrdU/EmWuATS3lHz/V2ZhbuLxmagTIiQBA70Nh2sTv9sQKEZEG0pMOzzpIAwliuyRiPkQDCGBU3wmHM6cVG3oKgUcmRrlPBqk5HlzpbqL4I4IjDl+KWuSthsnrBnrESDH1u9QIaOThfCNzuDnBN9WANajAECPRqwKwH5s8Q3AuUDkm7eSqZHK3uON55RAmaKA0vMbiWvmvuBPwjLK5k2cjNGHR/ON1Ae6TULfE30LE0F/opzgGWzxm0hLi9AlVynw2oaQLMBuCDRmBby4SUo6aYgyuy96BDHk9NPF6Vjeb4SQMINAhyMVCk+DvviNcX+XIfeQQ4+eTBaUQsCOEXXwR7/fVx03sjJwf/KBS3e35mVzXKvPH04LGcCGIAwnyHA39PYH+kUtZUeyFWpgVAoOeHrAjk9hlFNDgBqvfSM3B/aZloiuGbW5pxakI2A+mLXkgU+9CVIgVsPEyK+6/LRACEr78GyFUWK9dcMzS7IfK9ZEEYzdtIfFsJIIjXldiWzBkEEBggx6Thc8n7DYXolQ1S2BYWFOKXl/8Y2ZsakDmvCsG2HshLZ4CZmQmG3PJvfQhWowAzu1hYcGlnrVEDC8qFMQRD4LwBYdG12sFQsN94+BHoBdZvAyhgksBITkKcA4GQpkgQYl4G+U74rIv9QsfT+elYqiFBwIXGHJVo1gK5GOgFSb9PWg6YdAJIoHl8thPY1y28yShG4fzjgGueAT4aX8wAgYOLcmrQLzs4loOoCiYVIERP8tVXwEknDY0bSbxzTzwReP11oLsbqKoaAhC4I48EQ+mSMXLjrNnYmYSGOdlDcbTFgjsa42Mc+hWK/eWkxQAEfSjElzKOlScLCvFqbt70AwiREYcaGxFctgyqGF6J4V4qVOHyF5Wz0KIeynY40otontOJhxLKOlP7ZrUGV8yNL+2crJ8pAxDIDZYXsVBGB5qRIWQ2JLFiSQBB7PI0unYSQBidvsS0Zs4qNXEylkEmWQAYBv2ZM9EbHGRBVCgU+NWNN2P5plaoOwcQpsW+ajbCvd2QLaoEW1Mv7KLPWimY7Xc2Ci/9uWXgOIbnSuBkCoSdHrAhGZiQC6zPK+zOxebWUnAgBRVSGek0I9DeC7R18xURsXCWwNpI1M8kFH9A7gJqR0GGtOBbHQKg0KkFFwKdm9wQBA6iQn2V5gquiV4buCPngstKA7v2c4QXzwB3xFywDo9gQSFwsH47H7QYXjEXOGou/zfzx9VgXt8kRu9D2niYMG7IqpsSdRgqK2fi4Ucenrg0x+E0Qi9Wylt/800wH3wA1NWBcbnAFRWBO/10wdJQFokBITcAZTREhfzrajW6P/0Ut916G2TsYEom0StHXQSpLgYZoEoSKvGReZz6IPxHgXixaYsUPJcsYI9qSMSm6JEP3ZOQJqpmWbx+z5+g1ekGh0XBmZS/HxVakBNT5lJNItn3lCFC2T1jlEAggMsvvhRMezuOtFpxlNXCFyWigkuU3UCVEDeazPg8zYQepWrYVMSRTk/6Ir0lCumN9JdKYq/NpT+8FMeuHKby7Egd0f0VtVQ4HEB7gruQOA3ExDXQNUsEU+TiofiRBHnssX9g9XThQVi+HHfdfee04EGoq9uLG34yPXgQaF199bVXYCLX6UGUOI6jJONgzp9h5gFCmk7FvxBbjeXwsPHRxxkZGbjjxLMxq9GKkD8AmccHhqiVjVowRp3wgB0+G6gqBmpbgb37wOk1CBfkIWTxQlaRC1auBHrd4LJVYGkX3tQizpJACzy5KMisf+zhQEGeYKZ+fwOgUgInHilMq7oWIPM/WShokSfrAY2NZL9LghkEJR4vsK9nsJwzWQrKIimNXj+sbBj3f/oOlDYXGuAFK5Phzp/9EgWU20yL1Re70La9Bnc2fgEfG+GJCAOn13A42yGO7jV6PexsEL9Nb0K1KsaScRBvGrp5c3NzReO3gzhUBINBtLd3TIsXGOmpsLAgnnjsYCpvhHPTI9PR0TEtSGdoGsT+qdfHAK8pqlcalsVihYPAyDQQtVqNrOyspIWpptrw/f4AumLKsE+18SWOp6CwgLfaHyzJycnBX+79y4inZy6ZncnR5lmrUvAAocFQgaBsKOrNMJtx0qKlKK+YiSwfhzkeGWTL5ggBftWNQIZJWGDJmrCxGlxLF/wzy6HQZ4ItSQOdhFHI+MDGcHUD2D0NQHn+YIYAvZG8PqE/NdVyiIzB7uR39Pwif+xSoDBXaNfUBhTmCGmMlJnwv88AWvTJxUCWiZIcAUAMJ3x5apdgcaAyzBSUSCmTEeHAod/pQH1vJ/76/puweFxYUDUH119yOcqKitFaW4e7Hvobmp3xHPZ0uX9oz8UljlxR150CEX+V0YjdShFpl6J6lBpJGpA0IGlA0oCkgZE1IKoWw5XzsjmWYSCXsQiCRaOpAmFmeAY92l0aNVo8cM4VKDx6KaBWANv2Ar6AsNhScKJaBe75t+E3miFbsQjybCO4VhugU4BhZeBqmsHs3QUsrhTAAKUhUpwAxQKQZYIW+KgLIjYLIt0EmI3CT2X5ID9BbT2wNaaGPC345QWCC4LEoOcJnvj6EKPMqqAMj//t3o6/rfs3CDSUZObglCNXor2vB2s2foRAkkAuGcPgbvUSLKsf5GhPdqmcbAi/zW1FqzbI84c7fB6e8loSSQOSBiQNSBqQNDCZGhAFEK5ZmMuvSBR/4JTr0KanvO3hebfpmzStHn8+/3JUfusYYfcdBQit3cLCPrsE2LAT4YpiMEcvBBMIC5kPBiU4ewCo2wdm726gIl8IAqQMglQLt1oJFOUIVM9EerRsoRDrQFXo2ruAjj6BxIgGaNIDWWmD7oQ5s4TAyWRsiyKuQCgcRutAD79455nSoVEoQZ/9a8tGPPXZ/4YUB5mXX4x7z/oh1BuagHd3JY/W1yhQfe4MGAuzYVRrEebC2Ni4Gw+uW8sDEUkkDUgakDQgaUDSwGRpQBRAuHZR3v7VqF2XD4di5KCJ4yvn4+ffOgOarHQhc4FkTytgJVdAJKWRfPRaDTiORXhOBQJ9Dqiyc4CKNMDpB154C8zcUoAWfQr4I6tBrNDnZFWgz2lHTa4CchmQv4YAQLL1MxpnIKCdQXBAn88oBUxGoGnfEKa48SjfFwzg9c0bsaG+Br1OG3zBIGbnFOLXJ5+DDJ1RGOsXTcDqrfEggawut39vSElsp8+LC565H27/0MCt8YxTOlbSgKQBSQOSBiQNxGpgVAAhyMjQYKwAl6LE72+/ex5OmLWAghaAeREzP5nZa1sEF0GPVXA7EEVqjx1hqxOhEAeupAR+OQd1cSZktU1g8tIEawNlJFA2AS2mZhOQrheAQJTamEACxS7QZxQRXDVT+JvYECnmQKxE6ZLFthfZjrBKOBzeb0UgS8yQwJOvmoHXI+WOiWHyF98BdENpaFstfbjm1cfhHY49UOSYpGaSBiQNSBqQNCBpYCQNlBYV4dl/Pj+ikpioBcHHKtFkTM68xpf65AClSon7rrwBc5Umwb8/q1jIFKDFnE897B3cuRNocHoFimanB5wvCKgUQIYBLHEKqCKplNGsAyIu0qfIoyaAMKdyECCIrFU/JW6T7W2Cu+FHRwMZSaKts9Pgz0qD1evGT37/a/QlMPNNiTlIg5A0IGlA0oCkgUNCA7PLSvHYs8+IAwgBRs4HKPKsSTGyoKAUly4/jv/Ew3JYcdp3wVKsQb8dIDplykSg2gVkQUhkLyRXA31G4IAAA1kMNMp4DgT6nHgOolkLqVSvjdR3EFNsKVVfB/r7ABEvDRMAmqaHRa/As++swTsfrRsS13CghyqdT9KApAFJA5IGDl0NjMrFEGJY1BtngpXJMTunAIXmTChlclyy/Dhk6AxCnjn9EEOiwwM0dggBhlTXgNIQKT0xmSSLyhdLkHToXpukM6O0yvvXvYVNTXW8y8Wg00OhkMNis/FuDEkkDUgakDQgaUDSwERoYFQAgdjjGgwzcN6y4/HD5SdApRB4EeLsCeRWmFMqZAs0d03EGKU+EjRg97jx/Wfvw9nfPRWnn3gSDxDefP+/2PDlJnT1dsMngvpWUqqkAUkDkgYkDUgaGEkDowII5FpoMZTigYt/hlk5BcP3G+UWSMw8mMxrwaOUGKhyiHIFEBfC5pYGPL39Uzz0xz9BGaFpFQIhQ3jv44/wt6cfl7gSJvNeOwT6JnB/5hFHoNNiwfamJthcU4Oh8xBQrTQFSQOHjAZGBRBo1u3afBw+9yjc8u2zoBHBhS5aU9EURJ4ECYPpisPxLfAuCMpekAPZZiEQUhYhT6LVksoxEwviISB8qe1wGP5gAJtbG/DX/63BL667AccuOwJurwfbdlXD4XRiybz52Fy9A/c9+Q/J3XAIXPfJnMItZ5+N7y1dylsAN9fX45fPjByINJljkfqWNCBpYGpqYNQAgUkvwd1X3QGTVjcx3NsEDAgUUI0Elw8cudG9fjAmLWDUDC3YRO3zMoW4BhIqdkOBjbFCfRHvwkjlnKfm9RgyqhDH4S/vrUJ1Rws8AT+IB4HImG647CqolAq8vGYVunt7+c9USiWCoRBfe0ASSQPDaeDYefPwmwsugCJSKKqjvx8X33efpDBJA5IGJA3EaWDUACE/vwK3XXkX5LLBao7j0ikF1lGaY78DnNkAZvkCoKEf4Pxg9KxQoZHaRIMWqR7CzELBcjCcEIESETLRj1YtMDlSTMRwQZKJ/RDgIA4H+8GvfUA7vPs/WIN3dkU4EiJjjfIoEFujJGPTANmg1ETUBcDHpNajgmMQoPrl01iMWi1euPlmmGKqRbq8Xlx0772wJ1SsnMbTlIYuaUDSwARoYNQAwahPwx9/+ghUSvX4T0/WAI8f6LKAM2XxpZSZGVmAxQsuXS3QL2/bDbBhweVA1RcLs8RXeKT+o8CC/qYFv6MX/IpAbgmnW6jsSG2ImZHcFFTq2agFKN1we8MwlIwTM/Xm/m7s7enEMRVz9rtryJ1A7ItqhRLegB8NvV34sG4n3tz2xfhPOsk9EGjJS09HW1/fJJ9pfN3PDGhwniMbK3xG6MKC9WlAFsBGtQ3/0vdin9zHfybnGJzkTsd33GbMDuhAAMHFhLBD5cQ72gF8prFNK8JrshjceemlWFZZGadAsj5d+8gj2NvRMT7FSkdLGpA0cEhpQBRAoFoMfAojb9GX446fPgqzKWN8iiC3QijEWw7CnQPgzBmQHTYPMKuAbheYfCO4TiuwZQeY4gyBA4EW79x0YSEfbRok7bTpnFTJkRZ/HQEcDugeEDgWCDBEiz8RmNjbJlBDT5J4gwH8+p1XYQ16sbCoHBcsOALZKi1a+3txxzuv87wSPQ4bntjw3rQJOKSCXk/+9Kd4ZO1abGtsnCTNjb1buoNPdJlxi62YX+yTSRAc7jO3YpPKgd9bSrHIpx/2hP/R9uGRtA74RVgfxj7qiTvyO4sX47bzz0/a4f2rV+Ptr76auJNJPUkakDQw7TUwaoBAM77t6ntRnF8+tsnz9MghwOEF3D4EBhzw9tmhPnEZ5HNKAE8Q6HeDUSnBDbiBzg4w2nBcmWUsnhlPmhRrKYi6IwgMUHGnSHYD5/CAI9ZGbwAcw4CNxjgQYHD6wFGlSSo3bdKCIfcCET05XBMTx5BYGyLMgZPL0KuVoS8UQMgfBKuUwczK8a+P3sNbn6+ftiRId9MOddYs3PCPf2B3W9vY7pFJOmq+T4cH+mZCTHX1TpkPeaGhVNeJQ1ur68Pf09p4o9RUliyTCS/8/OdQR7JeEse6auNGPPqf/0zlKUhjkzQgaeAAa0AUQLhiTjanUg4GAl5y5vVYsej4sQ2VFmSLE1yfAxy5C5YtAJos4OQc2Awt4A6BydIC5O/9ZCvkNiuYI6uANAPQ0iUs2ItmCpTMBAwIBFhcQswAfdbvAIxqwB+hcQ6GwLEsQv0OMPmZANV3au4Hq1Ei4LNBplKCTTch7A+D67FDTlUejSyY/HQwxCdQ25q80qKY2ZOVIzMN4OM1OKDfKjBKegMAIwMXCMM/uxhtdc0wsTrYlQE4jQz+74O1+HKa7uZuPussnLpsGfb19uLqhx+GLxAQo6lJb0OuhLWd8yflPDdl1mO7avKsTRMx6Cu+8x1cfPzwz+z7W7bgnjfemIhTSX1IGpA0cIhoQBRAuLQqk9MqFfut+iuXfRfnnXw5WIoLGI3Q7t7pBddtA1dUDqYoA0yeQajemKZG2O5BaGsrEPJBdsRMhFt6ITMogeIsMFTkicz+tBufEQlSpIWWdv68UFXHSJXGKA8DxTcM2BEMMAgFOMjnFEJGQYvtDoRdboQCXoQGnJAvLIHcoAc6HODkLLgsFRi5jNZwYhcQXBBRRigKgCSGyMQMiXSTACRsjsHKkwRqdNpBDfHz9/AgJuzwIuQPQf7dpYA7CKbdAa9JBpjV6LNZcOt9d6Kza/oRTd39wx9ixezZvAXk5qefxvYp4mo4ymvCnf1lo7lbRbf9SGPBnektotsf6IYZRiOeu+km6NXDxw2t3bQJD6xZc6CHJp1P0oCkgSmsAVEA4bKqLN6CQD5mkuL8Gbj58jugVKQ2wcbNnVwLvXaEOwYQzs6BfNlccHIGsHqBLD0Cu/fBtW4jtIW5kJMLYGE5WLMOjJwVTP604JuNfJnolEKLsdUNrtuKsCcEtrgYTKlJ4ErocyHscCI84AGbZgZTYgSjkvELNQiQECxw+cEEPWAyDUODIim4saZl0LJAsQuZ5sH4BponWTMobiK2rDR9Ttka3VZwmjQwVA57phnwBoEgBxiV4Hwh9HV2Y0PzDjzy7FPTytVA98eLt9zCByqS/P6ll/Dprl0pL9WBaHCrpZgPOJwMocDF0/J3TkbXE9LnuUcdhetOPXXEvh5euxZvfvbZhJxP6kTSgKSBQ0MDogDCVfOyOXLpqyJFhHQaPX5z3QNIM0S4CMTqgsz9lLFAsQCnHQ1WrwUGvJHdOAuu34lgTS3kWXowVOSJUhopnZF27ZTuqFEJO3IxAYoUiNhrRajTCn+/A6plC8Fm6sH5A+CqO8ApOPi7bVDNKQebowNH6WtWH5gCE19VMtDQAVmaArKZeUN5FshSsHWv4N7gS03LeTcC5/IJhgy3D4xJD0avFKpP8jwNnBD/0DmAUJcVYVYFRdUMMLl6cB02MCY17xoJDLjRUL0L9hwlfvPQXxAiUDFNRK/R4I1f/Yqn4KbI+J88+ih2t7dPidHf3V+GFV7TpI3lhIJtk9b3eDv+65VX4rCKCqGbcAhoqAfKZgjl1kEhQSH86OGH0dzdPd5TScdLGpA0cAhpQBRA+PHCXM7jC0KnVkSmzuAXV/0JZYUzR6cK2tX32cG5/cAxhyHk8EAGJZh8PV8hMri5DrKAF+yMPGHRjU1RjJ5JDDigtgQquiwIdlrBFWVDvqgcDMOC67SDq21HyOVFQM5A/a15fIAg1+0COh1gcgy8RYPzhxBWeCGbnSdYA2KF3As76gWLQYgDx8rBWVzgstLAVBQBe7vByJVAwA4m0wiQBYTcHm4fuPZ+BHvtwNxSyCsLeY8JV9sLhkpbK+WAzQeXx406the3PnrvftIjo1bHW3BsLueUTa2bVViIf1x/Pa+ppq4uvPbmanzc1g7/FOBquMlaiNNcmaO7X0W2trABnJM3NSwliUPWqlR4/qabkGkyAX4fsKcWsNuB5SsAuXBfd1ksuPT++3mSLUkkDUgakDQQ1YAogHDtojzO4w9CrZAJFRvB4NKLfo7lS04Q1nCVcpBPYCTd0s7b5QV67AjbnAjY3FAcuRwhnx2yeaV8cSdGqwRj1ouzEox0Ltrd91oR7rEDxywEq1Qg7AmCIXeGx4VQtw3sYWVg1UoeDDB2P6ATQEnYGUCorQ+sFpBlGwACRmS9oEWeyJYoWJJiCTRqcJ4ADyjCCjWQbYSsMg/o8/Aj4zL/n73zgK6jPNP/b2Zur+pdsuRu44axqab3JASyQEgCYUMSSNgN6Y2E9F0CCbvknwqBECC9kkaW3sGYauNeZVm2uq5u73fmf94ZyZaNjSXbBJf5zvGRbU355pm5d57vLc/jRZFIxrY+8DrNFInRNYhe1FEXzUFBwcgWUGI5qPKZRYvFriG6u7oZCJf44vdvwut08a4TT+dtxy0yaz5+9eg/+dviJw86kiDPxScuvJB3Hnecee13/u2vnOt2cO3Ti0kfBC+eubkAtw4Mr6IP8Of/H75B/re88wAf9cAcrraszKw/8Ihq4qrlEI9BYzO0Wl1IEun5+cMP86vHHz8wJ7SPYiNgI3DYIDBmgpAvlsz3o0PTcDhdXP+jP1Pf1Lajk0BC7mNZ3ctqMp6BoQR6PG2G82UZrTTXoTRWolRL1f84ix93dzvkPNIt0RelJGp5Pi+Fjd34Zs3A0HT0QhZdUWnPD1Bc08GMeSehNIUh7MaI58gtX4+7pRJVVvWjizFFxljIh6QN5IXfE6UUzaC1tKFU+aHaY9UylLkhb6BHEijtHSgTas1ogwgzSSpFb64zBSKLnYN4GxsxpleY0YRMRx9rN60n0xDgZ7+8m69dfg1N1bXDxEwCIwU+f8etrOjYZIopqYpKOp99y70Xyvx+fv2FL5htdNK5sPyB+2nxevn3J54mdxAQBLeh8rfu2XvUP9jXT7TUrl5bvY51rrdedXN319BYWcldn/wkTkknCEGPDEJ5xfZnWnwYPmf7MOzr7bf3sxE4rBEYE0EQoSTTImFUmqFtxtFc86EbCGdVSwp5rM6NI94L0u4nOXsJ18vqvKUOAiKLvIuvwr7CL+eR1f5gHCOSpBhNU4VryakAACAASURBVEhlcbVNILOpAwJuCoU8X7njC5QUg//6yj3400W0uS1ooqrYP0Sx0otbV3dPfOSapRth2yD5gTiO2dNwTKwFxUBfvA11lhACHV3EniI9qFMbQdIIQooG4uiRFIVYCsPpwtncTGGgB9fCqSj9MQq5NKW6MlyqA8dwnng0DNFkgu7Bflpq63GoGkvWrOBbv7qDkuSX36Jxxpw53PDe95pnv//xxzjHobCkt5+vvvzqWzSj15+2ruji3r4ZpkLigRo/C3Xz62DvQRfRGbk+l8PBjOZmMz0lMsvnHHMMc1pb8Xs8rOzo4Ev33EPCllg+UI+DfRwbgcMKgTETBFnmJ7N5Ah6nVVmvw1XnfZRjJy9EkRC8FOPVlluKhP1DZq3BG44R90ZZgomGQWX52CIQ44FfXuLpnOnqaMiLOZmjlCtgiIKjHEdTWNe7gVt/9x3ec8r7WDjpGO595ld88PJP8ZO/386/vfuDTG6bvvszSuujpDC2RSjVVuA4Zoq1yk8UYCgNQbf5dyOVh+ggSr3fSsVI3YLMJZrEkLbOVA69WEIxDLSAF7UqiFJbZpGmXSMygpkUigre8ju5tpJBNpfjmu99i60DfeZc3Q4ni2YdzfTmVlZ2bOKJ114aD2r7tO0Pr72WmS0t5rORePYpQgp85cVXeLbXmtPBMkQZ8cbBiaYHw/6OZzwxvlWx+ZDzZxByIMJJfdEo6ZwlK20PGwEbARuBXREYM0GQl18qW8Dr0tALBqWCzkc/dTPHVM1EwYXu19FmNlueBmaevtcqFJQhP+WFuqchKYWqiuGWwGGr5wNxr0ZIiGglZHLWC1XSA7KClJoAl8NUMfx/d3yNYibLNZd8ilt+8TWu+tCX+dJN13Hn7fcTDOyh8l3IRyRpykTTXIvS2mAWXyoi9BRwgM+JkS6Sf2kNThGBmlhnFSHKnIQkDLtXmmmKQglF2i+DXgj7LQx3JQey6JXaDO/w70YiMf0xc//Hl77Isvb1zGxuY8HUmZQHQ2bNQqFQ4JY//oKHX3nzvBxmTZjArddcg2kg1d8L69by8sAAN7z4ykGRXtj1URKS8K1I23Yfhn151P7pG+R/yjsP2sjBvlyTvY+NgI2AjcBoBMZFENLZIi5VweMMsXDheZx95QeprWq2qv7rpCDPQBEtluF2yO0nkhfzpm3WC/qNSIIZTfBAOLhjK3kRyhhLfcOejj1CFISkSCpEjiWkRF66usHmTWv44Q+/wIc/eAN/vO82qupaWde+gVtuunfPYlDDBZdS46DHMuiag0xXP96jZ1OkiGtaLaqhUVjTgcOjWdLOI7UMo+cjZEHmJPORzg0p9NjTtZqRGo8l2iSaEGbKImOSLzOqMzxGfDNG/v3QS4u56Xc/f1OefJ/Hw8cvuohz5s6FYgFefoG+RIJPPvcCPQdx6Hpuzs/XIm2U6eN3JX3AF+E75VveFDztg9oI2AjYCBwsCIyZIMjrJ5Up4DJU/K4w3/jKLymf2YohL7iQB/GrKXb2oVZLmDy080tuZNW8usNaye865KU4UsMgL8pQ0BIZyuYsWWL5nZgryQtS1Yb9FQ4chPJy/dH3P4fL7SOViPLi0hf59GdvYcHRJ+35JKanhIgxJa0ah0iCB5/9B1GPyvFVM2ma0IY2sd4sclQDLhSptZCOBiElcm2mdoK6Q2xpXARoRNZx7xhI69rNv/s5j776wt43HucWUrD6xQ//O4tmz8aIJIgM9LP2hef56Wsr6ElbnRwH85iR9/HfgxPHRRIkcnDLQdqxcDBjbc/NRsBG4NBDYEwEQdocCyJyJKrDuRKBYDVf+t6vqJ/QhrGqH+QFWNApiQBSjQOttXpngiAkYsNWiIle/S4FYkIOjppo1S30DlkFj04nhuZEjyZRW+ox2vtR/F5wlVAqgweukHH4fglBWLL4QX5173cIhCroGhjiZ3c8iMP0UHiDMewFIfUN7Wte479/+HlmtM7hYxdch8vnQ6mw0gWK1DxIO6ShYCQzKOGglYYQKWbRSBgXORj7Q1bSdZ5Y9iLf/s1dB9wR0mxrvOI9vPP0U+iLRPjI124klkqNfXIHyZb1RRd39k3HO4aahN8H+rgtbFsiHyS3zp6GjYCNwJuMwJgJQq5QwqEo5NNFLvnol3nbpVeBtCimCijSGpguUli/DUdzELWpcueXXjwJazp3b3okL/4ZE6zQ+lAC+qKm8FApLgWFBq75bSiRrOnASIULRYof9aK1/QEc2Wya79z4EXq6N5sk5iMf+zZz575BBGHk3IbBQH83N33rw+RyBb712Z9Q5i+DypBZU6BHLc0FpbYcrbEGoyOKImUQhRhKTcgsTjwgbZ0yn+HUhZEvUigWWZsY4PZ//IHV69cdcMnmi88+g2vfcwn9kSFuuuNulq1bfwDvxr/2UGHdwR96jnrD7oZfBXu4K9Rj1xz8a2+Nfbb9REC+JT/67ovx+3zIguGX//in+Zm1h43AWBAYE0G4Ylql4dBUPA6NXLaE4ilj/rwTCLnCXH7JdTCpHEVEBV9YgXbsFJTQLnLIZktgHAZjVlhe/kib40haQVwWGyXqAGLLrG/up9iVwFVbBxPLQFbfZV5I59GXrkNrqbQK+Q7weOXlJ7jrp1+nVCpSWz+Br3z9XrS9tF0mU3F+9P8+y+ZNq7j0PZ/i9NMuMsmR4XGipHKUBlIoTtFH8KPVBCxpaanREN8F8WDY0o0S9Ow/4TEMhBgQSZArFhnQFJR0AXeln1f72rn5rtsOqFZCY021yUcGYzFy4np5iA8hCXf1Tqd8NzUJPzdbGfsY7n05xK/Unv6RhMDxc2fx3x//D7PDShYNH/3mTbRvPTjkz4+k+3CoXuuYCMJ7p1YYXqeGU9PQSzp90TRBzUk4WMmVp7yfo+sm42iqRpE+/LPmv/7lPVJxP9xeqEixnggO9cege9DCrqUWasqsfP6abRi9EZxnLLRW12sHYEQCeWAAtc4LIf/YMZcOAREpMnWN97xbqVjkoQd/zSMP/pZcLs31X/kZjU2TdruDpCWSyRh3/+xbrF75AhXVLcSzRaqr6ynkc7gdHq655DqCJQ+ushrUcmkD9WLE8yhVPpCUzJZ+lN5eq8NhN3oHe71AwUYEm6QzQwoVExlKkTRGeRBN8OxKQNCBEXSxpn0dqzo3sXnrVlauW0Nnd9cBjyrsdb4H+QZVJSe3DEyipWi5Hsqjcmeoi98F+6Sr1x42AocUAiKOdfd/f436aktiPJFKceX1XyeWPLityQ8pkA/zyY6JIFwzu9YoGYYptiKR/YF4hpDThTg4HTdxAR8560MoFQGrDW/eZJC0gfkNK85Fhtm9IMJAssIVaWG1PGDm503/ga39FkmQAzfVYBR1Shu6UedOQfV5MCSFITUMHhd61xB09aE2WOH7vQ45t/goSN3CyFe+dFJE03vM+0v04OGHfsvf/nw7M2cdz0f+479xOl8frYhEern35zeybs0rzJpzIlf8+xfNlfTWrna8bh/1jjC+WIFSuoDzuKPQZA7FEvrSXpRJFSi5EvpgCqK9qJNrLd2DsY6RtETIaxVvCjkYSlHq6IeSB602jFLpgYIBASd6UrQgoigTrNqQVDrFXx56kHv+9LtDygxqrPDsz3bVJSf/NdjGpIKXXwZ7uTt06Flu78/12/sePgicNGc23/zEtdtVWNd1bOGj3/j24XOB9pW86QiMiSBcMb3ScDs0s9BNfhZ1HVWcBAxoa5zC5z7wTVR5EUudgIT+ayqGbZVjZjteye2hmMrjnNGK0Rm1HthKJ6qkDUSGd9XmHemGbB6jewiCAUqKhuH2ozVWoUwogy0DGKs3os6ZaHUCvNGQCIV0TMh2LdVW14AMSWtIekO6I4rSeiG5kZ3Xh709W/jGVy43Wxy/cMOdNDfvMKXSdZ0N65eZBY1DkV5OPeMS3vHOD+J2W6tOc8gLuz+K0TWEIZ0M01qsWoPE8Hl9boxEDqM/iZKImA6S4yIIcg4hHCOCSaWSKdiU39iL4vHhnthgSlgbA2nUuiB6X4J8Pk5mcgXhsjLzukRc6bP/9XVWbVj3pj9kh9oJJN1wRrqM+wIDh9rU7fnaCJgIzG5t5eZP/CeecGA7IstXrmHZ8tXc9dBDNko2AmNCYEwEwZRalkBAvkhwu6OjdfzyUBVf/dj/w+3aZQUsL0R5QfdG0ctroLkBdWI5RPMYQSc4FBQhBtn0zvl3IQzRlClHXIokKLq96JkcjnIfzvKgKXCk1JVDWcjqZpD6BiEcI50A8m8JuQ/FrJe//P/kRqjcjeDRiHZAPA2J7HbA8vkcN3zhYjOFcP4FV/GOC64ySU08HuGB++/lycfvM/0o3nvFZzju+HO3M/TtBxjxgegeQq8qQ2ltNK9BzRio4tEQcqMnchQeexlXVQBFUgwjBGZMt224GUQUKCXN4HWjbx2gsG0I18Lp5iUb0aw1L0Oh0B2lM97LT569j9lTpnPeqWcwFI/y1f/9Dv2DwymesZ7X3s5GwEbgoEZAVDJvu+46ylsbdny3yndhJEnf0BDvv+UWCgeBP8pBDaI9OROBMRME2TiRLZgEYbQQj0Nz8o1P/IjyUMUOSOXFG01CexdG3xC624t67lnQFIRIBqU+ZNkjP/yM1fEgYfKBqNX2J6F2kUPuGiQfiVNwus1OAG9lEEd1CKV6WGNhRFhIogCyj5AF+SmFkFI0N7p10OOGSQ1mkSM+l3W+EaliqU+QfcWCeTiSIPUFP7/zv3jphYdoaJzE9V+5k3h8iFu/ex0D/dvMlMOnPvdDJrTKy3g33RQj5Kg/Rqk/TjGWJh9L4T9xIXouhzq7DgUNfclK1Eo/SlV4Z0Oo8T6c5X6MeJaiOFA21FIcSuIoaKht5SgOjS2vrCLiyPPdP9xFd0/3eI9ub28jYCNwCCHw+Usu4bwTjrNSvjJMk66kuWCSTob33nwzA2L5bQ8bgb0gMCaC8JE5tWZpXypXNL0YRr8UDQyuu+KrzJw8d8fDKDLC3YNkcjnaAx4ajppK2ZQJlhZAdxIl5MEQS+SubowtG+gzCpS7PPS4oGXCBJRIwnRBNOqqUBfNg844htNACTtRtm6FvG5VkJnpgoIl7SwMWQr9hADs6sAoH5Daqh2rdFEjlG2iqR3KiqOUCOVCnnjsz/z+N7fi9QX43PW38fM7vsmWjrX4PEE+8x/fpb6yAVwuFDmWFAruShSEoYvnQiSJEUtRjGcwHE70RBrV68RRGUKtC6NMb7L2jaWttIekP0R+2TBQxN9i12vZ0w01dNPOutgbJTeQwF1eSSGdxDVNiFGWWJWbu//+J5a8+rLZmRGJDiEiSvawEbAROHwQMGXPr74aTaKt8r0kHVMSIRXl1eFx9fe/z8Zue6Fw+Nz1N+9KxkQQpIvBoSo4VBWXUzOLFUePt592GW8/7VKLqSYzJjmI57P0T6wmWVCYMusonG4XRjSHS1r6/E70tZ3w8DM8pMa4c+ViylweZrdO5uMLz4TuIYyWSShNVSj1AUhlwYhDTl7oJUhIGiJvyQwnMhiNNaYmgxFJoQZ9UMpAmX/nsL3UIlSW7X6lLimB0ZbOwHPP3M8v77kJTXNQXdNEd1c7YX8F/3HJF2g6ap7VFZHWUdS8Jd404pEwAsyIeqTMPWEZRRmmUZSO4nailPtRqsPQUGEWUsrvpMaCrkFoqUeXQs3yMDgKKCMf9t09B3IvpNhTTLR0A6M/TmkohS5OmWIAVeZDa6ww5yhaEulMxqxB6OzaxmOLn+VP//cPu1Dxzft82Ue2EfiXIvDFd7+bc+bPh4qgJUwn3V6iLzPcvSU/rvjud+mORP6l87JPdmgiMDaCMKXCKBk6IVEFVISY7mzJfMyME/jQeR+xag7iabpTcW587XGOPvt0FjZMMYvxSoNJaqvr2TLUQdXcSZQbXqJd27jxsfto39Jhove2mfP5zNzTzfRCqbEe54KjQBH2O4Sp5bz95QusGTIJgSHM+B0noHj9KO1RDLcCrgKKpAsGIzu/+CXVID4PwqxHhqyiI7FhVUPH9kjAn//4Yx558DfmVrKaD3jDfPDtH2da61yMaY2o5SGU3hRGuRPFbO2IWB0Tr4sk6Bj5Av2JGBWKE4eiWoWTEukQHGV7nws9nkbvHEIvGjhPmoEykLE+0wHVxFQxxaF240AoHg8SxZDjCNGRThHp1BBNBOnrDLhRpFZhN/tKBOHBJx/nB3ffSb4wbKx1aD7H9qxtBI54BKSt8Z5Pf5q62mrr+0WikvK5H1WEHUunufw737FdPI/4p2VsAIyJILx7crkR8jjNlWe+WMIrYe9Ro6WyhQ+dfDXpUp5NiQj3bV7JimgvdbW1XHfVNfjTupmL727fxG0//y8CfjeXfPBTpGtquOd3v96+gp09bTpfPflCytZ2oVz5NlQhBqnYbq/EWN4Hhh+jqcFqG5RQmogQVUv7owI9Q7B+046X58hRhBz4fFbo3rRnTlrERv5fUhTlYeLpOF/9ygfIp6wCPpfTzfvO/yjH1M9DqW1CmVCB4hAiopnHkQJBJRpBqd9FQXL4nNFknGt/dDPnzjuOy049G4/LbaZpcoWCadHsDwVJdkdwpRSaJ7ShiDhULAtVPox0gVJnD5rPaUYeXjccKnrATU5T8Hq929Uq05k0r61eTe/gAGeedLKppNbT10dlRQUup3WcYrFozuP39/+Vu37/WzuSMLbPjL2VjcBBiUBbbS23fexjOKVzQRx0xftll/Hqxo185s47D8r525M6+BAYE0G4uK3MqAp6zPdpUgoVJZw+ahQ0F11l08jrJUQvYfRoamjkiksvo9oTJLKlk+994z/xOVUmLzqNF3tT5ktqZDTU1/P5K68m9se/csKHL8fBnnPkxooeSr15tHlzUOpF56CEYSgoYa+pUGgsXoaSl4JIabnczcrbXJ9Llf+wu+PIJCrLWNu5ni996QPUShsmcP657+ft895BsTdm6jM4mqsxNketPSS0359AyQyiTKozr39T9zba6htMLweJPogV83//2vpQTmmcwGlzF1AdLuP+F55hdWc73/rs9WgdUTwFlamLFqC5HRhLtqEcVYMRyVBKxlGrPSQKWbojg0xtatnJZbInMsiNf7ibC845l5bGJvoHB/jD/X9j5bq1ZmvqOSefyvv/7VKuveELzJg8hbedfhbTJ03m/scexuv2cMGZ53D19Z+ld6D/4HtC7RnZCNgIjAmBU2fP5mtXXG5Zxkt91S7fxVKg+K3f/panli8f0/HsjWwExkQQLpoQNqpCblNJMZnJ4x9udRzxFCxqTjaGJr/eiGkYX4k8yInqqypZ+7df4iKPt6yCLcHWne6AFM9dfs4ZvPOoOVRUWupfexrGmj6KaRXHuceiOB0Y2+IY/SnUygCGrL5TaejejNJYsXNKYW/33OvmgRcf4Rf3foewz830iXP46Ae/jjOWo5DL4zzzWMiXUIayIB4UuRKltdvQjIwpRDSYjHP1/36LM44+lvMWnEBfdIjv/uEeYqndq5c5HA5u/NyXcGxNMPmY2QTKQqavhSIFi14Xpb4keiyO1lrG/73wNLf98Td8/tIrOWnW0dtJQiKd5upbv0lfdM95RbfLtZMkssvlojCcVpg2cRJbu7tIptN7Q8f+vY2AjcBBisClJ5/MR997KYp8P5vp3p0dVZdv3swnf/pTW0H1IL1/B+O0xkQQLpwQNsI+J363k2yhaBYraqpCJJWlTER/NCcbwiImtBcDJcPA37UadzFDeTjIpvBkDMnJI7pKChdPmcT7L70UfyC0V6zE9IhZs1BCfoycLi0WKH6nqR5oiNxwRzfKUB9Kfdm43B+F9HzjJzewdetKAj4vX772VqrD1abHQaknQl9bI0PdEaZOPwplSgWqQ6P03Aq0Sj9GVYjb/vEH/vTMY+aHUIiRsHhZxe9pSIj/ix//FDV5NwHdgVYEv+GisqUepa2C5NZ+8v39VMyZiO7S+OvDD3H7L+/mqnMv5G3HLiLo87NtoI+P/fAm4ulDz01xrzfa3sBGwEZgTAicMOsovvGJa60aMfnKiaeszigglknzydtup6Ovb0zHOtAbLXQ5OUktEdBLFA1YrWg8XFJJl3ZEkA/0Oe3j7T8CYyYIXpdGud+NrhsUSjouh0o0nTPrERwuNxtCU8ZkW+zt3YgrHUVSFj2hFlKuIE1+P186eg7TysIoHg/MW7DXl3pp4yBqoNoUIiqu34arZQK0hUTfEV0cHx98DqUmbOkm7K64bw/YdfV1csP3P41b07nyXR/j+LmnWbRHuhHWdBDJZtlQFqIiWE4yk8Q3oRrdo7JsyzqeXfoya7a0j7t9cPZRs/jghe/G6I2baQwvLjNKoVX5TUnqbEClrqGO6spKlix9hS9/99tmJ4nf4zVTBJlclkTGXv3v/8fBPoKNwP4j0Oj3c25zCwVdp2AYONtqiK3bRk6RhX2enDh7uJykEynyUkDodtAXtXQJYvn8Pluzy4KkqqyMiU0NHDdnFsfOnklFMMSGzVv43q9/x8a3wKSpXNO4qpCkXIXK046n+vQTKaGT6+pl6NmXaV+xgUecXlYWbLeT/X/yDvwRxkwQXJpKZdAqrhM9BJ9LM+sRZPh9HtaFpo6JILgi2/DEevC7NZzBMpomLeQzc2dT7h5V11BXD5OmvuHVJrbG8a/uRU9mKRoKrkUnUFi3DseimagiiPTaOpMgmKJIexojK/vhzoNCscA99/2Al1c8S11lI9dfewuuER+GWMqMSgyWe9lWEUJP51A0FbUqyMuda/n1n/+4z0V+gunbzjmXsxaeiBLLUoplzAIj6T7Ilbv41T/vY9u2LprrG+jY2kksmTjwT4J9RBsBG4EDgoCQ9w9Mm86/TZ9qdSxV+K0Op44Bq7tAvFHOngWPrLAKCcv9MKEKlnawMhLh+iWL95kkjL4A+V4Z8aeTiOa/engUhevd0oiWYsJH3svAE8+TWr+ZQHkV6WwC/+RWyhbMRm/v5YEnFvNXxUX+LZjnvxqXQ+l8YyYIklKoCUmhokJKDJdUiV6VCLidaE4H60NTt6cL3ggAZ2IA70AHTk3lvDnzeP8J5+Da1VJZ0g6hEHi84HZDQ9PrIgqb8wb+Df1UtvdbwkKo6IkEmlFCkRbEqS1WL/CeogeiOxBLgLQ+inaCorDktaf4xX0/MlMDn/3wjbTUt+24lGSajevW8wctwtS2SXicLiKxGEtXr2DZiuX7TA5GTiC4zpg+neOPPobaiiqK+QJb+rp5cvFz9PTahkGH0ofKnquNgFN8XBYu5PipEy2RorZqGErBYNISd5PW44k1sLbbkoafWgf9CVNh9vrnn2PFYaBT0Oxy8eFMBFcggG/GROIvr8QbKiMZ6aeqZRIDWzbiDYYJnjIfX1k5r/z5Qe7FTXRU4fpb+SRVhUK4nU62HcFy9GMmCLLIFoKgqSo5eaARmW8Fp5g4obAhNBld3bn9cXc3V0vHCPRtZNGUGXz6nIt2L1U8ekdp3Zt3DKg7tAukU+CXS5cye8pMWld1Edg2hCJtPapCPuRja7WXoXyW41qn7kEKGegfIjsQYXmkh6qGesKaxvf+dBMD8X4mT5jJJz/wDUsQaoTRRpOsXb+Oa5/7izk7eaG/WazcrF3AMNM59rARsBE4NBGQ74//OfEkpjTVW6RgVjNs7LX0CcR7ZU4zdEehN2Z+zyinzsB4YhXpQpGrHnuUVPHQ1iaZphi8N58g2NwMIY8pBV/IpCnmc2a9mi8UJh2PEqqpR2muIjCtjY2/+yd3O/30iBDdWzDknrXW1nLpokVIV0gik+HaH/2ISOLIjNqOmSDIvarwu/C4HKaed7Fo4BYdAPNVprAxNJGi+npb5F3vsZZLcZIjz9cvfO/Ybn9lNUyfudO2qUKRy759I2Xl5Zx31tk01zXgUlTSuSyrN23gocceJag5+dq5lzC1os5ymBzdziiCQlt6eaR9Nd9e9jiaonK8o8hA/1pUVeNTV32TSc3TLCWyoaS5r5HPs3qoj489/7exzdveykbARsBGAPjpxRfQIAUIUjl48nR4bt2wsJkBx0+C59Zbku9+N8xqgpc388tVq/jthvWHNH61qsLHjCz+sgpoKCe5fK1Zr5YfrpeSv8siq1TIE65tRBOSMGMSHb+4jx+7Q/T/ixdIEi14z8knc+VZZ+20sPzpAw/w2yefPKTvxb5OflwEwe9yEPa7zJsqzo6+YcEkIQibQxPJa7s4Ou5mVjVOlZ+esoiQ1ze2ObdNslIMo0bBV86PH/g7f3vgn5ZnwSj1wtGr+npfkP894QL8oRAB6W5oqkGROacy6Nv6uWXF0zywdR2qXqItsQmnUSTvCvDBd3+BE+pbUbb105WM80jXBopGiSe72+lM7164aWwXY29lI2AjcKQh4NE07jrrbEKawxRWU86dg3H/q1ZdgpCCujJY0WnBMrMRtgyK4AxffH4x66JRU1/mUBzSmfZlsqhmxAAzvZCJR/EEQqiaSjoWJVBRbaYcRobUJBRiSYrdEb6bh8i/qCahzO/npquuYmpj4+ugXtnRwcdvv/1NixgfzPd2XATBqSlm94GMTL6I26GRzBUIeF10BtvIOixhoTca1x89h7MbG/a22Y7fS7jd7YGqaqitN2sSsq4aVvRs5uaf/ZjByJ7tioWzex1OAg43l0+ax2uxXt4/5RiaPUF60wmuefbPpLJJfP3tlCs504iq21tPwV/DLQvPp8Yb4IaXHmRNfGDs87W3tBGwEbARGEZg9syJXPne8wmg0OwbVjgUxVaRZx9MWCZzLZWwptuSR/d7UGY0YDy+EhI5Uz7dXGUPpxw//uzTbE3uXlPlYATdpyh8kixh6bYSufmmViJbN5tTrZ4wmcFtm/GZdQnWd6wnGKL+AxcR/+dzdG7u4Aeaj8ybTBIm1NRw81VXUVNWtlsI4+k07ztC5anHRRDkma4JeVFVkQkWVmvgkEp+VWVL8Tk65AAAIABJREFUoIWMw/+Gz+jEYJAfLToe9+iiRFn9h8pAhIT2lnOTvP/k+fTGHAy489z11D9YunJsqmBSzyvOk83+MiYGy1kfH6QrFcPbvQ5nLonXqREI+dkcaKOkOvA7XKbeg5hOvTXZsIPx427PyUbARmC8CMj3yPdOPZXW8jJL4l2EjMp8ZlGiOaQ2YU2XJSMT8qHMbcZ4sd2qTZDahVHj16UoMXQcDs387hWhNU1TcbssTxjRQJA/0mHlcjrM72qRVk+mMmYhdSqdpVAoksnkTP8V62eRXK5ANpenkC+Qlv/LF8hkrd/JNvszvKrKiUqJc8IhMn1dZhrXFy7fKXLgCYbJJmJoThc6OpOvu4oNt97JhrJqfpHM7s/p33Dfk2bO5NPvehflgWFr7N1sLQTt3d/+NoNHYB3CuAiCyfqCbqswUTfIFYt4pY0H2OpvIukUyeM9jw9MncyVU0Vx0azyg7JyaGqBYAhyOdi6Bfp6XicRuv2I0t0w9Vx0XHT3b+SOtc/y1JLF23/tcTpxO4Z9Bko62WLerJfY01DzWfzbVpnUIehxoIer6faNI7rxpj229oFtBGwEDhcEPjlnLmdNmGBdjqyyTpkBT6+xogei01IVhNVdINHZkAcCXkqrt/HbdWvNxYnX4cDncJg/f7Z6FUPyXTnO4XI5ze9tp9OB/F1IhcftMgmGWzrRhv8t6Vqf12OSDfkpBMMrnV7D0vRmSldVTOdY2Ud+mmZ1w0P213XdLPA2FPmaV03eI39KW3qZ9NxiHHoJQ9dxerzopRJuf4B8OmX+n6JplPJ585hCFqT+61eGk1VysAM46n1eLpgzh4vf/g7E5Gpv4/Ij1AFz3AQh5HUQ8Fh1CJJmEKEkeSi6vXXE3OV7xDmvlPj6/KM5q7EJQmFobIFweGftBHmZr14O0WGfg12PVl5Dae5Z8NiL6P3d3JTewOMrl5pbhb0+mkIV1Lp8eFSNnF5iSyrK+sielMMM3JFtuGO95sNfGfAwEG4i5gojj/Sb2aWwt4fR/r2NgI3A4YHAyXUNfP6YY1AkTC56B7Vh2BqxnFdFr2XRVFiyyXJcdDtQjp+MsaGH2x9+hr9v2nR4gADM1uAyB+iZFOGaeuL9PZRG2hkVBZfbQ7FYMEmC/JEhUYbE0CD3uQKsUPb+Eh8LWA5F4eT6Oj45eyZBMa1rnQiNzW+4qx1BuPcN8VFEanlkC1MwSViuYZDNF82uBnmZDrirGPBW7/ZAugT3nSW+ueBUTjllEcoecj16dxfqpj1U7jqcGGdcCKoPbr3bZNn/l+3le+tfNFsvJ1fW8vnWY2jwBLGaBKEnn+YTrz5AzjDIFwvkS0UzzVAUJTO9SPmW1ahGCYeqUBHysqFqIhX1TcyfNouGilq29nSzdMVrDEWjR2SBylg+cPY2NgI2ArtHoMLt4c7TTsclK3CxlRdr9kk18FK7tYMUJEZS0B+3uhhOmGKKKa3p6ePz/3jwgIglHQz3pqZU4CNGlnB5pdnBIH9qJk2nb+Mas3sh1rsN1eHA6fKgOZ3kMxJNMEjGYzyqungpWHFALkO0KT48bQqXTGzdUdgukez5x4Io+O5hpHM53nPTTSSzb16q44Bc4JtwkHFHECTQU1PmNb0TRgoVJQwVc4bo9r++AlTmLNKaX5i2gGMaWqg65Wg0aTvcZUSGBkkvWUxT8PVpCkOH4pYS2rELUEIBlAefgzI//ZT4n80vEy3leVtlKxfUTNypoyFezPPVDc+Znz2fovFi72aSSg6f5qAsk0Tv3GCGvsp8LrzhMk455T3MSjtx1dRSnNCCz+MnEYI/PvUgzyzekcp4E+6DfUgbARuBwwgB6Vz49bnnmXUAplibRAgWtMHzG6yrlC+eE6bC88MtjiKklMxSGEhw+YMPkD5IxIL295bIYu3KjlV4SiWqG5oQQz5pbxQthJEorfz0BstIx4dMwjCwZRODfT0sr2rg2VDl/k7B3F/eVzfMn8up9XWvP57LDYEgyMI1XA6+nTvsxL/i6u9/f9wS+gdk4m/xQcZNEGS+1UEPToclmCSrdymWSTt8bAkM59l2uShZtd8y52TqPQE2RDsptFVx5mnn7bTVQG8v7lXLCQ7XNGz/ZVbH2JCFdAmcGkrAB+J37nFjKIqZSsiWigQdLnMuo4eYJHVmE1Q5PabWwfte/iPzgtVcVj+V25/+PZsGOs2UYHXIw0ktCzmuei7ZeIoJH7qM0ISJsDVJqlIh71H49h0/4JVlVjpjd0MecnFIzO1DfvAtfgbs09sI2AgcYAS+PH8BJ9SNehmJKFJXFAaGCxNPmwFSiCiic07NFE3Sn1vPdc88RcdhVAxXaZS4ZNNKixMpCuU1tXj9AYxSiWBVDYnBAYKV1cT6ukknE6STSYqFPJ1VdTwQrpFY734P4WLfPX4hR1dV7s1OEJonQMvOLsNPvvYa3/jNb/Z7HofiAfaJIJR5nfg8TvLFkqk/5HZq5FUnm0zL552HRA+yaoGbp5/MZH85f1z6N5Z1rae6sobmiTM5/eSzaWpsJugPogprzuXQt25F64tDSoF4yWr/kSHkwe+1fo7DgElySNF8gv5cApeq0TnYxa2P/xLd0AnLtbgcXDr9HTT4G5j49otxTK0xXRrRpMVSI90b4YWVL3PHX39HXzxGSUIaw6O1ZQLvPOc8moKVaCWRVi+yJTHAXx5+gK7urkPxmbDnbCNgI7CfCEhRoYS0R/wQHFK3lSuYxXvyx1MeRIlnzCJAp89DKV+gmC/SnrBMmw6XcVxikHl923a6HFXT0DTpsFDNAkVpfywWCtvTuB2VdTxUdmDIganFcPRcTm2o2zs5kFnOmgvhndsdb/3LX/j7kiWHyy0Z13XsE0EQZ8cyv5tiSadU0s06hKKisTE8xVRVHD0kxfP+1mmcXNFEMhPnriW/IVfME0lmyYvvpyg0hsr53PkfojJUYRao+PMaAc2qczCLeUYUteSFLX/Gdqu3T0PON5iLmgWRQgp+8cI/WLJ5uXkoiYZUesu5dMrbIKMz8d2XEjpqEkZP0mpHcmrkVrVTXLeCF1P9PNjXzgs9Heaxp0+dygfedRnuWIGQx0eVmExtSzDkyNDvyfPjX99De4fV82sPGwEbARuBIw2B41JR5vVsGfNlr6qs5+my3deyjfkgozY8v7mJz86dNbY3hsj5LzweRnU15AoFrvn+9+kcODK1cPaJIIwIJpWGrZ+lk6GEyoawGDa9niB866gTmOAL89Dqx3lk7Qu4HSqDSSsHJeO41jm8/9i3oyqq2UFQ7S1HU3Z4L+wkkzzOp6RYKtKfi5rFiTI2D27jfx/7BUW9RNhnRQ/eNu1MJnua8UxqY8KVl6AaCkanEArDLCIqbetH27gGxe8mqhhc+8LfGShk+Oy111Ff8lCtB/DXlhNqrYXeFHqNtO8YPPTCk9x6123bWy3Ndh9FNUmKPWwEbARsBA53BAKGwfvaV1hdHG8wSqrGK9UNvBLYcyfceLGSVsZ7TjvZ1LMZ85BahMoqK4rg9fHc+vV85Re/OGKL1PeJIGgimBT2mloI4mcuBME0bApPRRetguEh3Qt5tcCXphzHdG+I2569l47BQatmIVccDr8pfPbMK2mrsuSU/ZqHkCuwdxOnMdxx0UCI5uPkdEtspKSXuO2ZP7CiawMuh0ZV0I1D1fjoCf+OM6fir6mj4czTyG/pxan7KVW50OrKyTy5FJ9qoGTiDGlwzVN/pKyxnv+85ApK7YO0BuuonCjtm04MQ0HxOIh19rJpcCvf/fPd9PRKKyVUB0IE3B56E1GzQlnwK5REI82WYhrD7bQ3sRGwETjEEJBF0TsGttEQ27PibdLl5sm6VrY69y7VP57Lv3r6VN47eeLOu0h0QPQVspk96+0M72FI18Ozz9M+GBnPaQ+rbfeZIFQPE4TCTgRhCvqolX9J0VlQUc3H2+bzyJonealzKYWibkYPRl6JbRWNfOL0y3E5nEj8oNpThjbKuXFf0RaxjnghSbpkiYrIC/nRNc/zl+WPmw9GecCFx+lgUmUr7553AaVsiZqsgjueJZnK4n/HBRTLnLhPmI7Sn8HwiwKag3Xr1vDJ7/0XC485hkuPO5Pi5kEmHjeHUH019KcgnkPRHJTiWdqzPfzoiT+xbOUKvC43sysbuKJhOk8ObWVzJmESg65kjJ7EHnQf9vXi7f1sBGwEbAQOIgTOjPXTFulFGyVcV1Q11lfV8Uyw8oAUI46+XJ9D4+7TTqZqpH1Roggi1y/F56J/IBL9G9bCG3SLbE4kuPqp5xD34CN1jJsgSMGfFCVWBtwUdWsVLP+2HB0nUVQtJUMZAYeTm2cvgmKe25+7l1wxRzJbIJG1ig4lxfCZM65kYlWTGcIJOHyEXP79jh7IsRKFFMlC2qw7kH8/svZ5/rb8SSTlIGmFMr+Lan8FVx57GV6nB4/qpKLkxugfItU7APPmETz9ZIzmABR1CLgp9UXpWLaMHyx7HIfLwTWnvgN3skTzCfNRpI1pKItS7cfIFel8aRVRT4EfP/gHNm5u57jps/hosI0mpw+5en04E7M1l+RjL/3T7MSwh42AjYCNwOGKgNMwaNAL1OWzrHb7SSkqpV1S0gfq2ht8Pu45bZHV2VZTZwkiCTEYPQoFeGkJ7MEM6wtLXuLF/iOz9mAEpnESBMMsTpQaAgFehJJMPXCzcBCTIBRGWT47FJXrphzNynVPsCW6FalZGIhnGLH6nlTVxMdPuxynVLSiUOUuwyGOZ/sxhAwIMUgU0+ZRkrk0v3rxfjOtIN0HZltj0MOEikbeffSF+FxeU1Wp0hPGjQaRGIXeQYpnHY/37JMwMgXoiKFU+DAGUxTWruGHydUsX7mcr5/5LqrW9xKvqmRAV5gxbz5pTxF/Sw0dS1fTbcS575lHuejUM2kdzNO4qQ9iKVPLwVRzcjnJOTXe9+TvGMpn9uOq7V1tBGwEbARsBLYvTl0uvvO285k+d55p8GdK+48epmrvCogO7Ra0VUNRPr34BfJvINV/JKA9boJQG/aa5MCUWs4V8Yo86DD4m4K7Wj4bNJdSBBJbzcK8VK5IXORFRRjD6eHzZ32A2mEhjKDDR8Dp26/ogcwpVcwQL6TMezeQHOLu5/9m1gKYQ1ILfjdhn5fLj7mYxrJ68799mpuwK2gV0iRSkM5ifP5D1j6xHIpLA/GfeHUdpeWruNszyJrVq7mhdSFl6SJRj5PeYBDVHyAXi1Pn0sg0lrFGT9BUXo17KEvTuq24rrgQNvajiB+6nkHv6udP65dy+9olh41q2pHwobGv0UbARuDgRkDeSR865xzed9ppu53ouo0bmdoz/F7YZYsNsTiffv5FkhJhOMLHuAiCcLCqkAenplIolszcjOTxR0Z7sI2ctCcOD2cmRmu2CylqlFTEQCJrpiWEYFw672xOnnyMSQhExEiiB/tTe2CSg0Ka+HDkYDAZ5WeL72NzxNIikN+HvE7T0nl+02zOn3mm2TUhLo9S9+BQHVbRSjYH0QRGYx2lZAb16GOgyo8iSmfPLYMlS+kKu3G4XNQYDhQpMswVKBSL9LTV405lqMoWSJb7iQ8MUpUHY9I0PE31qDPrIZaHkMs0ask8+DSfWfxXtkUGTCloMb+yh42AjYCNgI3A/iMgrpZnzJvHFaedRkNlpak/MfIueOTZZzlLKe3U/pgrlXh4axc/XbOWpAhY2YNxEQTBa8TNMZMr4HJqO6kXbg60knV4TVi1TAJf/wYagm6TBCQy+e21Bye0zeWKhW/fHi0ocwbwOa399mVIAWK6mCGWT5rHzORz3Pncn1jdO6x5Lo5oTtFucFHuK+OqYy/D77asqcNOP37niLSmYUmiJtMQT6GnMlBfj97di1pTboqaIDLR5SG45Ax4ebVFKuqr4PkVGNXlMLMVRf69dB08+apZ02BU1aC+8xyMah90J6E+CNsG0f/+IP8XzPJqZzvpUpFlfVvJ7s3yel8AsvexEbARsBE4QhGQd8Jpc+Zw+uzZtNXVEfb7zfdWYqAfXzbL0KYNrI1E+P3GdjbEh5Uuj1Csdr3scRMEKU50OVTS4uTodFAU207NUgwbIQhaJoa7dyM+TVwSrXbI/njWrFSVgsSPn/o+s2tBhlNxmPl/Wc3vy5BuBak3kLoDmYO0Mv76pf9jcfuy7YfzOFTKA24zQnHZ0RcyqcqS0nQqGlWe8p3TGvLCFxVFl4aRLYDmwBCJ574IikRLRMnxwlOgumxHm4wwUxFzsoQOLJLxxCuwdC1GJI7xwYtQWxowknmIZlCkWGYgBevXY/R0gsuFUR3mASXGD//6e7K2XPO+PAr2PjYCNgI2AntFIOT3UxmwWukHEwliKSslbY/XIzBuglARdOPWVDL5klmsOJTOUeF3m7KZQhBKmSSu/s0oGFQFPLidDiKJHJlCkZAnwBfP+SAV/vD2mdS4y/demCgvXqlGFf/0UcUmQg5EQjlT2mH88Yi0Mr72+HZtAY9To9zvMh+Gc6efzoLmudv1F6r3VBR5/FEwe5J1PvkjL/8HnoeBKAhJeN/ZpheEOfZUhSvFLU+8ivHKWozL32nJQw9mUCt9pq2r/sRLKM+/gtJYAyfOgdkTTQL1gc9+gqFYlFTaKrK0h42AjYCNgI2AjcBbgcC4CYKIC0nEIFsoIYqKiWyBMp+VRujJGBSzKXNlLb+rDvrMtEL3UMp8z375/H9nVsMOx8WQw2eG90eKHPcEQFZTeKJ3M6eWN+Id7nIQJcShXJyCiCANSyg/s+FV/rj0YVMlUebgczsI+yznyONbF3D65JOQvJSMkKQWHN7dn9vrgjlTwOeBxirweuCJl2H9cFFLyGdFEiTVsGjO7kmCRCLSOfTOQQr9cdOlzV1Ti7K1E/XYqSgrNqFs6rBSFfWVJgEy6yjSabOg86v/8x3zZ2fXNmKHkXnLW/GQ2+e0EbARsBGwERg/AmMiCBe0hIyRAo+akAdNVUyCIKkGa3FvpQcGE2kyhZK1sDaVC6WrL4/8z78fdz5vn3XC9m1dipMKT2hMqYUnI1u5ccVTXDV5PpfVTyOvF4jmEqaNtAwp8Pu/Vc/w0OrFVuRANBU8DoJel3m+oxtnc/a0U812Shle1UWZO7RXYmJuLCShqRo6eiC3S1WrRAUuO8vybBAtDalRGB1RKOkY8Qx6X5RSJImydjPaq6tQhFC11sFFp0Ht7r3OC4UCToeTzp4uPn/jN+kd6B//3bX3sBGwEbARsBGwEdhHBMZEEM6q8xt+s50RhCDIij9fKJkdCWLcNGKz3B/LkC7kzbo9SUGMmDE5AiG++I6PMDdk5e1FH6FyHF0Lf+3ZwE83vszFE47ispqJxIup7UqM3bF+/rz0UVb2bNwOQdDjMLsVpDPh2AlHc9rkE7d3SDhVBxWu8OusofcRP2iptSxb5aKPngrNtRZJkH9v7RN7Rwyxp+6LYjz2IspQDEUiElLHMKnxddEHiSIMRAaJJxMoqkomk+V/7vgJm7d27vMU7R1tBBwOB16PdwchH2kLHxGJG/53sVgkk80g6Tt72AjYCBzZCIyJIJxe4zOkRVAWyKKDIC+xfFE3FRRHpwcGk1l6htKmINLI947mdOCcPBefL8xnps5nRrCCMmcQt8MK/e9xyAtWVuiGwV+2reWn617im7NPpsFl7ZfOZ3mxY6UZOYhnk8OHMSjzuUxvCBFAWtR2HAtb5m2PWmioVLhDOLVdFLUO1DPgdcPFp4PfY9Ut/P0Z2NZvFjyanRHynetyWG5hR02EeVMg4B1OkViRj3Q2w3/e8EW6+iz/Bvk/8ZSwh43AviIgn9G2qmbm5Bsoz3pADMMUg5IKqg4OQzXVPRWHwibXICsKmxlK7F5AZl/nYO9nI2AjcOghMC6CIN7aNWGP+fKXCILYPI8eyUyejX072kQkvO9taqNYbgkSvaNpGtdOPw53CdS96VsbBq+mB9mcivHqYBfP9m3mjNpm3t84jfbBLu5b9igdke7txYhCXirMDguNcm+Y82ecSVtly3YCIwskiVq43ixyMAJEXaVV4CiE4LnlVmFjbSVGKAg5UGIRTGEImbDPDRedCiE/r61exaoN67jonPN5fPEzfPf2Hx96T5M947ccAUlL+Tw+s+d7JJAlBGFu+TROWllNSyyEbqhouoh5SueNjq4qFISIqiWWNw3xTEMHXbFes61XPqYGuqnzYUcW3vLba0/ARuBfisC4CMKIzbPMUGoQZKU+esj/re8Wp0Ircu6vqqFQP2V7GF2+tJp8YU6qbubDE6xuAvMbSMau3QCGwc0blvDgtvUmCcgqBRocDqbEoqzt27yT/aZDtciBODNOqW7j7UedQ8A9om0gq3Co8oRxaXuJWhwo6OWa8kWIJzEkUnLy0ShzpkFnAso1YUfwz6esmoaaMnon13Hjfb9ixdo1zJkxE71UYvnaNQdqNvZxjhAE5PM0saqFo1J1lJW8aOIYahQQK91GTy3zXW34dDdFDZy6gqYrGNKhq0ptjYaahV4tyZLcBpK61UWjGqqpMNoTjPOq0U7f0JGtTX+EPEr2ZdoImAiMiyCI2JDoCZgyy3nL9Gj0i71U0lndFTVD4oFwGYXmGaaOwK6j0Rfi3mMvtKSNxUzJ5TQVCc2qxpGhafxgw4vc17ESXS/iGOrEn4iiGDu2MQ2ePE6k5sDlcHHhrPNMgrCrn4OoNL7pkYPRFykpgUQKI5qEM89GmVpvuUGK/oFThfYuePBplHAAXVG4ddUz/LNzrW36bH8o9xkBidZ5PB6Oq5nLGctqKE97KFLCLcqlBjjDIZrnTqfgLFHUipZZmDivmiSiiIIDb9FDKVFg60vLzRRZ2mmYDqv+osKauhgPTNrE2u4NSAGtfPbsYSNgI3B4IzAuguBziRrhDoIgGgMjHQwCkwgire4awukPYjRNxXDukF0eDaNL1fjkzJM4u3GyadL0m/bXGMimuHrCXLyqhu5yMljI8tkX/0l3bzvuoS60omXbLEO+nFyaSsjnxO1wMK12EmdNPcVUSRw9RHypwhncQQ7eJOew1z0iQnZEIGkojnHBGajzZ5pGTyQLKH4XpW2DdA528Gr7SpZ2bGRx3xaKo4jP4f3I2Vf3ZiDQUtNIa6acudpkTjQmUww6cM6qQ0vlKK4ZwFN04q6swNCkwyhPQXIMioGzZGBIm7AijqwaSr5EsXeQQkCB2XWglCgt7SORL/F08TXWGp1sdgzRF7UjCW/GfbSPaSNwMCEwJoJwWo3PCIuPgdtBaFhXQKIEklIQkjDSxSAv7va8m0JlsxVaf4Mh/gsSSXBrGpuTUVOR8T+nH8e7WmayNNrL1156kFLPehypIVN0aWRI6j7ocZrdE0IIzpiyiOm1k1/n4yAqiWWKF2dB5JOLplohbqcluPRmEwUhCIMxS3r5qosw+zwHMyhhF0a2RHHLIB2FAW7++y/Y2L7pYHoe7LkcgghIamFB02zmveqjKdDE1GNmEWuBilMn4kzpJB7dQDjqoGS4UA0HDsWg4CigGEWcoj2mO01flaJ8uDRxai0RqTDwnj0FQ80x9OhqglsdrHriebaEh3hxYoS1PTtkzA9ByOwp2wjYCIwBgTERhFOrvYZ0B0ir44jwkBUxsEiC1CLIl5S8xjsCE8g6RuX/xzCJkU3CLg/nNU7h6S0riXUsR8tnLUGFYYkBOb+IH3kcLuY0zGTRxOMIegI7nUE29youQkUNNZWFE+Zi9MVQwlWwaR2ICNJIkcQ45jauTYdTDJIyMRbMoTgYwzF9FkZbGEVEptZ00KWk+PTt/0PCFkEaF7T2xq9HQD57xzbO4fiXfJS3tTL3Q+cxEE6hNXgIdBvkHmknmJQIgYNioUgul6GgltBLOnkMSkUdh64Qcvnw+/yUNJ1IjYL3nKlkfXn0rkHKNyss+9HDdDojLJnez+qu9fatsBGwETjMERg7QfA6zbZGKQYcaW2UiEGuUMKhqeYfIQhb/U2knMF9hk1Mnrx9G1FFDXFYcEmiFNJmKSqItcFqUzK5qaz+dUJH0sYYcvrw5A2UTAGjsgouOBECIZRIBioc0DsEDz8Loqj4ZkUSzCLFAsSSpuFTxuGgeOyxpNNx9KkNJAoZnt+2hnv/8Lt9xsne0UZAENA0DbfLzfy6mcxZAuE5k5j96XeRCekoeYPqbQ7ij23Al9VRdINsNoU4neouFYfXS0zPY+Tz+Esq1Q4/IV+QnKqTqtIInTmNSFmeorNEoKPIK9f/iaSS5qW5UZZ3ryOfz9t6CfZjaCNwGCMwJoJwcqXHED8DaXsSqeVhsUKcDkseOJ0rEpCVOdDtqyfm2rkWYKz4aZk4vt5NKIZFDiTiKZELISZOh5tFbQs4YcIC80vRtGqW3OmwRoBHcxFyBlB1HSWSwDzE+eehTKq0OgrKvRhFA554AWXtRgj43jyCYIVXTJIgBV1rjmqjkC9I+zlqRZDNuQh3/PIe0pnMWKGxt7MR2C0C9Q31pIbSTM1WM39riMoFU5n16XeQMXLkXuunashDaVvMLDR06BAtpNiWjlA3bQIuv5vOLVvIDWWoLLipdgbx+AMUHAY5bwmjKUCkTMc3uxFXpMCLn/8l2WScp5t72OIbwul0EhmM2HfGRsBG4DBFYEwE4aQKj1Hhd5oFiaOrl6UWQLoIsoXi9jRDj7eWqHv38sFvhKGaS+PrXY8q9QKAQ1WoCLjMqEEJlXDzfL4452zcLg9OzYXDdINUiCciBFTLqdHMRoiqYf+QWTCpXHMpSk05+ivdKFV+yJdgay+8+gKK+Ci8UQRh5Hfi7FgsWts21UBVGSxb/zrjqNdd23CVt1hR90yrp7smSCKd5IkXFrP4hSUmcbCHjcD+ICAEuWlCMy8/toTZ8TouKV9I2cKpLPjcv1FMJIk+tIbalB9NV5HnsCgBtHSUwUKCSdMm0dnRbhJZzeVFHcrR4K3E7/KZn/GSViTrLJAOK9SdMYdiPMMzX/ui0WG8AAAgAElEQVQVAwN93J16hm21CRYsWMDWLcP+JPtzIfa+NgI2AgclAmMiCCdWeAyvU0W6GEZ3LcgVSWTBoarmal/TVPo91Qx6qsZ1sWo+Y6YVtILVqeBxqmatgxQ/Shtgl7eBqooJfH3eWayO9ZEu5nmoaz2RXIZTaibwH23zTXKgu12mL4N7ax/KCfPgtGMxckWUoSxUejGiGYwnX0bt7bLUDkdIwG60GHJOB53pGNFSDoo6809fhDpvqrVPJA4r2612xWzeutY96TkAKb3IF9c8xbqhPpsYjOvJsDd+IwSEILS2NvPkw88yN9vMFcHjqZrQzFHvXmSSWqM9iSczXJSrKBQVnWg6zmA6iqvMR9rIEqqqwOX0EtncTb23Cr8m+gmKGcUzVJ2Ms4B7YhW5dI7l9zxKTzbCHbHH6K1JsWDhMWzr3GbfJBsBG4HDFIExEwTJK8iqXroZRkiCrDTkRS7EQbwX/B4n/e4qBr3VY4ZLyybx9G/e3sYo5EDcIU0VN6DPU8uQpxwFBY/mJGtGGHZIOZ9Q3cLX55xuph1+u/k1+uvDXK3U4U0XKTXUMKir1EyfiT61DNGDMW7/LYXGKpR0FlcmZ8k5Ox0YmoYy4qmgqmxsCaNPbMAfCPDo00/SiIvTL74QZdgN0ix0TGXgtQ2wYpMpn2xIekM6GHYTmdiUjvGfL/2TnG5FSOxhI7C/CJgSym0TeOyRp5mRbeIjvpNoLWug9aSZZppA1T0ouoIiwlyGYepzRYcGSRfSpF06wbZanEEfqfYe9HiOuvI6nLhwSC+kpMhUS10x7yhRSBXY+MQyNhf7uDP5BL0VSY499hg6O+0Iwv7eR3t/G4GDFYFxEATrEkIeh1kTMDJGjJHi6Txhv5tBdwX93tq9Xq9SzOOM9+NO9KMMFySKEJMQDiEHMgbclSbZMEZaGXZzVGmXPLa6icmhSn6zaRm+QIAbLn4/rX1Z4rkCMc1NyB8iQ4GmiY0oA0PEa8K4oymqN/SgZNNkw17uXPcik90hzq2bhOFxwXvPQhXPBIkApFPcetuPmTlxCv920UU7z6JUwnjmNTa8tpL7O9dwTes8fLsRhyq5nFz+1O/p2+4bsVeI7A1sBN4QAYsgtPLEw08xJ9PMh3yLaC1rYuKJs8xOBEV3m5E9XSmRN0qmLlIkEiFXzFHUShTcCroKvoyOw3BQEa7Co3lQDBVd6LlqYBiS4AMjWWT5Uy+xSennzvjj9FWmWGgSBNtEzH5MbQQOVwTGTRCEEEhXgQyJIAS9TkJeF7F0jrBv7wRBKRVxpCK4o90oxeL2xbbboVLmt9IKEjmIOcP0+uowpLJvnGPalKm876KLKTNclKJpjEyeyqpKvC4P2UQaZ9hPzaQJKB0xFDVDttLPbff/kZeee5avzDmDjakhmt91NrOmTd/eKSFeCbfeeTv/+5VvUF5WZl77iFT0muUr+Mb3bqE3k+SK1jl8YMIcUwt/9LivdwM/WbPEFkQa5720N98zAqa0clsbTz/4JLNyTVzpP5mmyhYmHzcbTSnhLDrMdIEuxugqFIfNwAqlPIZqmJIgEg10ST2PKvoITlyGilEyKDkVCkoJTVNwSMFvQmfZ00vYqPT8//bOA8yuus77n1PuuXXund5LMhNCegIZCChBisCqCAqIuMISLIC4ovta1vXdx/Xd1V3f51nXhqy6C7gvWFDcfbaoqPRmaAGSQArpZWqm35lbTnuf3/9MCAkSJoHJTDLnzxPuJHPK//89597zvb/y/XLb8IN0V47RvqKd3btCghDeoyECJyoCR0QQ5JFXlowcsEr2ffVQT0QjiFFTMmbRH/tjEQRfkQFTcp+DXehO8aAovKgilqUOkIORSJqORP2b6jLIpNOc945zmNMyi6QVZ05NI/0bdjI7VU+ipQqtNApFD1IR8n1ZXtzzMl+77buMDA+rgi6p0D7z1HZWnn4GZ59+BvlCgRu+9HmVyvjgxZey5sV1nNzaxsrTVnDPb/6H/7j31+oeSZgR7jjtEqpiyUCUSVIOvs8Pd63lZ9vXnqj3UbiuKUBACELb7Nk8/NuHWVhs4OrU2bSUtTDvdCEINpqnoxVgpHsAveiI24KSV3Z0H0/zlFmTCCqKiKdraEpW2bQDhcVCDNINlfii06zpOKMeax/5Azu0Tm4beojOyhzLzziNPbt2TcHKw1OGCIQIHAsEjoggRKQGIRFYJcuHk4QvK0tiSgNhOFek5I8QBM8uUNi5hbSXJR55rS+DaWhUpqTmIIgUDEdSdCQa3xQ5OBS4ZUuWsOr8Sym83EN9TR31p86DgTH87lH0ljIKu/vZku/kB4/8J+s3vPQa3D90yfupqaziuz+6DXc8HXK4i/Pp+W/jvS3zWdvfRU0sRW00we+7t/H1tQ8fi2sanmOGIKCKFOfM5uF7H2JZroFrk2fTXBoQBEwbRxwdh312P7uZSN4h5pvYnkQHhBr4RDwxbRKhT42ikmD2MT0PG5di2mDW8gX4lqQhdJwxl/WPPMEeOrl98EH2VhU4NSQIM+ROC5c5UxGYMEGQ6EFpQsSKdFJRQ7U1ShhdOhekpXAkX1QpBqkb2BevxhdisGcb9sA+SqKG0kk4NOwuYXoxfBJ/B4nID1il9MRrjiqtcLgLuPyUU7nmHe8hMlhg7jtOQ+oWGCzgR3Uo+hT2DrAr38M/P3APL6xf/5pDvVoYaiI3SkQ3FDHoEtEnM8JlLQv5zd5N9ORGJ7J7uE2IwIQQkPuypa2FR373EMtHZnF1ydnUVdawcMVi9KLG0I4+upx+7t/0BKN+noLh4pmBg6oULOqeRA3A8F1cXWoVUK++r1Olp3nXyWdT6pVQ2VxHzsnxwqNPsJdublMEIT9OEMIUw4QuVrhRiMBxiMCECULM1EnFTNXSWJWJHfSwF6Ek6T6QKEBPtJKenE9+73Ysz1YKiNYhkQOxZxahI4keiI6Cbuj0RSvpj1W85eRArkltTQ1/ed1N6F0j1Dc2UuwboaqsGn12KfIRueWJNWRLDf7xp/9KZ1fXcXgZwynPRARUkWLrLB6+74GAIKTOobG8jkXtiyhmi+xa9zLPWtu5ffOv6DfyjEaECDhE5K4Xn2c0FT2Q+gRFGPyAJFi2wclOBdef9F6aCxXMXbaUUcPluUf/wF69hzsG7qejckylGMIixZl454VrnikITIggiFCSpBYiKnpwwLBJQJLogVg/S4ujjD1Zl87eQWKG1CscSB3Ix1EgyQxR01CFjkoJUTNU1GA4mjlst8KbuSBCXL7wqc9QRwK7YwC3f4zG+iYGhvopXTSLwZFBnu3Zzv+752e4UjMQjhCB4wABVaQ4q5VH7ruPxbl6rk2dT7NZS2NjA/v8Ef775UdYn9jL04MbGdELFC1xbpSOBSkzkISCvP8kZCB/ggWb4pTqGJS7Sc4oXUjbWDmXLj2f2KjJrq072Brt5baR++iuzLL89PaQIBwH90k4xRCBo0VgQgTh7Eoxa4qoB3pFSqSPD9QSFG1XtSXKw1/Grt4s3cM5ZceckQJGKzBYCmr6feUaZ5mGOkbBiNIVryNvxo92/hPeTxZ6/YeuUZ0NTl8WL1tQxVhmRQm9RpF/+fld9Pb2Tvh44YYhAlONQCCU1MrjD9zPgnwNV8fPo8WuIB2LsTHayzd2/Re74gN4hktBc/BMH0PqElyhBhquMlgLuhRUamHc/lkkmYu6SdSNMSeb4TML3kfrQIb8QJ6NiT5+WHiI7oohlrcvZ8+eUAdhqu+D8PwhApOFwIQIwvk1CV9SAfKUr0nHDrJ3FrMm0UXYn6ffTxCEDAg5mFefUamHkbytIhASOXB0U/k1iOLi0bQxHi0YVZWVvPuCC5ld20hUM8kV82zeu5Nf3/97hoeHj/aw4X6TiEAZsCgRoyI/qtJaWXQ2aAZ9rsfYfvXKSTz/dD90bV0d/T09zLFrOLdzNvG8QQf9bEn08+99qxmKFgJlRCPwLdGl/kBVHkj0QNQVJXTgqWLFIIzgqnqgoqHheyZ1uTiX1J9B22A5s50KutJ5flu7lb2RflLpFAP9A9MdonB+IQIhAkeJwIQIwnsaS3yJEMgHdE0mpk4lkQD5NpIrOMRjktUMhhCErqExoqZEG2I0VKReIQ+upit9g754Ja722o6Go1zDEe+mOjBExtnzDvKWOOIDTcIOZ9TUqo/vrOPgRU3G8nkKBQfb97BdF0fX8BxpnQz0JEXZ0XNd1ZpZOIHSI3I/nal5XFjMkq5vILa4jZI5s8kPDDL0/IuMbdvDA77JY57OTNamVDoGlsXy2kUsfCpGx3APP+t7jJ5kjmLExtMDZU+JFeyvM1DpBZXeA1cD2/BJFTSkozFn+ji6iCP5GBhEbBOrGGFOvpJra86GSoun5w+xvnMzjsg5hyRtEj4FwkOGCEwPBCZEEC5pTvvyUBVCUJ2JKduBgdECmbhF0XWVDsL+sbM3y0A2T2kyQn1ZUhUoFnWRYK5iNJLE06eOGEwPyA8/i6ZUilvPORetJA4jObQLFuPftx4E46gJ0jXi+/j7RhRB0N82F/fJLRSLNqvuv4/cCUISlkYMPj2njY6tG2i4/F3sued/yFTVMdzbhRYxqb30QjzHYd/9T3PL4Ch7Rfp6hg55b57WuIxlz6fYkd3FjwcfYTBaVO9Tz/DwRBRJihBVYiGQKd+PVtC5YBBxdAxRUNREI8FF80WJUTbUlaLonLFSPl52Dn55nNUnD7J+78YZina47BCBmYPAhAjCpS0Z9XkiKQKxe5YHlBAEUVB0PV+1PO4fHf1Z8kWHhooSlXpwNIMdJa0qrRCOiSGwqKKCr69cCXWlsG8EFjXBU1vFxQryNpw9D1a/DLYLgv3SZnhyK9uHh7n58UdPiG91X26sQ9+xmflf+yyb/+4WUulyhro7SJaWk8sOU1JZQ9H0qL/qYvp//QR3b93JE1KOPwOHEIT2xqUsfiHB7uxufjL4KIOWg+triMep4UlaIWAFihwEDQyvtDtK5MAW+3QMZQmtCIJKPUg0QcfTNeZmM3y88p04lQlWz9vHi3tCgjADb7VwyTMMgSMiCNLKWJ6K4XriClekJBpR30deXbTYPTRKoejSKKkFXWffEZo3zTD8X3e5K+vq+cLy5WhxC1IxqE7Dho7AREcMpk5pgRd2wVgBZol7poa/vYevrXmG1d3dxz2Mf6sV8B2bU+78Jzbf/DXy2RE811FRA/lGK68yEtXVVF1+AV3/8xCPdA/yGzEammFDCMLyxkUsey7Frmwndw49SjQZ4+3Ni4h5UZUsGH/eq0JEaVqQoal6hKDuQGoO9scYXE0UFoN6hSHD4eEtz1GXS/KxynfiV8Z4+qQeXtqzaYahHC43RGDmIXBEBEF0ECRqIEP5yzueKmiKSO/i+OgaGMV2PebPbWXBBZdSLGsc/7oy88B9MysWXC+qqKSyrxdGxqC1WsQjYMv4w1/+PpKH7qHgNO2t8PxO1aZ5d8zCiwTX6Xgd7c89hb93NxWXnc+eH/8nfsEmUVrG6EAfRsTCtYuB2qb4gdTVU37JOXTfcy/r9RjORe95S5U4pz2GomjqJDHu2MXm3r3cNfgITZlqvvOBv6DMTeDx+tG7IJjgI6QgGDqurqn0go9Dpz/M/7r977AcjaurzyPZWobzoSYG3Oy0hyWcYIhAiMCbQyCTSfPBqz542INo+1MM0ur46nqDgu2ojob9LY5ylK6BLNUNTXz+1h/RuqT9zc0u3Jvir3+Lu3kzSGHi4mbY2wdDuSBW/Pa5B1INySic3gYPvYSxeBHm0sWgG2jSfqobIHbWJanjBtHsCy/w3J9/XM03mpB5+xTGRsnU1KtUg6bpRGIx7HxOpVTMTAnNH/0Aw//xKCUXXEDjh/8s8MKYIWNwUxdrP/ZLOnd38Fx8FxXxCla9/f0ksVANCm8wXFWn4I87OWpEMHC9PPvMHP/6wM+wChqn2K2kT63ntO9dQaK25I0OGf4+RCBE4ARAYH+H4ustRREE+aZRfogGQt52iBgGxrg9s3xQD+Q9vvj9u1h2zgUnADRTuQQfe0yiBT7Ok8/gj+UgXwxIwuotQQ7ZMKTvFDZ3BdGF8iQUbOgfC15fPSIm8U/fpMrU1HjFbfJg18mpXPGh5979/e/hrl3PrnXPYkYiGJEohdERDNMkU9tA/56dxDOl5FWLqk96bhslyxey96f/xcKvf4Pyt6+cTsuZ1LkMbuxi/Uf/nURBp/KcZiIkKbFTAbHUDt/n4Sk1xaCQ0ZCqRWmEdFx0w1fFjkPxIpZ4Ovx6E/7SMtpvvYxE3fFDNicV+PDgIQIzHIGAIGiSBj8gsSys4o8RhHd/8otc/LGbX2ltnOHYvcnl+3h7Osj/4pdBMaIQhBVzVEGies5LZ0NbNWzqhIQFMQsay2FnL/SOHHzueBTz2nfjewFx8N1i8OoHr5omKQnpl5eOFA1ND1IUB/6+/99FMEsM/qLB73XRx5g8kpHfvZsNn70ZL5dT6YWy+mYGOg52EEyVV5Lt36fuucoLzqLvodWSA6P9zruJNTW/yWtwfOw+sLGbtR+7h9xAluGToSRSRnv1UuKekkQ67CLE1zEgCPJHihV1VazoUqTfyrN671qsEZ+SzWAsKWf5P19Ooj6MIBwfd0Y4yxCByUVAEQT5glqTjuP4Htm8Q2nCoui4r0kx3PDNO1h6zkWTO6MZcnTfdcnf+kN8ybe7HtSXgaQSXg78IrRzFuA/sVnaS1TEQPuTpfj3rkWvrUWvr4N8Hr9QxC/k0aIxope85/WRe6WfPWiDG693H++He1Vj3Ku2CwjGeO5aPIN9VxWt+n5gcS0+wr4EuNXv5N+d8eL54PdqO1VaL6/COsygZ191vGho2v72WY1t3/gu3b/7XTB/TaP2pAUMduxWKQbPc/E9j7K6Jga69qjX4d5OMkuWsejbtx7d3eLYsK8HCgWwYlBRCdb0revo39TNmut/zovbNvKLgYdpzDTx9Ss+T6UTV+2NhxtizrSfICgBJdXPIBoJNnsZ5HN3fJWI1CDUnEfNqbM59dYPkKhPHx2u4V4hAiECJxQCiiCYukZVOsbwWJGc7VKdieO6nmpzfLWS4md++Avmnvb2EwMAecgV7SB8Hzmg9XBMFifk4Ed34fX3SxUolMbhpNogvSCjKh3oIuyW3xtBJKF/FHI28WuuQUskjsk039KTKEIhhGGckIyTjxe/8BlGXliPFU+oKIIMKVQUciEiUVY8qVIPphXFKRaC31sWVmMz7XfcpcSkJjSkQ2RgEEQdcGwMisWga0TmIYW4pWXQ1ADRIHoynYYQhGduvJsXdqznJ4MP0JRu4luXf5HqYgrtDTo7xLhJihQDE+hAglmCQrZeZA9DfPLOr6D5DtdXXEjLkjbab/kQ8ZAgTKfLH84lRGDKEFAEIWrqynypdzivOhiEIMhzM1d0iRjaK50Mn73jP2lbdtqUTXZSTiwtdfKwkE/N+OT7RsgDqXjfgzjPvxCkFkTvYGkLbO0KOhfkYSVaCA9vCOZUmoDWGtjcSez970OvrJ4UGI71QX3XYfX111Eymic/MsTY0ABWLKEiHE4hhxkNihQltZAorWB0YB/ljbPo2fEyWkmaFXf8mERj0+GnLQ//0VHo3RcQA/uQ2o1D9zZNaGwQi9BjDcdhzycphqc+8TOe37meuwceoLmkmW9e/ldU2UIQDl+sKcqKByII4IwrL9qGwx5tkE/e+Tf4nsvHKy9i9tI22r/zoTCCMK2ufjiZEIGpQ0ARhJKYqbwVuoZySnJZCIIUJ0qIeTRvKzdH+aC++ft3M2/FCVYclstBdw/s2wflFdBQN6nfIt1Nmyn85l6VR1ejsgQyCdjWExSdSSShdzjoZpAuheWzVYujefLJWBedOMWhPY8/yoN/ejnpTCnldQ04hQK6YWIX8q/SAoRUeRX50RFcx2Gor5eCXeSi3z5Matbsw79r8jkY6IfObigegWCzkLKG+oAoTJMxsKGbp266m2d3reOXfQ8yO9XCNy7/ayqchGpjfP2hKY0E6WIwJBUkLczjBMHRbRVBuPnf/hbN9VhVcxFNy9o47ZYrSdSFKYZpcunDaYQITCkC2vtaMr4oKEo6oX+0qDKaIrksLY4ypN1RtBCEOFx80xd45zU3YsUCz4bjdsg3y0IROjuDb5cSat4/ZN3ygKiuestTD/7QEPl/+zG+fFgrguDD6VKY+HLwd9GhOL0VHh9vfRT9g02d6NEksVXXHLdwv2bivs9/nTKfXH+QUkiVlpMqKcEwI8TTGZVqEMEkaYEc6etldHiIsdEsZiLJn9z7IMk3Igdy0B07oK8viNAc6RCSIK2k0+Q+H3yph6c/8TPW7H6en/c9SnOyiX/84JeoLabULeQoAgAqnTD+vtU9ZWgaDBE+CMQPAvVEkZjQPPYyzKf+7ctEXJuPVF1Aw7I5LP/eVWEE4Ujvl3D7EIETFAHtqjllfmkyytBYkbGiq1ILUo+Ql/SCGZg4SSRBSIJEEVZe8Wdc+cWvHbdwaK6Ltn1HEHI+3JDc9qwWvIryY7vW8doIKV70PUfJL2vpNFps+uXGjxaYfHcX/71i6Wt2l/srGosrciD3XC57oFvDiMV5132PEn+jtML+Z2JXN9qu3Uc7RSgtxZs75+j3fwv3HNywj6dvvIvn9q7lJ31/YFamgW9d+VdU5aQWRYoQVa8Cuif/N1ThokQMpOpADMAURxA9CU8LDMEUQXDZzSDX/+T/YLoON1SeT8uiNk757lXEG8IIwlt4+cJDhQhMWwTEEO5wQ7thaa0vBYk9w3lG8g6SbihLWgyN2apAMZOI4LheILmsaTSfdxnVi06ftgt+vYmloxZnNTZSE42ivTpi8AYr2ZbL8dDOg1vvjrvFT7MJG6MjxP7v30x8VvEE2Y98Eq2mbsL7xHSdD7S1Ki2Pox0/3bqN3BvVLRztwSe4nwQzyospnB+uZ8u+ndzTt4aWVC3/dOVfkPGSihTovqfSCGKvbtmBaZOru4o4CGEI9BQ1LFcPijIlvKDb7NT7ufFH/4DmmHys4VxKG8tw/6yNPkIlxQlennCzEIHjFoF0uoQrLnvf4QnCxxfX+PtG8gznbHK2R8LSVT2CjFjEoDRp4bo+VsSg5owLKV+4QvkwHE/jzPo6FldVYR3Fw0K+h60dy/LYxvEOg+Np4dN1rr5P1Z0/gI49bzzDmjoGLv8wTrr0jbc9ZIvmdAnvbWs7at2Oe7ZuoWvoEM2JI57F0e8QjVoUxsYo7TMp+Y9O+geGeHpwG/XpWq6/5CosPYblGcqwqWBK66JOzFFOTRQijkojRBxTpRoKkUAoKeJKHYLILxcZ8ob5zt23Y9oWK8rmQb3FyKXVDKeKRKIWtn0EtRtHv8xwzxCBEIEpQCCTyXDNh686PEH4yMJqX7oXBsaKr9TNSVQyGTWU5XMmYalieitZQtsVN2HGjr8Wu7pUkkvnzME8CmIjadx+S+cXTz+Pc4LYLU/BvfiaU0YG+in9l28dXP9xyFb2qSsYfseFeEfZeiiPyuZ0mvNbmklMtJU1EQ2UKl2P3+zZzdaefVMGl4T/7rn9Dlr7S3mfeyppL4mRjJJKpJl3yiLciK9qCxw8XFOiAzrGuOulbbg4knpwTUzfw7FcfNfD8k18VyfqGuh5h3VPP4OR98nnbLYn+rmHp7BnRbjsT69iLCcFo+EIEQgROBERmBBBuG5hld87UqB/pHCQal48Etg/p2IRRCehfP5y6s9+73FrzrSysZGlUnh4hMPxPHb4Ns/t3EP3oMj+huOtQiDe3UnyV79E6wnEodTQNLz6JsbOfie5lta35FRx0+RtDfXMKSsj8sdIomhNCAuWLpKKEvWzO1bgoa3b2bD3VXN7S2Yz8YNITcYPvvEt5g9UsSpxLrVmBZXV1cQMi1Rlht7EEJucDgbNgpq+6Rn4moHoV2m+p2oNXM0k4tvopoPrObhalIxTwjK/kVQuSl/fPoyCzZ7ODrbGerl9+D7ybRarbrohJAgTv1ThliECxx0CEyIIH11U7fcM5enLHkIQLJ2adEylGSzT4KQrriY9a3oUbR3NlYibES5tmUNKm0AHhpKs11VnwZBdwCjPsLZjFy91TSAkfjSTm+H7xLdvJblhHcXySuy2ueSqJkfroTwW47TaOuqsEvUwPWiUJYNrLq2l4/LSq7dtYX3nmyh0fFPXVUNqVL/59W+zoL+G62Ln0lLawMLTTsEeybNz3Uu8YO7i+1t/RUdsFNsoqmlLG6Pp6uOpBOlakJoEG8t3xYUBx7ZY5NTx2eaLqdXKqWtfpCze1z32JNvp4Lbh+xmba/Hxz95IsZh7UysIdw4RCBGYvgikSzJceekbpBiuX1zjS4GiEAT3VS3VJVGDGhFM0jXiUZNL7/gU6abK6bvaCcysJJdkwZ5WpUl/2CEEoTITqCyOj+5IJ9sSmydwlnCT6Y6AiAdVjZTSuK+OiGuq9kBSMUgeTB73RHeyO7ZjypbTv93n8x/5Nid31nFd4hyay2pYuGIJuTGbrpd2sMfr5acbf8+OaB87Ir1kowV8TboVdJRAkgRFNJG9FlNonUw+Rotex7xiFatOuoCUnqB66Tx8x2PdA4+zW+vituGHcE+N8dXbb0BPhimGKbv44YlDBCYZgZie4ZTSKw//KLxxWZ0/kC0ghYpSpLh/pOMm9aVxZROQTFp84O7PES1NTvKUJ//w6VyS+a9HEqRTQ/wQhsYgHQ8MksbHgNnPxuS6yZ9geIZjhoAyzXQNSkfTNNutRM2DXQy7rA62x18+ZvM59ET92z2+uOrbzO1sYFXybGaVV7GgfSGOaaF5Js5QnvUvr2NNYQt3bfsdHakRPD0oLHRF6ExalDVPRUvMosViu4rrT3oXTX4l8+Yvxo9bOFLHkM2z9rGn2Kp18a8jj+Ittfh7RRDCCMKUXfzwxCECk4zAhAjCJ5bV+WMFm+5h6WTYX7XsU560qC9NkLMdSqjXkgwAAAnuSURBVMtSXPGLzxMRIZ8TYERti7auJjK5Vz0QJFpQmQ7Cy55Pnhwx/UBB5ogxzPrUcyfA6sMl/DEETN9kztjJlDkHomSDZj8bppAUDmzz+NKqW2jrruaG6Fk0VtTTdNYixF3NdCz0IZtt2zezeXQ3/73xEfqsUQpREYbylHCS/AlaHHV022S2UcnlC86lljSz5s4jHzdxIi6RrM3ah55iu97LbYMPYi+P8A+3XR9GEMK3SojACYzAhAmCVOd3DubpHxUznKBNSuyfxeFxtGBTUZ3mip9/HmO8/fFEwExCsIlCjLLRNOXZDHFxxqvIvK69cVYfYV3JmhNh6eEaXgcBwzdoys+ittggfpPk9RzPlzwdmExNwZAIwpeuvYVZvVV8LL6SlrIGWs9cJJKJaF4EXToSig7ZgQG2btiALg6s8v6VlIkQA1WT4ARiZx5EYwnmLV2MZxkQNZQCo+a7GKMuax57hu10c2f/A9inmnz1RzehhRGEKbjq4SlDBI4NAhMmCKJa1zOUo2ekoFod5eOlNhOjMh1TXgxVDeVccfdnjzv9gyOBOVVM0mDPpswpVw+HQ8eonmVtybNHcshw2+MQAbn29fkmmgqzlJ31cyVPU9QDF8ljPfqEIKy6hZbeKq5NrqSttJH5py/EFxEkDBUZMF1wB3P0be9UIklSoCjtjlKsKD9KC2REdJGEMKQilM5vJBfz0HQfy3YRxZNC3mX146vZZfbx45778ZaZ/N3tN2GmiuPkaGoI0rHGOzxfiMBMQmDCBEFAEatnMWuSOgSJtksHQ0VJjFzRoWFuHZfc8akZgV2ZXUFzfjZxT4xwDhCFMUUQ1kzZt8kZAf40WmRFsZK24ZPYnN7IoPUGstyTNG8hCP/72lto66nimtRKWjPNzD99EXbEVlECXUQRJd7n6fieGDNJ9EACDD6a5qqffd1EV7/zKWoedtzAMXwMzyPqyINfo1D02PzSBrzWOH/92K04i3W++v0bMBL58H6fpGsbHjZEYKoROCKCkLcdugdyDOYd1elVmYpSnorieT5tK+dz3t9fPdXrOabnb8zPoq7YgOSmZeS1MZ5PPxN+YB7TqzC1J5M6le7SPrKxsSmZSN82ny9f813m9lTy4eTbmFXWyskrlpC1ikRFFMnVVD2CcmKQNILMUkyZvCKG4anuBYkyqLqaV+oRwNRMRF49UETV8KQG4Q+rSbfXcefwY6yLbOYr3/sofnR0StYdnjREIERg8hE4IoIgdQhdgzkGxmxl9SxFimLiJCJJp153LkuvPW/yZzzNziDtkC3ZFmrzddgRnzWZJ/HkAzgcIQLHAAEhCF+RCEJvhsvSZ3JSZg6L25cxGvOxHA3dE8nkQFxK0goqniDRA9XF6+H5Lp5h4HlBVFCMyqRt2fdkGwNPChMiJsVcjjWPP05HcpD+M0vYZG7nI194J24k9GQ4Bpc5PEWIwJQgMCGCcOPSWl8U2yRS0DU4Rv+ojVgWSAShJGZhWQZ/8s3rqFkya0oWMdUnFTOcxbvnELWjPDv7RVwjJAhTfU1myvmz3QZ3f+fXlI3GWZ6aT2OulkV+C56hE7WSaLqHo9sqtaD5ujJuskcLRFwd3dEwNANb2ILUJKYT2E4ez/DRDHm/iymDR789QmJeBftS+9jm7uGp/g3MObOVk07J4Ophm+NMudfCdc48BI6YIHQP5egfLRIxNCWzLKZNiZI4V/7ic0QOEZGZSXDGizGW7JjLC7M2kbempmBtJuEdrjVAQPNNPFvMFzUMImgvRhn6y42kijEWn3UWrlJ9dFXNgeH72Nk8z69eg1700YuaSiVIQaOetFhy9grsiEgve6p2Qayf3YLNk1ueoelDi8lflCOfHMLxHTRTA91RRZrhCBGYbASE4FpOhKJpK6GvcBwbBI6IIIgLbPfQGH3ZIlFTpzoTI6JrlNWVccXdn0N7largsZn+9DpLWTbNYHIkvIGn12WZMbORgll9Q4rhGzeStjPMW3ZqQBCQh71PRBwdx8ZY/8JacEGTCIKu42FD3GThmaeoLISkyPKmjoWBMVxg7ctrqb1+EaPvHyUfG3ylMHeqWjtnzAUNF/oaBCw7guHrFMU3RBc9j3BMJgITIghi92waOtLqKBGEfdmisnyuy8RVy2PjoiYu/v4ngt7HcIQIhAhMCQIaOsZLSfpu2Ex0OE5MM9XD3NM1LGlj9AJJ5YJrK3tr+SIm5TJiAS22EyJ9gO/iRjWi8xqpqqph12PPkXfz8IE6yj+TphDbb0Ym9CD8JjclF3qmntSHZCFO3UAVqXyCzrJeetMDeHoYxZqsW2JCBEHsnqMRKWTy6ZIIwkiRkniEutI44mS46D3LOeuvLp+sOYbHDREIEXgDBAwvgjkWQ1sXpf/L27D2aVgFB00YvKIJgbiZ6B4Qt3A1aXP0A88RTcM2UZbPhWIOLR6hdWU727ZuJ7elk5qTGsmtLCHxPhO3ahQnmlfiSuEIETgWCEh6IVa0aOivoXKk9KDW8pyVZ3tVB8OJbBi5nYSLMSGCsGpBlR+3TOXoJl0MUoMgHQxVJTGkSertN1/MgivOnITphYcMEQgRmAgCWkecjlu2U9VdSXvpUpzhAi88+ZQSSVJfsHQNeaTrqRiL20+BqKnUFn3pXjBc8pZPLqmTGx6mb8suyupr8XMuu9e9zIILT6e0vY37fvXvOHNcGq5vwMtMTVvnRLAItzlxEIjZFrO6GygbSx92UUIUNtbvCOu/3uJLPyGCcM28Sj8Vi1B0XJViGBqzVf1BJm4p99v3/vONVM1vfIunFh4uRCBEYKIImNuS9H16EzX5Bha2t5MfGeK5Z9dgFMWISVwbNRwNzFScZaedgh6RzgVNpRyEQfT5ObTqNGRzbLr3cTRPI65HxeqRJR88By+q88yPfk9urk/VNxqxq0YmOrVwuxCBI0ZAIgat3Y2U5FOBk+oEhqf5vFy/i/7k4AS2DjeZCAITIghXn1zhl8QtsnmbPuXo6FKbiSNph2Q6zmV3fYZ42cEudxM5ebhNiECIwFuDgLk9xcDN26nK1dG6YhGW40DRDcSRlPVCQBIkzWBZlupcUP/pHlpMwy6xGCmOUVVfByKG1rGPuGMSLWhQZjCWHWPb/ZsZXGBT8U91OJX7axHemvmHRwkREAQknTCnqxkp+JZixCMdjumxpXEvA1b/ke4abv9HEJgQQbjm5Eo/GYvQl80xknNUNlMiCPJa2VLFpbf/OUY0EgIcIhAiMEUICEEY/vOd1IxUM7v9ZHSK6K6Fa2hKl0OVE/rSCinuTG5AECLgxHWic6sZ6enFHRwG06C8qRknaqFnXfKbO7DkjT5QZOsTm+lfYlP6zQaKVSFBmKJLfcKftnqonNbupqOueR+q9XkpvfaEx+lYLHAiBOH/AxZ6sfWDV+xLAAAAAElFTkSuQmCC;" vertex="1" parent="2">
                    <mxGeometry y="20" width="816.38" height="460" as="geometry"/>
                </mxCell>
            </root>
        </mxGraphModel>
    </diagram>
</mxfile>